<svg width="12" height="12" viewBox="0 0 12 12" fill="none" xmlns="http://www.w3.org/2000/svg">
<path d="M10.6596 5.75017C10.6118 4.83195 10.2924 3.94861 9.74202 3.21209C9.57431 3.3927 9.39505 3.56223 9.20535 3.71959C8.62256 4.20366 7.9713 4.59878 7.27277 4.89209C7.37018 5.09625 7.45943 5.294 7.53818 5.48067V5.48242C7.5604 5.53458 7.5818 5.58709 7.60235 5.63992C8.48552 5.54075 9.41652 5.57692 10.3189 5.69884C10.4391 5.71517 10.5523 5.73267 10.6596 5.75017ZM5.18502 1.40434C5.7535 2.20535 6.27772 3.03688 6.75535 3.89517C7.46877 3.614 8.05852 3.25934 8.53335 2.86442C8.69817 2.72858 8.85332 2.58142 8.99768 2.424C8.15825 1.71801 7.0962 1.33161 5.99935 1.33317C5.72637 1.33298 5.45389 1.3566 5.18502 1.40375V1.40434ZM1.48027 4.83142C1.87765 4.82139 2.27456 4.79746 2.67027 4.75967C3.62672 4.67412 4.57501 4.5138 5.50643 4.28017C5.01965 3.43446 4.49409 2.61167 3.93143 1.81442C3.33043 2.11215 2.8005 2.53566 2.37758 3.05621C1.95465 3.57677 1.64863 4.18219 1.48027 4.83142ZM2.37277 8.93692C2.5991 8.60617 2.8966 8.234 3.29152 7.82917C4.13968 6.96 5.14068 6.28334 6.29918 5.91L6.33535 5.8995C6.2391 5.68717 6.14868 5.49759 6.05768 5.31909C4.98668 5.63117 3.85852 5.826 2.73443 5.92692C2.1861 5.9765 1.69435 5.99809 1.33268 6.00159C1.33165 7.0706 1.69919 8.10729 2.37335 8.93692H2.37277ZM7.75227 10.3253C7.52731 9.19082 7.20889 8.07694 6.80027 6.995C5.63243 7.41909 4.70202 8.03917 3.98277 8.77884C3.6925 9.07189 3.43491 9.3956 3.21452 9.74426C4.01882 10.3444 4.99583 10.6679 5.99935 10.6665C6.60013 10.6674 7.19539 10.5519 7.75227 10.3264V10.3253ZM8.84485 9.69817C9.75559 8.99803 10.376 7.9865 10.5873 6.85734C10.3889 6.80775 10.1375 6.75817 9.86102 6.71967C9.24626 6.63115 8.62247 6.62467 8.00602 6.70042C8.35313 7.67974 8.63339 8.68148 8.84485 9.69875V9.69817ZM5.99935 11.8332C2.7776 11.8332 0.166016 9.22159 0.166016 5.99984C0.166016 2.77809 2.7776 0.166504 5.99935 0.166504C9.2211 0.166504 11.8327 2.77809 11.8327 5.99984C11.8327 9.22159 9.2211 11.8332 5.99935 11.8332Z" fill="#2B2B2B"/>
</svg>
