<svg width="12" height="10" viewBox="0 0 12 10" fill="none" xmlns="http://www.w3.org/2000/svg">
<path d="M11.9272 1.29953C11.4819 1.49652 11.0096 1.62589 10.526 1.68337C11.0357 1.37854 11.4172 0.898793 11.5994 0.333535C11.121 0.618201 10.5966 0.817701 10.05 0.925618C9.68288 0.532789 9.19624 0.272263 8.66575 0.184542C8.13526 0.0968217 7.59066 0.186821 7.1166 0.440549C6.64254 0.694277 6.26559 1.09752 6.04434 1.58758C5.8231 2.07764 5.76996 2.62707 5.89319 3.15045C4.92317 3.10183 3.97422 2.84976 3.10794 2.41059C2.24167 1.97142 1.47743 1.35498 0.864859 0.601285C0.648029 0.973714 0.534083 1.39708 0.534693 1.82803C0.534693 2.67387 0.965193 3.42112 1.61969 3.85862C1.23236 3.84642 0.853562 3.74182 0.514859 3.55354V3.58387C0.514976 4.14719 0.709908 4.69314 1.0666 5.12915C1.4233 5.56516 1.91981 5.8644 2.47194 5.97612C2.11238 6.07356 1.73537 6.08792 1.36944 6.01812C1.52512 6.503 1.82853 6.92707 2.2372 7.23093C2.64588 7.5348 3.13935 7.70325 3.64853 7.7127C3.14247 8.11014 2.56305 8.40394 1.94337 8.5773C1.3237 8.75066 0.675934 8.80018 0.0371094 8.72303C1.15227 9.4402 2.45042 9.82094 3.77628 9.8197C8.26386 9.8197 10.7179 6.10212 10.7179 2.87804C10.7179 2.77304 10.715 2.66687 10.7104 2.56303C11.188 2.2178 11.6003 1.79013 11.9278 1.30012L11.9272 1.29953Z" fill="#2B2B2B"/>
</svg>
