<svg width="12" height="12" viewBox="0 0 12 12" fill="none" xmlns="http://www.w3.org/2000/svg">
<path d="M0.749349 0.75H11.2493C11.4041 0.75 11.5524 0.811458 11.6618 0.920854C11.7712 1.03025 11.8327 1.17862 11.8327 1.33333V10.6667C11.8327 10.8214 11.7712 10.9697 11.6618 11.0791C11.5524 11.1885 11.4041 11.25 11.2493 11.25H0.749349C0.594639 11.25 0.446266 11.1885 0.33687 11.0791C0.227474 10.9697 0.166016 10.8214 0.166016 10.6667V1.33333C0.166016 1.17862 0.227474 1.03025 0.33687 0.920854C0.446266 0.811458 0.594639 0.75 0.749349 0.75ZM6.03435 5.81508L2.29402 2.63883L1.5386 3.52783L6.04193 7.35158L10.4642 3.52492L9.70118 2.64233L6.03493 5.81508H6.03435Z" fill="#2B2B2B"/>
</svg>
