<svg width="10" height="12" viewBox="0 0 10 12" fill="none" xmlns="http://www.w3.org/2000/svg">
<path d="M1.49935 0.166664H8.49935C8.65406 0.166664 8.80243 0.228122 8.91183 0.337518C9.02123 0.446915 9.08268 0.595288 9.08268 0.749997V11.25C9.08268 11.4047 9.02123 11.5531 8.91183 11.6625C8.80243 11.7719 8.65406 11.8333 8.49935 11.8333H1.49935C1.34464 11.8333 1.19627 11.7719 1.08687 11.6625C0.977474 11.5531 0.916016 11.4047 0.916016 11.25V0.749997C0.916016 0.595288 0.977474 0.446915 1.08687 0.337518C1.19627 0.228122 1.34464 0.166664 1.49935 0.166664ZM4.99935 8.91667C4.84464 8.91667 4.69627 8.97812 4.58687 9.08752C4.47747 9.19691 4.41602 9.34529 4.41602 9.5C4.41602 9.65471 4.47747 9.80308 4.58687 9.91248C4.69627 10.0219 4.84464 10.0833 4.99935 10.0833C5.15406 10.0833 5.30243 10.0219 5.41183 9.91248C5.52122 9.80308 5.58268 9.65471 5.58268 9.5C5.58268 9.34529 5.52122 9.19691 5.41183 9.08752C5.30243 8.97812 5.15406 8.91667 4.99935 8.91667Z" fill="#2B2B2B"/>
</svg>
