<svg width="12" height="12" viewBox="0 0 12 12" fill="none" xmlns="http://www.w3.org/2000/svg">
<path d="M5.99935 0.166504C7.58427 0.166504 7.78202 0.172337 8.40385 0.201504C9.0251 0.230671 9.44802 0.328087 9.82018 0.472754C10.2052 0.620921 10.5295 0.821587 10.8539 1.14534C11.1505 1.43694 11.38 1.78968 11.5264 2.179C11.6705 2.55059 11.7685 2.97409 11.7977 3.59534C11.8251 4.21717 11.8327 4.41492 11.8327 5.99984C11.8327 7.58475 11.8268 7.7825 11.7977 8.40434C11.7685 9.02559 11.6705 9.4485 11.5264 9.82067C11.3804 10.2102 11.1508 10.563 10.8539 10.8543C10.5622 11.1509 10.2094 11.3804 9.82018 11.5269C9.4486 11.671 9.0251 11.769 8.40385 11.7982C7.78202 11.8256 7.58427 11.8332 5.99935 11.8332C4.41443 11.8332 4.21668 11.8273 3.59485 11.7982C2.9736 11.769 2.55068 11.671 2.17852 11.5269C1.78904 11.3808 1.43624 11.1512 1.14485 10.8543C0.848169 10.5628 0.618642 10.21 0.472266 9.82067C0.327599 9.44909 0.230182 9.02559 0.201016 8.40434C0.173599 7.7825 0.166016 7.58475 0.166016 5.99984C0.166016 4.41492 0.171849 4.21717 0.201016 3.59534C0.230182 2.9735 0.327599 2.55117 0.472266 2.179C0.618237 1.78944 0.847818 1.43661 1.14485 1.14534C1.43632 0.848555 1.7891 0.619013 2.17852 0.472754C2.55068 0.328087 2.97302 0.230671 3.59485 0.201504C4.21668 0.174087 4.41443 0.166504 5.99935 0.166504ZM5.99935 3.08317C5.2258 3.08317 4.48394 3.39046 3.93695 3.93744C3.38997 4.48442 3.08268 5.22629 3.08268 5.99984C3.08268 6.77339 3.38997 7.51525 3.93695 8.06223C4.48394 8.60921 5.2258 8.9165 5.99935 8.9165C6.7729 8.9165 7.51476 8.60921 8.06174 8.06223C8.60873 7.51525 8.91602 6.77339 8.91602 5.99984C8.91602 5.22629 8.60873 4.48442 8.06174 3.93744C7.51476 3.39046 6.7729 3.08317 5.99935 3.08317ZM9.79102 2.93734C9.79102 2.74395 9.71419 2.55848 9.57745 2.42174C9.4407 2.28499 9.25524 2.20817 9.06185 2.20817C8.86846 2.20817 8.683 2.28499 8.54625 2.42174C8.4095 2.55848 8.33268 2.74395 8.33268 2.93734C8.33268 3.13072 8.4095 3.31619 8.54625 3.45294C8.683 3.58968 8.86846 3.6665 9.06185 3.6665C9.25524 3.6665 9.4407 3.58968 9.57745 3.45294C9.71419 3.31619 9.79102 3.13072 9.79102 2.93734ZM5.99935 4.24984C6.46348 4.24984 6.9086 4.43421 7.23679 4.7624C7.56498 5.09059 7.74935 5.53571 7.74935 5.99984C7.74935 6.46397 7.56498 6.90909 7.23679 7.23727C6.9086 7.56546 6.46348 7.74984 5.99935 7.74984C5.53522 7.74984 5.0901 7.56546 4.76191 7.23727C4.43372 6.90909 4.24935 6.46397 4.24935 5.99984C4.24935 5.53571 4.43372 5.09059 4.76191 4.7624C5.0901 4.43421 5.53522 4.24984 5.99935 4.24984Z" fill="#2B2B2B"/>
</svg>
