<svg width="83" height="58" viewBox="0 0 83 58" fill="none" xmlns="http://www.w3.org/2000/svg">
<path d="M36.0295 51.1307C36.0484 52.1409 34.8737 53.2063 33.6237 53.264C33.7908 54.0457 33.9956 54.8081 33.6613 55.6066C33.1764 56.8644 31.8722 57.5499 30.5846 57.3791C28.5153 57.0929 27.9551 54.178 29.9513 53.3025C30.6599 52.9971 31.7216 53.7018 30.94 54.4064C30.5116 54.8057 29.803 54.9211 30.1185 55.7581C30.3044 56.2151 30.8082 56.3113 31.2178 56.2343C31.9264 56.102 32.3172 55.4911 32.3548 54.8057C32.449 54.214 32.2254 53.6056 32.0747 52.9947C31.1425 52.5377 30.4339 51.4891 30.6952 50.4236C30.9 49.4905 32.037 49.8705 31.5898 50.4621C31.385 50.8614 31.6839 51.4338 32.0182 51.7392C32.1124 51.3015 32.2607 50.883 32.5031 50.4814C33.4377 49.0167 35.9919 48.9397 36.0295 51.1307ZM34.6312 50.4453C33.8096 50.2938 33.4754 51.3977 33.4565 51.9893C33.4565 52.0278 33.4565 52.0663 33.4565 52.1048C33.7367 52.0663 34.0168 51.9725 34.2404 51.8186C34.8172 51.4169 35.248 50.6545 34.6312 50.4453Z" fill="#767676"/>
<path d="M38.4743 50.9599C38.2884 51.1884 37.9329 51.6453 37.5421 52.2178C37.6716 52.2178 37.7846 52.237 37.8411 52.237C38.1401 52.2563 37.8223 53.0572 37.4692 53.0572C37.3397 53.0572 37.1514 53.0379 36.9654 53.0379C36.0897 54.3151 35.214 55.686 35.3434 55.8014C35.5859 56.0684 36.7606 54.7167 37.2455 54.1443C37.5822 53.7643 38.0106 54.202 37.6551 54.6013C36.8171 55.496 35.5671 57.2493 34.5595 57.0593C33.8133 56.9439 33.5143 56.0877 34.1311 55.2314C34.3924 54.8514 34.9527 53.9351 35.5294 53.0019C35.4352 53.0019 35.3434 53.0019 35.2493 53.0019C34.9126 53.0019 35.2681 52.1817 35.6047 52.1625C35.6989 52.1625 35.866 52.1625 36.052 52.1625C36.6476 51.21 37.1702 50.3899 37.3397 50.2383C37.6386 49.9521 37.9918 49.7236 38.2907 49.8006C38.585 49.892 39.0323 50.3129 38.4743 50.9599Z" fill="#767676"/>
<path d="M42.4432 54.618C41.6216 55.5127 40.3928 57.2468 39.3853 57.0761C39.0133 56.9991 38.8627 56.6576 38.9003 56.2367C38.5825 56.5975 38.1541 56.9221 37.688 56.9221C36.1414 56.9221 36.5886 54.9211 37.502 53.8364C38.4154 52.7492 39.5712 51.9892 40.2987 52.2923C40.5411 52.3885 40.6894 52.5785 40.7648 52.7877C40.8024 52.73 40.8213 52.6915 40.8589 52.6554C41.1579 52.3692 41.5298 52.1407 41.81 52.2369C42.1278 52.3139 42.5562 52.7516 42.0148 53.3986C41.3815 54.1226 40.188 55.5705 40.374 55.7605C40.5411 55.9312 41.5863 54.7118 42.0713 54.1418C42.4055 53.7594 42.7963 54.2356 42.4432 54.618ZM39.3288 54.618C39.9079 53.8941 40.261 53.2856 40.1315 53.1701C40.0209 53.0547 39.4418 53.5886 38.8085 54.3703C38.1941 55.1327 37.8763 55.8759 37.9516 55.9505C38.1164 56.1212 38.7497 55.342 39.3288 54.618Z" fill="#767676"/>
<path d="M45.7263 50.9599C45.5403 51.1884 45.1849 51.6453 44.7941 52.2178C44.9236 52.2178 45.0366 52.237 45.0931 52.237C45.392 52.2563 45.0742 53.0572 44.7211 53.0572C44.5916 53.0572 44.4033 53.0379 44.2174 53.0379C43.3416 54.3151 42.4659 55.686 42.5954 55.8014C42.8379 56.0684 44.0126 54.7167 44.4975 54.1443C44.8341 53.7643 45.2626 54.202 44.9071 54.6013C44.069 55.496 42.819 57.2493 41.8115 57.0593C41.0652 56.9439 40.7663 56.0877 41.383 55.2314C41.6443 54.8514 42.2046 53.9351 42.7814 53.0019C42.6872 53.0019 42.5954 53.0019 42.5012 53.0019C42.1646 53.0019 42.5201 52.1817 42.8567 52.1625C42.9509 52.1625 43.118 52.1625 43.304 52.1625C43.8996 51.21 44.4222 50.3899 44.5916 50.2383C44.8906 49.9521 45.2437 49.7236 45.5427 49.8006C45.837 49.892 46.2842 50.3129 45.7263 50.9599Z" fill="#767676"/>
<path d="M47.1056 54.6182C46.2652 55.5129 45.0552 57.247 44.0288 57.0762C43.3014 56.9439 43.226 56.0853 43.824 55.2291C44.4572 54.3536 45.1658 52.9995 45.5024 52.658C45.8014 52.3718 46.1734 52.1433 46.4535 52.2395C46.7713 52.3165 47.2186 52.7542 46.6583 53.4012C46.0251 54.1251 44.8315 55.573 45.0175 55.763C45.1846 55.9338 46.2487 54.7144 46.7336 54.1444C47.0491 53.7596 47.4587 54.2358 47.1056 54.6182ZM47.1432 51.7224C46.2487 51.7224 47.1244 49.7021 48.1508 49.9306C49.0995 50.1399 47.8518 51.9509 47.1432 51.7224Z" fill="#767676"/>
<path d="M51.5818 54.618C51.3016 54.9042 51.005 55.2842 50.6872 55.6474C49.9786 56.4291 49.755 56.7153 49.0653 56.5806C48.9523 56.5614 48.8793 56.5229 48.804 56.4652C48.3567 56.7898 47.9094 56.9606 47.5351 56.9606C46.2663 56.9606 45.8567 55.645 46.6217 54.3318C47.3868 52.9994 48.6345 52.1407 49.5314 52.1407C50.4824 52.1407 51.2098 52.9417 50.4636 54.4449C50.2211 54.9211 49.941 55.3396 49.642 55.7027C49.7715 55.645 49.9951 55.4742 50.2211 55.2265C50.5742 54.8633 50.9485 54.4256 51.191 54.1394C51.5253 53.7594 51.9349 54.2356 51.5818 54.618ZM49.4749 53.2639C48.9334 53.2639 47.1067 55.8927 47.6293 55.8927C48.0201 55.8927 50.0163 53.2639 49.4749 53.2639Z" fill="#767676"/>
<path d="M55.9419 54.6182C55.1038 55.5129 53.8915 57.2469 52.8651 57.0762C51.8387 56.8862 52.1 55.8761 52.7168 55.0198C53.3124 54.1636 54.0774 53.5143 53.9479 53.3435C53.835 53.1727 52.7168 54.3344 52.3637 54.7144C51.9541 55.3421 51.5421 55.953 51.2831 56.3138C50.8924 56.8669 50.7229 57.0762 50.2756 57.0762C49.5859 57.0762 49.7718 56.143 50.6122 55.0198C51.2266 54.1636 51.7681 53.2665 51.8622 53.0765C52.1424 52.5041 52.2342 52.2203 52.6273 52.2203C52.9263 52.2203 53.2982 52.4488 53.3547 52.8481C53.802 52.4873 54.2681 52.2203 54.7342 52.2203C55.1815 52.2203 55.8147 52.7543 55.2192 53.6297C54.6236 54.5052 53.6725 55.573 53.8585 55.763C54.0256 55.9338 55.0708 54.7144 55.5558 54.1444C55.8854 53.7596 56.2973 54.2358 55.9419 54.6182Z" fill="#767676"/>
<path d="M8.09576 27.1974L8.73606 28.4144C9.61649 30.0884 8.99972 32.1929 7.38011 33.0828L5.94649 33.8717L8.86084 39.4035C9.00208 39.6705 8.90556 39.9904 8.64661 40.1347L7.34481 40.8514C7.08351 40.9957 6.77041 40.8971 6.62916 40.6325L0.117795 28.2773C-0.0234498 28.0103 0.073061 27.6905 0.332009 27.5461L3.53121 25.7856C5.15316 24.8933 7.21534 25.5258 8.09576 27.1974ZM5.81231 28.3302C5.59102 27.9117 5.09666 27.7434 4.68705 27.9695L3.25343 28.7583L4.73649 31.5724L6.17013 30.7835C6.57974 30.5574 6.71627 30.0427 6.5044 29.6434L5.81231 28.3302Z" fill="#767676"/>
<path d="M12.3756 24.4509L13.4632 27.4693L15.2076 26.8127C15.4853 26.7093 15.7843 26.8488 15.8855 27.1326L16.3375 28.3881C16.4387 28.6719 16.3022 28.9773 16.0244 29.0807L14.2801 29.7373L15.8196 34.0112L18.5762 32.9746C18.854 32.8712 19.153 33.0107 19.2542 33.2945L19.7203 34.5908C19.8216 34.8746 19.685 35.1801 19.4072 35.2835L14.7462 37.0368C14.4684 37.1403 14.1694 37.0008 14.0682 36.717L9.32238 23.549C9.22116 23.2652 9.3577 22.9598 9.63548 22.8563L14.2942 21.103C14.572 20.9996 14.8709 21.1391 14.9722 21.4229L15.4383 22.7192C15.5395 23.003 15.403 23.3085 15.1252 23.4119L12.3756 24.4509Z" fill="#767676"/>
<path d="M24.0006 19.0009L24.3372 20.3839C24.4078 20.6773 24.2172 20.9707 23.9511 21.0381L22.1879 21.4854L25.0317 33.1983C25.1023 33.4917 24.9328 33.7803 24.6456 33.8525L23.2096 34.2157C22.9436 34.283 22.6399 34.1146 22.5693 33.8212L19.7256 22.1083L17.9812 22.5509C17.694 22.623 17.4115 22.4499 17.3409 22.1564L17.0043 20.7735C16.9337 20.4801 17.1031 20.1915 17.3903 20.1193L23.3579 18.6065C23.6286 18.5392 23.93 18.7075 24.0006 19.0009Z" fill="#767676"/>
<path d="M32.6386 25.2399L35.0116 28.5638C35.1457 28.7634 35.2211 29.0135 35.254 29.2492L35.5459 31.3874C35.586 31.6856 35.4094 31.9526 35.1175 31.9935L33.6533 32.2027C33.3614 32.2436 33.0765 32.044 33.0365 31.7457L32.8317 30.2498C32.7987 30.0141 32.7258 29.7856 32.5869 29.5427L29.769 25.6272L30.6518 32.1065C30.6918 32.4047 30.4941 32.6741 30.2022 32.715L28.7379 32.9242C28.4649 32.9627 28.1824 32.7631 28.1424 32.4649L26.245 18.5658C26.205 18.2676 26.4239 17.9958 26.6946 17.9573L30.3152 17.4426C32.1561 17.1805 33.8533 18.5081 34.1099 20.3889L34.2936 21.7357C34.4913 23.1884 33.7827 24.5545 32.6386 25.2399ZM30.6495 19.9006L29.0181 20.1339L29.4536 23.3207L31.085 23.0874C31.5252 23.0249 31.8477 22.5871 31.7818 22.0941L31.5793 20.6198C31.5157 20.1484 31.0897 19.8381 30.6495 19.9006Z" fill="#767676"/>
<path d="M43.9019 19.2776L44.2197 28.8379C44.2715 30.37 43.0874 31.6423 41.6091 31.6928L39.2856 31.7722C37.7861 31.8251 36.5408 30.637 36.4913 29.1049L36.1735 19.5445C36.1218 18.0125 37.2847 16.7185 38.7842 16.668L41.1077 16.5886C42.5837 16.5381 43.8502 17.7479 43.9019 19.2776ZM41.3737 19.583C41.3643 19.28 41.103 19.0731 40.8063 19.0851L39.2433 19.1405C38.9466 19.1501 38.7018 19.3762 38.7112 19.6768L39.0125 28.7393C39.022 29.0424 39.2856 29.2925 39.5799 29.2805L41.143 29.2252C41.4396 29.2155 41.6844 28.9462 41.6727 28.6455L41.3737 19.583Z" fill="#767676"/>
<path d="M49.0385 17.2688L48.3511 29.3593L51.3031 29.5349C51.5974 29.5517 51.8163 29.8042 51.7998 30.1049L51.7222 31.483C51.7057 31.7837 51.4585 32.0073 51.1642 31.9905L46.2066 31.6971C45.9123 31.6802 45.6934 31.4277 45.7099 31.1271L46.5055 17.1197C46.522 16.8191 46.7692 16.5954 47.0634 16.6122L48.5395 16.6988C48.8361 16.718 49.055 16.9682 49.0385 17.2688Z" fill="#767676"/>
<path d="M56.8477 19.9775L56.398 23.1619L58.2389 23.4337C58.5308 23.4769 58.7286 23.7463 58.6862 24.0445L58.5002 25.3697C58.4578 25.668 58.1942 25.87 57.9023 25.8267L56.0614 25.5549L55.4258 30.0645L58.3331 30.4926C58.625 30.5359 58.8227 30.8052 58.7803 31.1035L58.5873 32.472C58.5449 32.7702 58.2813 32.9722 57.9894 32.9289L53.0741 32.205C52.7822 32.1617 52.5844 31.8923 52.6268 31.5941L54.5854 17.7047C54.6278 17.4065 54.8914 17.2045 55.1833 17.2478L60.0986 17.9717C60.3905 18.015 60.5883 18.2844 60.5459 18.5826L60.3529 19.9511C60.3105 20.2493 60.0468 20.4514 59.7549 20.4081L56.8477 19.9775Z" fill="#767676"/>
<path d="M68.8065 19.9774L70.2401 20.3502C70.5273 20.4247 70.6898 20.735 70.6168 21.0284L67.7636 32.4503C67.3988 33.9151 65.9063 34.817 64.475 34.4442L62.2222 33.8573C60.7885 33.4845 59.9034 31.9597 60.2706 30.4974L63.1238 19.0754C63.1967 18.782 63.4839 18.5896 63.7711 18.6642L65.2048 19.037C65.492 19.1115 65.6544 19.4218 65.5814 19.7152L62.7895 30.887C62.7165 31.1804 62.9048 31.4739 63.192 31.5484L64.7081 31.9429C64.9953 32.0174 65.2989 31.8515 65.3719 31.558L68.1638 20.3862C68.2321 20.0952 68.5193 19.9028 68.8065 19.9774Z" fill="#767676"/>
<path d="M79.0077 37.3978L78.2426 39.2473C78.1249 39.5239 77.8 39.6394 77.5482 39.5263L76.1922 38.9226C75.9215 38.8024 75.8014 38.4897 75.9191 38.2131L76.5759 36.669C76.6277 36.5512 76.6677 36.4502 76.7007 36.3251L78.6569 29.7326L75.2953 35.3005C75.1564 35.5218 74.8857 35.6132 74.6527 35.5098L73.179 34.8556C72.9459 34.7521 72.8094 34.4804 72.8706 34.2254L74.5679 27.9167L71.178 33.8719C71.1074 33.9825 71.065 34.0811 71.0156 34.199L70.3588 35.7431C70.2411 36.0196 69.9351 36.1423 69.6644 36.022L68.3084 35.4184C68.0377 35.2981 67.9177 34.9854 68.0354 34.7088L68.8381 32.8761C68.864 32.816 68.9228 32.6789 69.0099 32.5274L75.1376 22.4691C75.2765 22.2478 75.5472 22.1564 75.7991 22.2695L77.2515 22.9165C77.5034 23.0295 77.6212 23.2917 77.5599 23.5466L75.6508 31.0554L79.7492 24.5183C79.8881 24.297 80.1588 24.2056 80.3919 24.309L81.8655 24.9632C82.1174 25.0763 82.2351 25.3384 82.1739 25.5934L79.1466 37.0298C79.0924 37.1982 79.0336 37.3377 79.0077 37.3978Z" fill="#767676"/>
<path d="M42.793 36.2795C42.7836 36.2795 42.7718 36.2795 42.7624 36.2795C42.7577 36.2795 42.753 36.2795 42.7459 36.2795C42.7412 36.2795 42.7365 36.2795 42.7294 36.2795C42.72 36.2795 42.7082 36.2795 42.6988 36.2795C27.7669 36.2795 14.5818 40.5557 6.625 47.0928L10.3868 49.0096L10.8411 53.4615C12.1783 52.2421 13.8073 51.0684 15.7188 49.9717C22.821 45.8902 32.4021 43.6415 42.6965 43.6415C42.7059 43.6415 42.7177 43.6415 42.7271 43.6415C42.7318 43.6415 42.7365 43.6415 42.7436 43.6415C42.7483 43.6415 42.753 43.6415 42.76 43.6415C42.7695 43.6415 42.7812 43.6415 42.7906 43.6415C53.0874 43.6415 62.6684 45.8902 69.7683 49.9717C71.6798 51.0708 73.3088 52.2421 74.646 53.4615L75.1003 49.0096L78.8621 47.0928C70.91 40.5557 57.7249 36.2795 42.793 36.2795Z" fill="#767676"/>
<path d="M26.7047 55.1185C27.4934 55.1185 27.4934 53.8703 26.7047 53.8703C25.9161 53.8703 25.9161 55.1185 26.7047 55.1185Z" fill="#767676"/>
<path d="M57.8981 55.1185C58.6867 55.1185 58.6867 53.8703 57.8981 53.8703C57.1095 53.8703 57.1095 55.1185 57.8981 55.1185Z" fill="#767676"/>
<path d="M14.979 46.7849C15.1979 47.1576 15.0802 47.6386 14.7153 47.8623C14.3552 48.0835 13.8796 47.9657 13.6607 47.5929C13.4441 47.225 13.5642 46.7368 13.9244 46.5155C14.2892 46.2919 14.7624 46.4169 14.979 46.7849Z" fill="white"/>
<path d="M18.912 45.2143L19.1898 45.818C19.3969 46.2677 19.2109 46.8065 18.7707 47.0206L17.8197 47.4775C17.7491 47.5112 17.669 47.4824 17.6361 47.4102L16.1035 44.0862C16.0706 44.0141 16.0988 43.9323 16.1695 43.8986L17.0405 43.4801C17.4807 43.2685 18.0056 43.4657 18.2128 43.9155L18.3658 44.2474C18.4435 44.4157 18.4694 44.5913 18.4388 44.7621C18.6436 44.8415 18.8131 44.9978 18.912 45.2143ZM17.2665 45.0122L17.6619 44.8222C17.7679 44.7717 17.815 44.637 17.7655 44.5288L17.6031 44.1752C17.5513 44.0622 17.4195 44.0141 17.3135 44.0646L16.9181 44.2546L17.2665 45.0122ZM18.2975 45.4716C18.2458 45.3586 18.1139 45.3105 18.008 45.361L17.5325 45.5895L18.0221 46.6526L18.4977 46.4241C18.6036 46.3736 18.6507 46.2389 18.5965 46.121L18.2975 45.4716Z" fill="white"/>
<path d="M19.4886 43.0858L19.7993 43.8675L20.2513 43.6799C20.3243 43.651 20.402 43.6847 20.4326 43.7568L20.5621 44.0815C20.5903 44.1561 20.5574 44.2354 20.4867 44.2667L20.0348 44.4543L20.4726 45.5606L21.1859 45.2648C21.2565 45.2359 21.3366 45.2696 21.3648 45.3418L21.499 45.676C21.5272 45.7506 21.4943 45.83 21.4237 45.8612L20.2184 46.3591C20.1454 46.3879 20.0677 46.3543 20.0371 46.2821L18.6859 42.8766C18.6576 42.8044 18.6906 42.7226 18.7612 42.6914L19.9665 42.1935C20.0371 42.1647 20.1172 42.1983 20.1454 42.2705L20.2772 42.6048C20.3055 42.6769 20.2725 42.7587 20.2019 42.79L19.4886 43.0858Z" fill="white"/>
<path d="M22.3494 42.3738L22.3117 42.2607C22.2717 42.1429 22.1469 42.0851 22.0316 42.126L21.7915 42.2126C21.6761 42.2535 21.6125 42.3786 21.6526 42.4964L21.7632 42.8211C21.8032 42.939 21.928 42.9967 22.0457 42.9606L22.2858 42.874C22.7519 42.7081 23.251 42.9558 23.4134 43.432L23.637 44.0886C23.7971 44.5576 23.5523 45.0771 23.0933 45.2406L22.8531 45.3272C22.3941 45.4908 21.8856 45.2406 21.7255 44.7692L21.5772 44.3315C21.5513 44.2569 21.589 44.1776 21.662 44.1511L22.0269 44.0213C22.0998 43.9948 22.1775 44.0333 22.2034 44.1078L22.3611 44.572C22.4012 44.6899 22.5283 44.7524 22.6436 44.7115L22.8838 44.6249C22.9991 44.584 23.0603 44.4542 23.0203 44.3363L22.7825 43.6412C22.7425 43.5234 22.6177 43.4657 22.5024 43.5066L22.2623 43.5931C21.8009 43.7519 21.2971 43.5114 21.137 43.0424L21.0334 42.7369C20.8733 42.2679 21.1182 41.7484 21.5772 41.5849L21.8173 41.4983C22.2835 41.3323 22.7849 41.5849 22.9449 42.0563L22.9755 42.1477C23.0014 42.2222 22.9638 42.3016 22.8908 42.3281L22.5259 42.4579C22.4529 42.4868 22.3753 42.4483 22.3494 42.3738Z" fill="white"/>
<path d="M25.0894 40.6038L25.1929 40.9621C25.2141 41.0391 25.1694 41.116 25.0988 41.1377L24.6421 41.2748L25.5201 44.305C25.5413 44.382 25.5013 44.459 25.426 44.4806L25.054 44.5936C24.9858 44.6153 24.9034 44.5744 24.8822 44.4974L24.0041 41.4672L23.5545 41.6043C23.4792 41.6259 23.4038 41.585 23.3827 41.5081L23.2791 41.1497C23.2579 41.0728 23.2979 40.9958 23.3732 40.9742L24.9175 40.5076C24.9881 40.4883 25.0682 40.5268 25.0894 40.6038Z" fill="white"/>
<path d="M29.4741 42.773L29.6907 42.7249C29.7543 42.7105 29.8343 42.7562 29.8508 42.8332L29.9285 43.1916C29.9449 43.2685 29.8931 43.3431 29.8178 43.3623L28.7491 43.6053C28.3277 43.7015 27.911 43.4297 27.8192 43.0039L27.3178 40.6925C27.2236 40.262 27.4896 39.8363 27.911 39.7425L28.3653 39.6391C28.7867 39.5428 29.2034 39.8146 29.2952 40.2452L29.7072 42.1501C29.759 42.3906 29.6601 42.6335 29.4741 42.773ZM28.6455 40.3895C28.629 40.3125 28.549 40.2596 28.4736 40.2788L28.0734 40.3702C27.9981 40.3871 27.9463 40.4688 27.9651 40.5458L28.4666 42.8596C28.483 42.9318 28.5607 42.9823 28.6361 42.9655L29.1752 42.8428L28.6455 40.3895Z" fill="white"/>
<path d="M31.3889 39.045L31.7703 38.9777C31.8456 38.9633 31.9186 39.021 31.9303 39.0979L32.4506 42.1381C32.5165 42.5278 32.2552 42.9078 31.8738 42.9752L31.2735 43.081C30.8922 43.1483 30.5202 42.8813 30.4543 42.4917L29.934 39.4515C29.9199 39.3745 29.9694 39.2952 30.0447 39.2831L30.4261 39.2158C30.5014 39.2014 30.5744 39.2591 30.5861 39.3361L31.0946 42.3089C31.1087 42.3859 31.1841 42.4364 31.2594 42.4219L31.662 42.3498C31.7373 42.3354 31.7938 42.2632 31.7797 42.1862L31.2712 39.2134C31.2641 39.1364 31.3135 39.0571 31.3889 39.045Z" fill="white"/>
<path d="M35.0579 41.8593L35.1214 42.3524C35.1308 42.4318 35.079 42.5015 35.0014 42.5111L34.6106 42.564C34.54 42.5737 34.4717 42.5208 34.4599 42.4414L34.394 41.9315L33.6595 42.0301L33.7255 42.54C33.7349 42.6194 33.6831 42.6891 33.6054 42.6987L33.2217 42.7516C33.144 42.7613 33.0757 42.7084 33.0663 42.629L33.0028 42.1359C33.0004 42.1143 32.998 42.0975 32.998 42.0614L33.071 38.9035C33.0734 38.8289 33.1275 38.7712 33.1982 38.7616L34.0221 38.6509C34.0927 38.6413 34.1563 38.6966 34.1751 38.7568L35.0414 41.7896C35.0508 41.8209 35.0532 41.8377 35.0579 41.8593ZM34.2363 41.3086L33.6901 39.3677L33.6548 41.3855L34.2363 41.3086Z" fill="white"/>
<path d="M35.9512 38.5736L36.2478 41.7315L37.0199 41.6545C37.0976 41.6473 37.1635 41.7027 37.1706 41.782L37.2036 42.1428C37.2106 42.2222 37.1565 42.2895 37.0788 42.2967L35.784 42.4242C35.7064 42.4314 35.6404 42.3761 35.6334 42.2967L35.2897 38.6385C35.2826 38.5592 35.3368 38.4918 35.4145 38.4846L35.8005 38.4461C35.8782 38.4389 35.9441 38.4942 35.9512 38.5736Z" fill="white"/>
<path d="M38.2436 42.2101L37.8575 42.2389C37.7798 42.2438 37.7163 42.186 37.7092 42.1067L37.4573 38.4461C37.4526 38.3668 37.5091 38.2946 37.5844 38.2898L37.9705 38.2609C38.0482 38.2561 38.1141 38.3187 38.1188 38.398L38.3707 42.0586C38.3778 42.1379 38.3213 42.2053 38.2436 42.2101Z" fill="white"/>
<path d="M40.604 38.2676L40.6205 38.6405C40.6229 38.7198 40.5593 38.7848 40.4887 38.7872L40.0132 38.8088L40.1473 41.9668C40.1497 42.0462 40.0932 42.1111 40.0155 42.1135L39.6294 42.1304C39.5565 42.1328 39.4882 42.0751 39.4859 41.9957L39.3517 38.8377L38.8808 38.8593C38.8032 38.8617 38.7396 38.804 38.7373 38.7246L38.7208 38.3518C38.7184 38.2725 38.7749 38.2075 38.8526 38.2051L40.4628 38.133C40.5311 38.1281 40.5993 38.1883 40.604 38.2676Z" fill="white"/>
<path d="M42.7126 38.0977L43.101 38.0929C43.1787 38.0929 43.2399 38.153 43.2399 38.2324L43.2447 38.7927C43.2447 38.8553 43.2352 38.9178 43.207 38.9731L42.5172 40.4545L42.5314 41.9119C42.5314 41.9913 42.4725 42.0538 42.3948 42.0538L42.0064 42.0586C41.9287 42.0586 41.8675 41.9985 41.8675 41.9191L41.8534 40.4618L41.1307 38.9923C41.1071 38.937 41.0907 38.8745 41.0907 38.812L41.0859 38.2516C41.0859 38.1723 41.1448 38.1097 41.2225 38.1097L41.6109 38.1049C41.6886 38.1049 41.7498 38.165 41.7498 38.2444L41.7545 38.6749C41.7545 38.7206 41.7663 38.7663 41.7898 38.8048L42.1782 39.6032L42.5525 38.7975C42.569 38.7591 42.5784 38.7134 42.5784 38.6677L42.5737 38.2372C42.5761 38.1626 42.6349 38.1001 42.7126 38.0977Z" fill="white"/>
<path d="M46.7589 40.1925C46.74 40.6279 46.3799 40.9622 45.9538 40.9406C45.5324 40.9213 45.2005 40.5533 45.2217 40.1179C45.2405 39.6873 45.6054 39.3481 46.0268 39.3698C46.4529 39.3914 46.7777 39.7643 46.7589 40.1925Z" fill="white"/>
<path d="M50.8783 40.9717L50.81 41.6355C50.7606 42.1309 50.3274 42.4941 49.8425 42.4411L48.7973 42.3305C48.7196 42.3233 48.6655 42.2536 48.6749 42.1742L49.0492 38.5209C49.0562 38.4416 49.1245 38.3862 49.2022 38.3959L50.1603 38.4969C50.6453 38.5474 50.9936 38.9947 50.9442 39.4902L50.9066 39.8557C50.8877 40.0409 50.8218 40.2045 50.7064 40.3343C50.8383 40.5147 50.9042 40.736 50.8783 40.9717ZM50.2215 40.8682C50.2333 40.7456 50.1462 40.6326 50.0308 40.6205L49.5082 40.5652L49.3882 41.7341L49.9108 41.7894C50.0261 41.8014 50.1368 41.71 50.1485 41.5825L50.2215 40.8682ZM49.5718 39.9303L50.0073 39.976C50.1226 39.988 50.2333 39.8966 50.2451 39.7788L50.2851 39.3916C50.2968 39.2689 50.2097 39.1559 50.0944 39.1438L49.6589 39.0981L49.5718 39.9303Z" fill="white"/>
<path d="M52.4079 39.4299L52.2902 40.2646L52.7728 40.3343C52.8505 40.3463 52.9023 40.4161 52.8905 40.4931L52.8411 40.8394C52.8293 40.9188 52.761 40.9717 52.6857 40.9597L52.2031 40.8899L52.0383 42.0709L52.7987 42.1815C52.8764 42.1936 52.9282 42.2633 52.9164 42.3403L52.867 42.6987C52.8552 42.7781 52.7869 42.831 52.7092 42.8189L51.4216 42.6313C51.3439 42.6193 51.2945 42.5496 51.3039 42.4726L51.8124 38.8358C51.8241 38.7565 51.8924 38.706 51.9701 38.7156L53.2577 38.9032C53.3354 38.9152 53.3849 38.985 53.3754 39.0619L53.326 39.4203C53.3142 39.4997 53.246 39.5502 53.1683 39.5406L52.4079 39.4299Z" fill="white"/>
<path d="M55.2178 40.2621L55.2389 40.1442C55.2601 40.0216 55.1801 39.9085 55.06 39.8869L54.8105 39.8412C54.6904 39.8196 54.5751 39.8941 54.5539 40.0168L54.4927 40.3559C54.4715 40.4785 54.5516 40.5916 54.6716 40.618L54.9211 40.6637C55.4061 40.7551 55.7215 41.2217 55.6321 41.7147L55.5097 42.3978C55.4226 42.8884 54.9588 43.2155 54.4809 43.1265L54.2314 43.0808C53.7535 42.9918 53.431 42.518 53.5181 42.0298L53.6005 41.5728C53.6146 41.4959 53.6853 41.4454 53.7606 41.4598L54.1419 41.5319C54.2173 41.5464 54.2667 41.6185 54.2526 41.6955L54.1655 42.1789C54.1443 42.3016 54.2243 42.4194 54.3444 42.4411L54.5939 42.4867C54.714 42.5084 54.8293 42.4266 54.8505 42.304L54.98 41.58C55.0012 41.4574 54.9211 41.3444 54.8011 41.3227L54.5516 41.277C54.0737 41.1832 53.7512 40.719 53.8383 40.2308L53.8948 39.9134C53.9819 39.4251 54.4456 39.0956 54.9235 39.1846L55.173 39.2303C55.658 39.3193 55.9734 39.7931 55.884 40.2813L55.8675 40.3751C55.8533 40.4521 55.7827 40.5026 55.7074 40.4882L55.326 40.416C55.2531 40.4136 55.2036 40.3415 55.2178 40.2621Z" fill="white"/>
<path d="M58.4362 40.0817L58.3562 40.4449C58.3397 40.5218 58.2621 40.5675 58.1914 40.5507L57.7277 40.4449L57.0497 43.5282C57.0332 43.6052 56.9603 43.6533 56.8849 43.634L56.5059 43.5474C56.4353 43.5306 56.3835 43.456 56.4023 43.3791L57.0803 40.2958L56.6213 40.1899C56.5459 40.1731 56.4989 40.0985 56.5177 40.0216L56.5977 39.6584C56.6142 39.5814 56.6872 39.5333 56.7625 39.5526L58.3327 39.9133C58.4009 39.9302 58.4527 40.0047 58.4362 40.0817Z" fill="white"/>
<path d="M62.1975 41.9457L62.0963 42.292C61.9574 42.7683 61.4607 43.0425 60.9993 42.9006L60.592 42.7755L60.1306 44.3509C60.1094 44.4279 60.0317 44.4688 59.9588 44.4471L59.5868 44.3341C59.5115 44.3124 59.4715 44.2331 59.495 44.1585L60.5237 40.6372C60.5449 40.5627 60.6226 40.5194 60.6956 40.541L61.6066 40.82C62.068 40.9619 62.3364 41.4695 62.1975 41.9457ZM61.569 41.7244C61.6043 41.6041 61.5431 41.4815 61.4254 41.4454L61.0181 41.3203L60.7851 42.1213L61.1923 42.2463C61.31 42.2824 61.4277 42.2127 61.4607 42.0972L61.569 41.7244Z" fill="white"/>
<path d="M63.7699 43.7736L63.93 44.839C63.937 44.9016 63.9253 44.9689 63.9064 45.029L63.7228 45.563C63.6969 45.6375 63.624 45.6784 63.551 45.652L63.1861 45.5197C63.1131 45.4932 63.0707 45.4114 63.0966 45.3369L63.2261 44.9641C63.2473 44.9064 63.2567 44.8439 63.252 44.7693L63.059 43.5115L62.5011 45.1276C62.4752 45.2022 62.3975 45.2407 62.3245 45.2142L61.9596 45.0819C61.8914 45.0579 61.849 44.9761 61.8749 44.9016L63.0731 41.4359C63.099 41.3613 63.1814 41.3253 63.2497 41.3493L64.1536 41.674C64.6127 41.8399 64.8504 42.357 64.688 42.826L64.5726 43.1627C64.4432 43.5235 64.1183 43.7544 63.7699 43.7736ZM63.937 42.2873L63.5298 42.1406L63.2544 42.9342L63.6616 43.081C63.7723 43.1194 63.8994 43.0593 63.9418 42.9367L64.0689 42.5687C64.1112 42.4508 64.0477 42.3258 63.937 42.2873Z" fill="white"/>
<path d="M64.6608 46.1042L64.3006 45.9575C64.2276 45.9287 64.1947 45.8469 64.2229 45.7747L65.5553 42.3666C65.5836 42.2921 65.666 42.2536 65.7366 42.2824L66.0968 42.4291C66.1698 42.458 66.2004 42.5446 66.1721 42.6192L64.8397 46.0273C64.8115 46.0994 64.7338 46.1355 64.6608 46.1042Z" fill="white"/>
<path d="M67.4207 45.3274L67.7738 45.4909C67.8444 45.5246 67.8727 45.6112 67.8397 45.6833L67.4536 46.5588C67.2936 46.9196 66.8745 47.0855 66.5167 46.922L65.9612 46.667C65.608 46.5035 65.448 46.0706 65.6057 45.7098L66.6156 43.4225C66.778 43.0569 67.1947 42.8958 67.5525 43.0593L68.1081 43.3143C68.4659 43.4802 68.6236 43.9059 68.4635 44.2715L68.214 44.8391C68.1834 44.9113 68.0987 44.9474 68.028 44.9161L67.6749 44.7525C67.6043 44.7189 67.5761 44.6323 67.609 44.5601L67.835 44.0503C67.8656 43.9781 67.8303 43.8939 67.7667 43.8627L67.3877 43.6895C67.3171 43.6558 67.2324 43.6847 67.1994 43.7568L66.246 45.9214C66.2154 45.9936 66.2507 46.0778 66.3213 46.1114L66.7003 46.2846C66.7662 46.3159 66.851 46.287 66.884 46.2149L67.2418 45.4067C67.2677 45.3322 67.3501 45.2961 67.4207 45.3274Z" fill="white"/>
<path d="M69.7563 44.8511L69.3749 45.5992L69.8057 45.83C69.874 45.8661 69.8999 45.9503 69.8646 46.0201L69.7045 46.3303C69.6692 46.4001 69.5868 46.4265 69.5185 46.3904L69.0877 46.1595L68.5463 47.2178L69.229 47.581C69.2973 47.6171 69.3232 47.7013 69.2878 47.771L69.1231 48.0909C69.0877 48.1606 69.0053 48.1871 68.9371 48.151L67.7836 47.5353C67.7153 47.4992 67.6894 47.415 67.7247 47.3453L69.3914 44.0863C69.4267 44.0166 69.5091 43.9901 69.5774 44.0262L70.7309 44.6419C70.7991 44.678 70.825 44.7622 70.7897 44.8319L70.6249 45.1518C70.5896 45.2215 70.5072 45.248 70.439 45.2119L69.7563 44.8511Z" fill="white"/>
<path d="M71.8079 47.5762C71.589 47.949 71.1182 48.0717 70.7533 47.848C70.3931 47.6267 70.2684 47.1432 70.4873 46.7704C70.7039 46.4023 71.1817 46.2797 71.5419 46.4986C71.9091 46.7223 72.0245 47.2082 71.8079 47.5762Z" fill="white"/>
<path d="M44.4436 8.38248C44.4436 10.5855 42.6945 12.3725 40.5382 12.3725C38.3819 12.3725 36.6328 10.5855 36.6328 8.38248C36.6328 6.17943 40.5382 0.197998 40.5382 0.197998C40.5382 0.197998 44.4436 6.17943 44.4436 8.38248Z" fill="#767676"/>
<path d="M32.3093 13.8397C30.8026 13.8397 29.5762 12.5866 29.5762 11.0474C29.5762 9.64039 31.756 6.26121 32.0056 5.8812L32.3116 5.41461L32.6176 5.8812C32.8672 6.26121 35.047 9.64039 35.047 11.0474C35.0423 12.5866 33.8159 13.8397 32.3093 13.8397ZM32.3093 6.77591C31.5583 7.98568 30.3083 10.1791 30.3083 11.0474C30.3083 12.173 31.2052 13.0917 32.3093 13.0917C33.411 13.0917 34.3102 12.1754 34.3102 11.0474C34.3102 10.1791 33.0602 7.98327 32.3093 6.77591Z" fill="#767676"/>
<path d="M49.6432 13.3562C48.1366 13.3562 46.9102 12.1031 46.9102 10.5639C46.9102 9.15687 49.09 5.77769 49.3395 5.39768L49.6456 4.93109L49.9516 5.39768C50.2011 5.77769 52.381 9.15687 52.381 10.5639C52.3763 12.1031 51.1498 13.3562 49.6432 13.3562ZM49.6432 6.29239C48.8923 7.50216 47.6423 9.69562 47.6423 10.5639C47.6423 11.6919 48.5392 12.6082 49.6432 12.6082C50.7449 12.6082 51.6442 11.6919 51.6442 10.5639C51.6442 9.69562 50.3942 7.50216 49.6432 6.29239Z" fill="#767676"/>
</svg>
