<svg width="86" height="55" viewBox="0 0 86 55" fill="none" xmlns="http://www.w3.org/2000/svg">
<path d="M16.1657 18.5972C16.1766 19.0531 16.1244 19.5246 16.0068 20.0116C15.8893 20.4987 15.7238 20.9702 15.5127 21.4261C15.2428 22.0021 14.9162 22.5225 14.5331 22.9851C14.15 23.4477 13.7364 23.8458 13.2901 24.1838C12.8787 24.4841 12.4477 24.7131 11.9949 24.8688C11.5422 25.0245 11.1046 25.1024 10.6823 25.1024H10.6126C10.0837 25.0912 9.60695 24.9667 9.18465 24.7332C8.76234 24.4996 8.4097 24.1594 8.12671 23.7146C7.9395 24.0393 7.77406 24.3306 7.63257 24.5886C7.49108 24.8466 7.37353 25.049 7.27992 25.1913C6.40919 26.6436 5.58853 27.7311 4.8114 28.4517C4.36515 28.8476 3.9189 29.1456 3.47047 29.3435C3.02422 29.5415 2.56056 29.6415 2.07731 29.6415C1.3829 29.6415 0.860457 29.4547 0.507811 29.0833C0.17911 28.723 0.0136719 28.2604 0.0136719 27.6955C0.0136719 27.204 0.129044 26.6769 0.357611 26.1187C0.586178 25.5605 0.901817 25.029 1.30018 24.5241C1.73554 23.9726 2.20574 23.5455 2.71076 23.2453C3.21578 22.9451 3.71646 22.7938 4.20842 22.7938C4.61984 22.7938 4.95507 22.9139 5.21411 23.1541C5.43833 23.3699 5.54935 23.6656 5.54935 24.0371C5.54935 24.3484 5.47098 24.6798 5.31207 25.0267C5.15316 25.3759 4.93983 25.6984 4.66773 25.9986C4.38474 26.3122 4.07346 26.5568 3.73387 26.737C3.33334 26.9416 2.94586 27.0439 2.56927 27.0439C2.47566 27.0439 2.39947 27.015 2.3407 26.9527C2.28193 26.8927 2.25363 26.8148 2.25363 26.7192C2.25363 26.6236 2.28193 26.548 2.3407 26.4946C2.39947 26.4412 2.47566 26.4145 2.56927 26.4145C2.85226 26.4145 3.13524 26.3433 3.42476 26.1988C3.7121 26.0542 3.97985 25.8452 4.22583 25.5694C4.43699 25.3292 4.60678 25.0712 4.73739 24.7954C4.86582 24.5197 4.93113 24.2683 4.93113 24.0393C4.93113 23.9792 4.9246 23.9125 4.91371 23.8413C4.90283 23.7702 4.87018 23.7035 4.81576 23.6434C4.76351 23.5834 4.6895 23.5322 4.59589 23.49C4.50229 23.4477 4.37168 23.4277 4.20842 23.4277C3.80788 23.4277 3.39646 23.5567 2.97416 23.8146C2.55185 24.0726 2.15132 24.4418 1.77473 24.9222C1.42208 25.367 1.14345 25.8341 0.936647 26.3278C0.729848 26.8193 0.627537 27.2774 0.627537 27.6978C0.627537 28.107 0.734202 28.4183 0.945354 28.6341C1.16739 28.8854 1.54398 29.0121 2.07295 29.0121C2.86096 29.0121 3.62938 28.663 4.38257 27.9669C5.12269 27.2952 5.9107 26.261 6.74443 24.8688C6.83803 24.7131 6.96428 24.4997 7.12319 24.2283C7.2821 23.9592 7.45843 23.6501 7.65216 23.3009C7.8459 22.9517 8.04617 22.5781 8.25079 22.1756C8.45541 21.773 8.6535 21.3616 8.84071 20.9412C9.1237 20.3296 9.34356 19.7981 9.50247 19.3466C9.66138 18.8974 9.77239 18.5082 9.8377 18.1857C9.903 17.861 9.9313 17.5986 9.92477 17.394C9.91824 17.1894 9.89865 17.027 9.86382 16.9069C9.79416 16.6912 9.66355 16.5466 9.47634 16.4755C9.20642 16.3665 8.93867 16.3287 8.67527 16.3576C8.4097 16.3887 8.15719 16.4599 7.91774 16.5733C7.67611 16.6867 7.45407 16.8402 7.24727 17.0337C7.04047 17.2249 6.86197 17.4296 6.7096 17.6453C6.46361 18.03 6.30906 18.4014 6.25029 18.7617C6.22634 18.8818 6.22416 19.013 6.24158 19.1576C6.25899 19.3022 6.31994 19.4401 6.42661 19.5713C6.66171 19.8604 6.94905 19.8826 7.29081 19.6424C7.53679 19.4867 7.72617 19.2643 7.85461 18.9752C7.98304 18.7239 8.00699 18.5126 7.92427 18.3458C7.84155 18.1546 7.89379 18.0167 8.08317 17.9322C8.15283 17.8966 8.22902 17.8899 8.31174 17.9144C8.39446 17.9389 8.45323 17.9922 8.48806 18.0767C8.57078 18.2458 8.60344 18.4281 8.58602 18.6261C8.56861 18.824 8.51636 19.0197 8.42711 19.211C8.34004 19.4022 8.22684 19.5868 8.09188 19.7603C7.95692 19.9338 7.80672 20.0761 7.64128 20.1829C7.38224 20.3519 7.10143 20.4342 6.79449 20.4342C6.48974 20.4231 6.20675 20.2718 5.94771 19.9849C5.66472 19.6358 5.56023 19.1976 5.62989 18.6705C5.69955 18.2013 5.88893 17.7409 6.19369 17.2828C6.38089 17.0181 6.60511 16.769 6.86415 16.5355C7.12319 16.302 7.404 16.1152 7.71094 15.9773C8.01569 15.8394 8.33786 15.7549 8.67092 15.726C9.00615 15.6971 9.34356 15.746 9.68532 15.8794C10.038 16.024 10.2905 16.2931 10.4429 16.689C10.5016 16.8936 10.5343 17.1249 10.5408 17.3828C10.5473 17.6408 10.5147 17.9322 10.4429 18.2569C10.7607 17.9077 11.0785 17.6075 11.3941 17.3562C11.8295 16.9848 12.2649 16.689 12.698 16.4732C13.1334 16.2575 13.5383 16.1196 13.9149 16.0596C14.5854 15.9639 15.1078 16.1196 15.4844 16.5288C15.9415 16.9825 16.1657 17.672 16.1657 18.5972ZM14.9489 21.1548C15.3712 20.303 15.5715 19.4556 15.5475 18.6149C15.5475 18.2435 15.5062 17.9166 15.4234 17.6342C15.3407 17.3517 15.2166 17.1338 15.0534 16.9759C14.8292 16.7112 14.4831 16.6156 14.0129 16.6867C13.695 16.7357 13.3424 16.858 12.9549 17.0559C12.5674 17.2539 12.18 17.5163 11.7903 17.8388C11.3898 18.1635 11.0284 18.5193 10.7063 18.9107C10.3819 19.3022 10.1098 19.7003 9.88559 20.1095C9.88559 20.1206 9.88341 20.1273 9.87688 20.1273C9.87035 20.1273 9.86817 20.1339 9.86817 20.1451C9.79851 20.3141 9.72668 20.4853 9.65702 20.6588C9.58736 20.8323 9.50464 21.0169 9.41104 21.2081C9.10629 21.8687 8.795 22.4869 8.47718 23.0629C8.68833 23.5189 8.98003 23.8636 9.35009 24.0993C9.72015 24.3328 10.1468 24.4574 10.6279 24.4685C11.0045 24.4796 11.3898 24.4174 11.7838 24.2795C12.1778 24.1416 12.5631 23.9348 12.9397 23.659C13.3511 23.3587 13.7277 22.9984 14.0673 22.5781C14.4069 22.1578 14.7007 21.6841 14.9489 21.1548Z" fill="#767676"/>
<path d="M19.8677 26.1611C19.9265 26.2211 19.9591 26.2923 19.9656 26.3768C19.9722 26.4613 19.9439 26.5325 19.8873 26.5925C19.8764 26.617 19.7458 26.7616 19.4998 27.024C19.2538 27.2887 18.9229 27.5822 18.5115 27.9069C17.3709 28.7832 16.3369 29.2213 15.4095 29.2213C14.9154 29.2213 14.5432 29.1324 14.2906 28.9522C14.0381 28.7721 13.8531 28.5853 13.7356 28.394C13.5113 27.9981 13.4482 27.5022 13.5418 26.9084C13.6354 26.3145 13.8879 25.6562 14.2994 24.9356C14.874 23.8903 15.501 23.0385 16.178 22.378C16.8528 21.7175 17.4906 21.3327 18.0914 21.2259C18.5507 21.1548 18.9316 21.2437 19.2364 21.4973C19.4715 21.7019 19.5999 21.9777 19.6239 22.3268C19.6348 22.6871 19.5237 23.0875 19.2886 23.5256C19.0535 23.9637 18.7118 24.4108 18.2655 24.8667C17.7714 25.3827 17.249 25.7608 16.696 26.0009C16.2367 26.2056 15.797 26.3079 15.3747 26.3079C15.1636 26.3079 14.9742 26.2901 14.8109 26.2545C14.6455 26.2189 14.5105 26.1766 14.406 26.1277C14.3472 26.2834 14.2972 26.4302 14.2558 26.5681C14.2145 26.706 14.1818 26.8416 14.1579 26.9728C14.0882 27.4532 14.1274 27.8202 14.2819 28.0715C14.4691 28.4207 14.8457 28.5942 15.4095 28.5942C15.8906 28.5942 16.3695 28.4719 16.8462 28.225C17.323 27.9781 17.7518 27.7068 18.1327 27.4065C18.5137 27.1063 18.825 26.8305 19.0666 26.577C19.3082 26.3257 19.428 26.1922 19.428 26.1811C19.4867 26.121 19.5564 26.0877 19.6391 26.081C19.7218 26.0743 19.798 26.101 19.8677 26.1611ZM14.8261 25.2426C14.8022 25.3026 14.7739 25.356 14.7391 25.4049C14.7042 25.4538 14.6738 25.5072 14.6498 25.5673C14.7434 25.5917 14.8523 25.6162 14.9763 25.6384C15.1004 25.6629 15.2441 25.674 15.4074 25.674C16.2193 25.6629 17.0291 25.247 17.8411 24.4308C18.2176 24.046 18.5072 23.6724 18.714 23.3054C18.9186 22.9384 19.0165 22.6249 19.0057 22.3602C18.9817 22.2045 18.9295 22.0777 18.8467 21.9821C18.6813 21.8375 18.4636 21.7953 18.1937 21.8553C17.9586 21.8909 17.7061 21.9977 17.4362 22.1712C17.1662 22.3446 16.8898 22.5715 16.6068 22.8473C15.9712 23.4722 15.3791 24.2707 14.8261 25.2426Z" fill="#767676"/>
<path d="M24.1337 21.5862C24.3339 21.6107 24.4341 21.7241 24.4341 21.9287C24.4232 22.0243 24.384 22.0999 24.3187 22.1533C24.2534 22.2067 24.1816 22.2289 24.0988 22.2156C23.8398 22.1911 23.535 22.18 23.1824 22.18C22.8297 22.18 22.4771 22.1867 22.1245 22.1978C21.8654 22.6293 21.6151 23.0652 21.3756 23.5033C21.134 23.9414 20.9272 24.3418 20.7509 24.7021C20.4091 25.3737 20.161 25.9364 20.0021 26.3857C19.8431 26.8349 19.7343 27.1997 19.6755 27.4754C19.6168 27.7512 19.5993 27.9625 19.6233 28.1049C19.6472 28.2494 19.6755 28.345 19.7125 28.394C19.7234 28.4184 19.7539 28.4518 19.7996 28.4941C19.8475 28.5363 19.9455 28.5563 20.1 28.5563C20.3003 28.5563 20.5441 28.4874 20.8314 28.3495C21.1188 28.2116 21.4344 28.0159 21.774 27.7646C22.057 27.5488 22.34 27.3042 22.6295 27.0351C22.9168 26.7638 23.1672 26.4969 23.3783 26.2344C23.4371 26.1744 23.5067 26.1388 23.5895 26.1255C23.6722 26.1143 23.7484 26.1366 23.818 26.1966C23.8768 26.2567 23.9116 26.3278 23.9247 26.4123C23.9356 26.4969 23.9138 26.5747 23.855 26.6459C23.6199 26.9217 23.3522 27.2019 23.054 27.4843C22.7536 27.7668 22.4466 28.027 22.1288 28.2672C21.3299 28.8788 20.6529 29.1857 20.1022 29.1857C19.8323 29.1857 19.6255 29.1346 19.4861 29.0323C19.3447 28.93 19.2445 28.8254 19.1857 28.7165C18.9615 28.3562 18.9572 27.7801 19.1683 26.9862C19.3447 26.3145 19.6908 25.456 20.2088 24.4107C20.3743 24.086 20.555 23.7346 20.7552 23.3565C20.9555 22.9784 21.1732 22.5915 21.4083 22.1956C21.2428 22.2067 21.0926 22.2156 20.9577 22.2223C20.8227 22.2289 20.7073 22.2312 20.6137 22.2312C20.4962 22.2423 20.3895 22.2489 20.2959 22.2489H20.2785C20.0913 22.2489 19.9846 22.1466 19.9607 21.942C19.9607 21.8464 19.9868 21.7686 20.0391 21.7085C20.0913 21.6485 20.1653 21.6173 20.2589 21.6173C20.2829 21.6173 20.4374 21.6107 20.7269 21.5995C21.0143 21.5884 21.3647 21.5751 21.7762 21.5639C21.9873 21.2036 22.1898 20.8611 22.3835 20.5364C22.5772 20.2117 22.747 19.9248 22.8951 19.6713C23.0409 19.42 23.2085 19.1442 23.3979 18.8417C23.4458 18.7705 23.5089 18.7216 23.5916 18.6971C23.6744 18.6727 23.7505 18.686 23.8202 18.7327C23.9965 18.8528 24.0314 19.0041 23.9269 19.1842C23.7614 19.4355 23.6156 19.6713 23.4871 19.887C23.3587 20.1027 23.2085 20.3518 23.0365 20.6343C22.8668 20.9167 22.6861 21.2192 22.4989 21.5439C22.8036 21.5439 23.1018 21.5439 23.3892 21.5439C23.6722 21.5506 23.9225 21.5617 24.1337 21.5862Z" fill="#767676"/>
<path d="M29.4917 26.1989C29.5505 26.2589 29.5853 26.3301 29.5984 26.4146C29.6092 26.4991 29.5875 26.577 29.5287 26.6481C29.5048 26.6726 29.4765 26.7015 29.4416 26.7371C29.4068 26.7727 29.3763 26.8082 29.3546 26.8461C28.8147 27.5177 28.3206 28.0781 27.8743 28.5207C27.4281 28.9655 27.0166 29.1879 26.6401 29.1879C26.3114 29.1879 26.0697 29.0567 25.9173 28.792C25.765 28.5029 25.765 28.0848 25.9173 27.531C26.0697 26.9906 26.3984 26.27 26.9056 25.3693C26.9992 25.2003 27.0058 24.929 26.923 24.5509C26.8403 24.1728 26.6771 23.7258 26.4289 23.2099C26.1111 23.6658 25.7432 24.1773 25.3274 24.74C24.9095 25.3048 24.4262 25.9342 23.8733 26.6303C23.8145 26.7015 23.7449 26.7438 23.6621 26.7571C23.5794 26.7682 23.5098 26.746 23.451 26.6859C23.3813 26.6259 23.34 26.5547 23.3269 26.4702C23.316 26.3857 23.3378 26.3079 23.3966 26.2367C24.5721 24.7355 25.4711 23.5234 26.0937 22.5983C25.987 22.3714 25.9587 22.0979 26.0066 21.7798C26.0523 21.4618 26.1067 21.2016 26.1655 20.997C26.1894 20.9369 26.2221 20.8435 26.2635 20.7168C26.3048 20.59 26.3614 20.4566 26.4311 20.312C26.5007 20.1674 26.5813 20.0229 26.6684 19.8805C26.7576 19.736 26.8599 19.6159 26.9775 19.5203C27.1059 19.4113 27.2409 19.3557 27.3824 19.349C27.5238 19.3424 27.6523 19.3935 27.7698 19.5025C28.0158 19.7182 28.0702 20.074 27.9287 20.5655C27.8003 20.9503 27.5587 21.4373 27.206 22.0245C27.1473 22.1201 27.0863 22.2202 27.021 22.3225C26.9557 22.4248 26.8882 22.5293 26.8186 22.6383C27.5826 24.0683 27.7872 25.0869 27.4346 25.7007C27.1298 26.2411 26.9034 26.6859 26.7554 27.0329C26.6074 27.382 26.5116 27.66 26.4637 27.8713C26.4158 28.0826 26.3984 28.2316 26.4115 28.3206C26.4224 28.4117 26.4354 28.4673 26.4463 28.4918C26.4572 28.5029 26.4746 28.5185 26.4986 28.5363C26.5225 28.5541 26.5682 28.563 26.6401 28.563C26.6988 28.563 26.8055 28.5229 26.9579 28.4451C27.1102 28.3673 27.3279 28.1849 27.6109 27.8958C27.8351 27.6912 28.0506 27.4599 28.264 27.2019C28.4751 26.9439 28.6819 26.6948 28.88 26.4546C28.904 26.4191 28.9323 26.3835 28.9671 26.3457C29.0019 26.3101 29.0324 26.2745 29.0542 26.2367C29.1129 26.1766 29.1826 26.1411 29.2653 26.1277C29.3458 26.1144 29.422 26.1388 29.4917 26.1989ZM26.6357 21.7665C26.6466 21.742 26.6553 21.7287 26.6618 21.722C26.6684 21.7153 26.6771 21.702 26.6879 21.6775C26.8751 21.3662 27.0166 21.1082 27.1102 20.9036C27.2039 20.699 27.2757 20.5322 27.3214 20.3987C27.3693 20.2675 27.3911 20.1719 27.3911 20.1096C27.3911 20.0496 27.3845 20.0073 27.3736 19.9829C27.3258 20.0184 27.2583 20.0963 27.1712 20.2164C27.0819 20.3365 26.9927 20.5166 26.8969 20.7568C26.8273 20.9369 26.7707 21.1149 26.7293 21.2883C26.6923 21.464 26.6596 21.6219 26.6357 21.7665Z" fill="#767676"/>
<path d="M34.2188 26.2878C34.0664 26.5636 33.8726 26.8705 33.6375 27.2063C33.4024 27.5422 33.1325 27.8646 32.8256 28.1693C32.5208 28.4762 32.1812 28.7298 31.8112 28.9344C31.4411 29.139 31.0449 29.2413 30.6205 29.2413C30.1982 29.2413 29.8716 29.1568 29.6409 28.99C29.4123 28.821 29.2447 28.6475 29.138 28.4673C28.879 28.0225 28.8137 27.4465 28.9443 26.7371C29.0727 26.0654 29.3492 25.3449 29.7737 24.5754C29.9391 24.2862 30.1611 23.946 30.4441 23.5479C30.7271 23.152 31.0558 22.7672 31.4324 22.3958C31.5739 22.2513 31.735 22.1045 31.9178 21.9555C32.1007 21.8065 32.2879 21.6708 32.4816 21.5507C32.6754 21.4306 32.8757 21.3328 33.0803 21.2527C33.2849 21.1749 33.4895 21.1348 33.6876 21.1348C33.7812 21.1348 33.8574 21.166 33.9162 21.226C33.975 21.2861 34.0032 21.3639 34.0032 21.4595C34.0032 21.5552 33.975 21.6308 33.9162 21.6842C33.8574 21.7375 33.7812 21.7642 33.6876 21.7642C33.4525 21.7642 33.1761 21.8576 32.8582 22.0444C32.5404 22.2313 32.2117 22.4981 31.87 22.8451C31.5173 23.1942 31.206 23.5545 30.9361 23.9259C30.6662 24.2973 30.455 24.6176 30.3005 24.88C29.913 25.5761 29.6648 26.23 29.5603 26.8438C29.4537 27.3842 29.495 27.8157 29.6844 28.1404C29.8368 28.454 30.1481 28.6097 30.6183 28.6097C30.8643 28.6097 31.0994 28.5585 31.3236 28.4562C31.5478 28.3539 31.7611 28.2249 31.9679 28.0692C32.1725 27.9136 32.3641 27.7401 32.5404 27.5466C32.7167 27.3553 32.8756 27.1685 33.0171 26.9884C33.1107 26.8683 33.1935 26.7504 33.2631 26.637C33.3328 26.5236 33.4046 26.4124 33.4743 26.3034C33.2283 26.2789 33.0302 26.2189 32.8844 26.1232C32.7363 26.0276 32.6231 25.932 32.5404 25.8341C32.2944 25.545 32.1704 25.1736 32.1704 24.7177C32.1704 24.4419 32.2117 24.1595 32.2944 23.8703C32.3772 23.5812 32.4991 23.3188 32.6645 23.0786C33.052 22.5026 33.4939 22.2135 33.9858 22.2135C34.3624 22.2135 34.6498 22.3758 34.85 22.7005C35.0372 23.0008 35.1178 23.3922 35.0873 23.8703C35.0568 24.3507 34.9023 24.8912 34.6193 25.4916C34.5257 25.6829 34.4495 25.8364 34.3907 25.952C34.3363 26.0699 34.2775 26.1811 34.2188 26.2878ZM33.9902 22.8473C33.8487 22.8473 33.7072 22.9007 33.5679 23.0097C33.4264 23.1186 33.298 23.261 33.1804 23.4411C33.0629 23.6213 32.9693 23.8214 32.8974 24.0438C32.8278 24.2662 32.7908 24.4908 32.7908 24.7199C32.7908 24.8155 32.8016 24.9312 32.8256 25.0624C32.8495 25.1936 32.9083 25.3137 33.0019 25.4227C33.1543 25.6028 33.4003 25.694 33.742 25.694H33.8313C33.8901 25.5739 33.9379 25.4805 33.9728 25.4138C34.0076 25.3471 34.0315 25.3093 34.0424 25.2959C34.2079 24.9245 34.3189 24.6065 34.3777 24.3418C34.4364 24.0772 34.4647 23.8548 34.4647 23.6746C34.4647 23.4945 34.4495 23.3544 34.4212 23.2521C34.3929 23.1498 34.3646 23.0808 34.3428 23.0452C34.2471 22.914 34.1317 22.8473 33.9902 22.8473Z" fill="#767676"/>
<path d="M36.1931 30.1599C35.8514 30.1599 35.5945 30.0887 35.4182 29.9442C35.2419 29.7996 35.1069 29.655 35.0133 29.5127C34.7434 29.0323 34.7259 28.3295 34.961 27.4043C35.0677 26.9729 35.231 26.5014 35.4552 25.9898C35.6794 25.4805 35.9493 24.949 36.2671 24.3952C36.4195 24.1306 36.6046 23.8103 36.8222 23.4322C37.0399 23.0541 37.2663 22.6605 37.5014 22.2513C37.7365 21.8443 37.9716 21.4373 38.2067 21.0347C38.4418 20.6322 38.6508 20.2696 38.8315 19.9449C39.0143 19.6202 39.1645 19.36 39.2821 19.1621C39.3996 18.9641 39.4584 18.8596 39.4584 18.8463C39.5651 18.6772 39.7044 18.6417 39.8807 18.7373C40.0461 18.8463 40.081 18.9886 39.9874 19.1687C39.9874 19.1799 39.9286 19.2866 39.811 19.4846C39.6935 19.6825 39.5433 19.9405 39.3604 20.2585C39.1776 20.5766 38.9686 20.9413 38.7357 21.3483C38.5006 21.7575 38.2655 22.1645 38.0304 22.5737C37.7953 22.983 37.5689 23.3744 37.3512 23.7547C37.1335 24.1328 36.9485 24.4553 36.7961 24.7177C36.4914 25.247 36.2323 25.7497 36.0212 26.23C35.81 26.7104 35.6511 27.1552 35.5444 27.5622C35.3572 28.3073 35.3616 28.8544 35.5618 29.2014C35.6794 29.4171 35.8906 29.5261 36.1975 29.5261C36.4195 29.5261 36.6285 29.4549 36.8222 29.3103C37.016 29.1658 37.1901 28.9923 37.3425 28.7877C37.4949 28.5831 37.6277 28.374 37.7387 28.1583C37.8497 27.9425 37.9411 27.7624 38.013 27.6178L38.0478 27.5822C38.1305 27.4021 38.2655 27.3532 38.4527 27.4377C38.5354 27.4733 38.5877 27.5333 38.6116 27.6178C38.6355 27.7024 38.629 27.7802 38.5942 27.8514L38.5768 27.9047C38.494 28.0738 38.383 28.2828 38.2415 28.5341C38.1 28.7855 37.9324 29.0323 37.7387 29.2725C37.5449 29.5127 37.3186 29.7195 37.0595 29.893C36.7983 30.0732 36.5109 30.1599 36.1931 30.1599Z" fill="#767676"/>
<path d="M46.5073 21.6421C46.085 22.3271 45.7105 23.0009 45.3884 23.6682C45.064 24.3354 44.8093 24.9737 44.6221 25.5875C44.4349 26.1991 44.3282 26.7396 44.3043 27.2088C44.2804 27.6781 44.3457 28.0495 44.498 28.3253C44.6853 28.6967 45.051 28.8836 45.5908 28.8836C46.3788 28.8836 47.3018 28.2341 48.3597 26.9375C48.8191 26.3615 49.2414 25.7677 49.6288 25.1538C50.0163 24.5422 50.345 24.0062 50.6171 23.5503C50.6868 23.4302 50.7521 23.319 50.8109 23.2167C50.8696 23.1144 50.9284 23.021 50.9872 22.9364C50.9872 22.9253 50.9894 22.9187 50.9959 22.9187C51.0024 22.9187 51.0046 22.912 51.0046 22.9009C51.2288 22.4916 51.4421 22.1002 51.6489 21.7199C51.8536 21.3418 52.0517 20.9971 52.2389 20.6835C52.2737 20.599 52.3325 20.5456 52.4152 20.5211C52.4979 20.4967 52.5806 20.51 52.6612 20.5567C52.7308 20.6056 52.7787 20.6701 52.8027 20.7546C52.8266 20.8392 52.8135 20.917 52.7678 20.9882C52.5088 21.433 52.2367 21.9245 51.9472 22.4649C51.6598 23.0054 51.366 23.5569 51.0655 24.1219C50.7651 24.6868 50.4691 25.2517 50.1752 25.8144C49.8814 26.3793 49.6071 26.9064 49.3546 27.4001C49.102 27.8916 48.8778 28.3342 48.6841 28.7234C48.4904 29.1148 48.3402 29.4106 48.2335 29.6153C48.3619 29.5441 48.4947 29.4685 48.6297 29.3906C48.7646 29.3128 48.904 29.2261 49.0433 29.1304C49.4895 28.8413 49.9837 28.4699 50.5235 28.0139C51.0634 27.558 51.6054 26.9642 52.1453 26.2303C52.204 26.1591 52.2737 26.1168 52.3564 26.1035C52.4391 26.0924 52.5153 26.1102 52.585 26.1569C52.6438 26.2169 52.6829 26.2881 52.7004 26.3726C52.7178 26.4571 52.6982 26.535 52.6394 26.6061C52.0625 27.3756 51.49 27.9961 50.9197 28.4699C50.3494 28.9436 49.8356 29.3372 49.3763 29.6508C49.0716 29.8554 48.7799 30.0312 48.5034 30.1824C48.227 30.3336 47.9657 30.456 47.7198 30.5516C47.3432 31.1632 46.9557 31.6614 46.5551 32.0461C45.9913 32.5866 45.4907 32.8624 45.0575 32.8757H45.0052C44.6635 32.8757 44.4175 32.7445 44.2651 32.4798C44.1476 32.2997 44.1236 32.084 44.1955 31.8304C44.2651 31.5902 44.4153 31.3611 44.6461 31.1454C44.8746 30.9297 45.1533 30.7606 45.4841 30.6405C45.5538 30.6161 45.6365 30.5894 45.7301 30.5605C45.8237 30.5293 45.9239 30.4982 46.0305 30.4604C46.196 30.4115 46.3832 30.3559 46.5943 30.2892C46.8055 30.2224 47.0406 30.1424 47.2996 30.0467C47.3345 29.9867 47.3736 29.9199 47.415 29.8488C47.4564 29.7776 47.4934 29.7042 47.5304 29.6331C47.5543 29.6086 47.6545 29.4195 47.8308 29.0659C48.0071 28.7123 48.2313 28.2653 48.5012 27.7248C48.1007 28.1807 47.7023 28.5588 47.3018 28.8591C46.7032 29.2905 46.1328 29.5085 45.5908 29.5085C45.1076 29.5085 44.7418 29.4129 44.4893 29.2194C44.2368 29.0281 44.0583 28.8302 43.9517 28.6256C43.5642 27.905 43.5881 26.8307 44.0213 25.4007C44.2216 24.7646 44.4893 24.0952 44.8224 23.3924C45.1576 22.6896 45.5473 21.9912 45.9957 21.2929C46.2787 20.8481 46.6313 20.3743 47.0536 19.8695C46.96 19.7494 46.8773 19.6293 46.8077 19.5092C46.5029 18.9087 46.4311 18.177 46.5965 17.3118C46.6662 16.9271 46.7837 16.5379 46.9492 16.142C47.1146 15.7461 47.3127 15.3725 47.5478 15.0255C47.6762 14.8565 47.8242 14.8276 47.9875 14.9343C48.0572 14.9944 48.1029 15.0655 48.1203 15.1501C48.1377 15.2346 48.1181 15.3124 48.0593 15.3836C47.8482 15.6949 47.6653 16.0285 47.513 16.3844C47.3606 16.738 47.2539 17.0894 47.1951 17.4386C47.1364 17.7878 47.119 18.1103 47.1429 18.4105C47.1668 18.7107 47.243 18.9799 47.3715 19.2201C47.3823 19.2445 47.3976 19.2734 47.415 19.3112C47.4324 19.3468 47.4542 19.378 47.476 19.4024C48.0158 18.8153 48.5861 18.2682 49.1869 17.7633C49.3741 17.6076 49.6049 17.4297 49.8748 17.2318C50.1447 17.0338 50.4299 16.8448 50.7303 16.6646C51.0307 16.4845 51.3333 16.3355 51.6381 16.2154C51.9428 16.0953 52.2323 16.0285 52.5023 16.0174C52.7722 15.993 52.9833 16.0285 53.1379 16.1264C53.2903 16.222 53.4013 16.3177 53.4731 16.4155C53.6016 16.5846 53.6603 16.7936 53.6495 17.0449C53.6386 17.2963 53.5624 17.5787 53.4209 17.8923C53.2554 18.2281 53.0334 18.5617 52.7504 18.8931C52.4674 19.2245 52.1453 19.5203 51.7817 19.785C51.477 20.0007 51.0938 20.2142 50.6367 20.4233C50.1774 20.6345 49.6484 20.7391 49.0498 20.7391C48.5317 20.7391 48.068 20.6257 47.6566 20.3966C47.6327 20.3855 47.6087 20.3721 47.587 20.361C47.563 20.3499 47.5391 20.3321 47.5173 20.3076C47.1364 20.7413 46.8011 21.1839 46.5073 21.6421ZM46.1372 31.6013C46.3484 31.3856 46.5421 31.1632 46.7184 30.9341C46.6248 30.9586 46.5334 30.983 46.4441 31.0053C46.3549 31.0298 46.27 31.0542 46.1894 31.0765C46.0958 31.1009 46.0044 31.1254 45.9152 31.1476C45.8259 31.1721 45.7541 31.1966 45.6953 31.2188C45.4363 31.3278 45.2273 31.4568 45.0684 31.6058C44.9095 31.7548 44.8137 31.8905 44.7767 32.0106C44.7658 32.0817 44.7658 32.124 44.7767 32.1373C44.8006 32.1618 44.8289 32.1885 44.8637 32.2174C44.8986 32.2463 44.953 32.2552 45.0227 32.2441C45.3209 32.2263 45.6909 32.0106 46.1372 31.6013ZM49.5744 18.2726C48.9867 18.7419 48.4403 19.2623 47.9353 19.8406C48.2182 20.0207 48.5883 20.1097 49.0454 20.1097C49.4917 20.1097 49.9184 20.0296 50.3232 19.8673C50.7281 19.7049 51.0982 19.5003 51.4334 19.2556C51.7687 19.0088 52.056 18.7397 52.2976 18.4461C52.5393 18.1525 52.7243 17.8723 52.8527 17.6076C52.9594 17.403 53.0182 17.2318 53.0291 17.0939C53.0399 16.956 53.0291 16.8626 52.9942 16.8136C52.9703 16.7892 52.9289 16.7536 52.8701 16.7047C52.8114 16.6557 52.7004 16.6379 52.5349 16.6513C52.1931 16.6624 51.7643 16.8114 51.2484 17.0916C50.7325 17.3741 50.1752 17.7678 49.5744 18.2726Z" fill="#767676"/>
<path d="M59.7288 26.199C59.7876 26.259 59.8224 26.3302 59.8354 26.4147C59.8463 26.4992 59.8246 26.5771 59.7658 26.6482C59.7418 26.6727 59.7157 26.7016 59.6874 26.7372C59.6569 26.7728 59.6265 26.8084 59.5895 26.8462C59.0496 27.5178 58.5555 28.0783 58.1092 28.5209C57.663 28.9657 57.2515 29.1881 56.8749 29.1881C56.605 29.1881 56.4026 29.1369 56.2676 29.0346C56.1326 28.9323 56.0347 28.8278 55.9759 28.7188C55.8475 28.4786 55.7996 28.1851 55.8344 27.8359C55.0225 28.7967 54.241 29.2771 53.49 29.2771C53.0785 29.2771 52.7672 29.1925 52.5561 29.0257C52.3449 28.8567 52.1926 28.6899 52.0968 28.5209C51.8508 28.065 51.8094 27.4934 51.9727 26.8106C52.0424 26.4748 52.1555 26.13 52.3079 25.7742C52.4603 25.4206 52.6497 25.0625 52.8717 24.7022C53.5074 23.6925 54.2235 22.894 55.0224 22.3069C55.3751 22.0556 55.7169 21.8599 56.0456 21.722C56.3743 21.5841 56.6747 21.5151 56.9446 21.5151C57.2494 21.5151 57.4888 21.5685 57.6586 21.6775C57.8284 21.7865 57.9547 21.8999 58.0374 22.02C58.1658 22.189 58.2485 22.387 58.2834 22.6138C58.377 22.4693 58.4532 22.3425 58.5119 22.2357C58.5707 22.1267 58.6295 22.0311 58.6882 21.9466C58.7361 21.851 58.7884 21.7665 58.8472 21.6953C58.8951 21.6241 58.9582 21.5774 59.0409 21.5596C59.1236 21.5418 59.1998 21.5574 59.2695 21.6041C59.3391 21.653 59.387 21.7175 59.411 21.802C59.4349 21.8865 59.4175 21.9644 59.3587 22.0356C59.3587 22.0467 59.2063 22.2958 58.8994 22.7828C58.5946 23.2699 58.2115 23.9149 57.7544 24.72C57.4496 25.2604 57.2015 25.7386 57.0143 26.1523C56.8271 26.5659 56.6877 26.9262 56.6007 27.2332C56.5114 27.5401 56.4613 27.7892 56.4505 27.9804C56.4396 28.1717 56.4613 28.3118 56.5201 28.3941C56.531 28.4186 56.5571 28.4519 56.5985 28.4942C56.6398 28.5365 56.7313 28.5565 56.8728 28.5565C56.9315 28.5565 57.0382 28.5164 57.1906 28.4386C57.343 28.3608 57.5672 28.1784 57.8611 27.8893C58.0722 27.6846 58.2834 27.4533 58.4967 27.1953C58.7078 26.9374 58.9146 26.6883 59.1127 26.4481C59.1476 26.4125 59.1802 26.3769 59.2107 26.3391C59.239 26.3035 59.2673 26.2679 59.2891 26.2301C59.3478 26.1701 59.4175 26.1345 59.5002 26.1211C59.5829 26.1145 59.6591 26.1389 59.7288 26.199ZM55.4818 27.2977C55.7756 26.9374 56.0107 26.6104 56.1871 26.3168C56.3634 26.0233 56.457 25.8698 56.4701 25.8565C56.4701 25.8453 56.4722 25.8387 56.4788 25.8387C56.4853 25.8387 56.4875 25.832 56.4875 25.8209C56.6638 25.4139 56.9098 24.9379 57.2276 24.3975C57.2864 24.2885 57.3473 24.1818 57.4126 24.0728C57.4779 23.9638 57.5389 23.8637 57.5977 23.7659V23.7303C57.6085 23.6702 57.626 23.5835 57.6499 23.4701C57.6738 23.3566 57.6869 23.2365 57.6934 23.1098C57.7 22.983 57.6934 22.8585 57.676 22.7317C57.6586 22.6049 57.6151 22.4937 57.5432 22.3981C57.4148 22.229 57.2145 22.1468 56.9446 22.1468C56.7792 22.1468 56.5615 22.1979 56.2916 22.3002C56.0216 22.4025 55.7277 22.5693 55.4099 22.8051C55.0921 23.0386 54.7569 23.3389 54.4042 23.7058C54.0516 24.0728 53.7098 24.5198 53.3811 25.0469C52.9697 25.7075 52.6998 26.3369 52.5692 26.9374C52.4625 27.5023 52.4864 27.9271 52.6388 28.2162C52.7803 28.5053 53.0611 28.6477 53.4856 28.6477C54.0755 28.6477 54.7395 28.1984 55.4818 27.2977Z" fill="#767676"/>
<path d="M65.3884 26.1989C65.4472 26.2589 65.482 26.3301 65.4951 26.4146C65.506 26.4991 65.4842 26.577 65.4254 26.6481C65.4015 26.6726 65.3732 26.7015 65.3362 26.7371C65.3013 26.7727 65.2709 26.8082 65.2491 26.8461C64.7092 27.5177 64.2151 28.0781 63.7689 28.5207C63.3226 28.9655 62.9112 29.1879 62.5346 29.1879C62.2059 29.1879 61.9643 29.0567 61.8119 28.792C61.6595 28.5029 61.6595 28.0848 61.8119 27.531C61.9643 26.9906 62.293 26.27 62.8002 25.3693C62.8938 25.2003 62.9003 24.929 62.8176 24.5509C62.7349 24.1728 62.5716 23.7258 62.3234 23.2099C62.0056 23.6658 61.6377 24.1773 61.222 24.74C60.804 25.3048 60.3208 25.9342 59.7678 26.6303C59.7091 26.7015 59.6394 26.7438 59.5567 26.7571C59.474 26.7682 59.4043 26.746 59.3455 26.6859C59.2759 26.6259 59.2345 26.5547 59.2215 26.4702C59.2106 26.3857 59.2323 26.3079 59.2911 26.2367C60.4666 24.7355 61.3656 23.5234 61.9882 22.5983C61.8815 22.3714 61.8532 22.0979 61.899 21.7798C61.9468 21.4618 61.9991 21.2016 62.0579 20.997C62.0818 20.9369 62.1145 20.8435 62.1558 20.7168C62.1972 20.59 62.2538 20.4566 62.3234 20.312C62.3931 20.1674 62.4736 20.0229 62.5607 19.8805C62.65 19.736 62.7523 19.6159 62.8698 19.5203C62.9983 19.4113 63.1354 19.3557 63.2747 19.349C63.4162 19.3424 63.5446 19.3935 63.6622 19.5025C63.9082 19.7182 63.9626 20.074 63.8211 20.5655C63.6927 20.9503 63.451 21.4373 63.0984 22.0245C63.0396 22.1201 62.9787 22.2202 62.9134 22.3225C62.848 22.4248 62.7806 22.5293 62.7109 22.6383C63.475 24.0683 63.6796 25.0869 63.327 25.7007C63.0222 26.2411 62.7958 26.6859 62.6478 27.0329C62.4998 27.382 62.404 27.66 62.3561 27.8713C62.3082 28.0826 62.2908 28.2316 62.3038 28.3206C62.3147 28.4117 62.3278 28.4673 62.3387 28.4918C62.3496 28.5029 62.367 28.5185 62.3909 28.5363C62.4149 28.5541 62.4606 28.563 62.5324 28.563C62.5912 28.563 62.6979 28.5229 62.8502 28.4451C63.0026 28.3673 63.2203 28.1849 63.5033 27.8958C63.7253 27.6912 63.943 27.4599 64.1563 27.2019C64.3675 26.9439 64.5743 26.6948 64.7724 26.4546C64.7963 26.4191 64.8246 26.3835 64.8616 26.3457C64.8965 26.3101 64.9269 26.2745 64.9509 26.2367C65.0096 26.1766 65.0793 26.1411 65.162 26.1277C65.2426 26.1144 65.3188 26.1388 65.3884 26.1989ZM62.5324 21.7665C62.5433 21.742 62.552 21.7287 62.5585 21.722C62.5651 21.7153 62.5738 21.702 62.5847 21.6775C62.7719 21.3662 62.9134 21.1082 63.007 20.9036C63.1006 20.699 63.1724 20.5322 63.2181 20.3987C63.266 20.2675 63.2878 20.1719 63.2878 20.1096C63.2878 20.0496 63.2812 20.0073 63.2704 19.9829C63.2225 20.0184 63.155 20.0963 63.0679 20.2164C62.9787 20.3365 62.8894 20.5166 62.7936 20.7568C62.724 20.9369 62.6674 21.1149 62.626 21.2883C62.589 21.464 62.5564 21.6219 62.5324 21.7665Z" fill="#767676"/>
<path d="M72.5276 26.199C72.5863 26.259 72.6212 26.3302 72.6342 26.4147C72.6451 26.4992 72.6233 26.5771 72.5646 26.6482C72.5406 26.6727 72.5145 26.7016 72.4862 26.7372C72.4579 26.7728 72.4253 26.8084 72.3882 26.8462C71.8484 27.5178 71.3543 28.0783 70.908 28.5209C70.4618 28.9657 70.0503 29.1881 69.6737 29.1881C69.4038 29.1881 69.2014 29.1369 69.0664 29.0346C68.9314 28.9323 68.8335 28.8278 68.7747 28.7188C68.6463 28.4786 68.5984 28.1851 68.6332 27.8359C67.8213 28.7967 67.0398 29.2771 66.2888 29.2771C65.8774 29.2771 65.5661 29.1925 65.3549 29.0257C65.1438 28.8567 64.9914 28.6899 64.8956 28.5209C64.6496 28.065 64.6083 27.4934 64.7715 26.8106C64.8412 26.4748 64.9544 26.13 65.1068 25.7742C65.2591 25.4206 65.4485 25.0625 65.6706 24.7022C66.3062 23.6925 67.0224 22.894 67.8213 22.3069C68.1739 22.0556 68.5157 21.8599 68.8444 21.722C69.1731 21.5841 69.4735 21.5151 69.7434 21.5151C70.0482 21.5151 70.2876 21.5685 70.4574 21.6775C70.6272 21.7865 70.7535 21.8999 70.8362 22.02C70.9646 22.189 71.0473 22.387 71.0822 22.6138C71.1758 22.4693 71.2519 22.3425 71.3107 22.2357C71.3695 22.1267 71.4283 22.0311 71.487 21.9466C71.5349 21.851 71.5872 21.7665 71.6459 21.6953C71.6938 21.6241 71.757 21.5774 71.8397 21.5596C71.9224 21.5418 71.9986 21.5574 72.0683 21.6041C72.1379 21.653 72.1858 21.7175 72.2098 21.802C72.2337 21.8865 72.2163 21.9644 72.1575 22.0356C72.1575 22.0467 72.0051 22.2958 71.6982 22.7828C71.3934 23.2699 71.0103 23.9149 70.5532 24.72C70.2484 25.2604 70.0003 25.7386 69.8131 26.1523C69.6259 26.5659 69.4865 26.9262 69.3995 27.2332C69.3124 27.5401 69.2601 27.7892 69.2493 27.9804C69.2384 28.1717 69.2601 28.3118 69.3189 28.3941C69.3298 28.4186 69.3559 28.4519 69.3973 28.4942C69.4386 28.5365 69.5301 28.5565 69.6716 28.5565C69.7303 28.5565 69.837 28.5164 69.9894 28.4386C70.1418 28.3608 70.366 28.1784 70.6598 27.8893C70.871 27.6846 71.0822 27.4533 71.2955 27.1953C71.5066 26.9374 71.7134 26.6883 71.9115 26.4481C71.9464 26.4125 71.979 26.3769 72.0095 26.3391C72.0378 26.3035 72.0661 26.2679 72.0879 26.2301C72.1466 26.1701 72.2163 26.1345 72.299 26.1211C72.3817 26.1145 72.4579 26.1389 72.5276 26.199ZM68.2784 27.2977C68.5723 26.9374 68.8074 26.6104 68.9837 26.3168C69.16 26.0233 69.2536 25.8698 69.2667 25.8565C69.2667 25.8453 69.2689 25.8387 69.2754 25.8387C69.2819 25.8387 69.2841 25.832 69.2841 25.8209C69.4604 25.4139 69.7064 24.9379 70.0242 24.3975C70.083 24.2885 70.1439 24.1818 70.2092 24.0728C70.2746 23.9638 70.3355 23.8637 70.3943 23.7659V23.7303C70.4052 23.6702 70.4226 23.5835 70.4465 23.4701C70.4705 23.3566 70.4835 23.2365 70.4901 23.1098C70.4966 22.983 70.4901 22.8585 70.4726 22.7317C70.4552 22.6049 70.4117 22.4937 70.3399 22.3981C70.2114 22.229 70.0111 22.1468 69.7412 22.1468C69.5758 22.1468 69.3581 22.1979 69.0882 22.3002C68.8182 22.4025 68.5244 22.5693 68.2066 22.8051C67.8887 23.0386 67.5535 23.3389 67.2009 23.7058C66.8482 24.0728 66.5065 24.5198 66.1778 25.0469C65.7663 25.7075 65.4964 26.3369 65.3658 26.9374C65.2591 27.5023 65.2831 27.9271 65.4355 28.2162C65.5769 28.5053 65.8578 28.6477 66.2822 28.6477C66.8743 28.6477 67.5383 28.1984 68.2784 27.2977Z" fill="#767676"/>
<path d="M79.8274 26.1989C79.897 26.2589 79.9384 26.3301 79.9515 26.4146C79.9623 26.4991 79.9406 26.577 79.8818 26.6481C79.8578 26.6726 79.8383 26.6971 79.8208 26.7193C79.8034 26.7438 79.7817 26.7682 79.7599 26.7905C79.6423 26.935 79.4921 27.1152 79.3093 27.3309C79.1264 27.5466 78.9153 27.7713 78.6736 28.007C78.432 28.2405 78.1708 28.4718 77.89 28.7009C77.607 28.93 77.3022 29.1212 76.9735 29.2769C76.7493 29.3859 76.5208 29.4815 76.2857 29.5661C76.0506 29.6506 75.8154 29.7351 75.5804 29.8174C75.2625 30.3934 74.9164 30.8916 74.5398 31.3119C74 31.9124 73.4928 32.2416 73.0226 32.3016C72.9986 32.3016 72.9747 32.3038 72.9529 32.3105C72.929 32.3172 72.905 32.3194 72.8832 32.3194C72.5785 32.3194 72.3369 32.1993 72.1605 31.9591C72.019 31.8034 71.9777 31.581 72.0365 31.2919C72.0952 31.0272 72.2367 30.7781 72.4588 30.5446C72.683 30.3111 72.9638 30.1087 73.3056 29.9419C73.5276 29.8463 73.7692 29.7551 74.0283 29.6706C74.2873 29.5861 74.5507 29.4971 74.8206 29.4015C74.8794 29.377 74.936 29.3592 74.9882 29.3481C75.0405 29.337 75.0971 29.317 75.1559 29.2947C75.2038 29.1991 75.2473 29.1035 75.2887 29.0056C75.33 28.91 75.3736 28.8143 75.4214 28.7165C75.4323 28.692 75.4628 28.6164 75.5085 28.4918C75.5564 28.3651 75.6261 28.1938 75.7197 27.9781C74.8729 28.8432 74.1088 29.2747 73.4275 29.2747C73.016 29.2747 72.7047 29.1902 72.4936 29.0234C72.2824 28.8544 72.1301 28.6876 72.0343 28.5185C71.7883 28.0626 71.7469 27.491 71.9102 26.8083C71.9799 26.4724 72.093 26.1277 72.2454 25.7719C72.3978 25.4182 72.5872 25.0602 72.8092 24.6999C73.4449 23.6902 74.161 22.8917 74.9599 22.3046C75.3126 22.0533 75.6522 21.8576 75.9831 21.7197C76.3118 21.5818 76.6122 21.5128 76.8821 21.5128C77.1869 21.5128 77.4263 21.5662 77.5961 21.6752C77.7659 21.7842 77.8922 21.8976 77.9749 22.0177C78.0445 22.1022 78.1098 22.2156 78.1686 22.3602C78.2274 22.229 78.2862 22.1022 78.3449 21.9821C78.4037 21.862 78.4625 21.7352 78.5213 21.604C78.6149 21.4239 78.7564 21.375 78.9436 21.4595C79.0132 21.4951 79.0633 21.5551 79.0938 21.6396C79.1221 21.7241 79.1199 21.802 79.0851 21.8731C78.9196 22.2223 78.7585 22.567 78.5996 22.9095C78.4407 23.252 78.2796 23.5968 78.1142 23.9459L78.0968 23.9815C77.8029 24.642 77.5264 25.2692 77.2674 25.863C77.0084 26.4569 76.7863 26.9862 76.5969 27.4488C76.4097 27.9114 76.2595 28.2783 76.1463 28.5475C76.0353 28.8166 75.9787 28.9589 75.9787 28.97C75.9787 28.9945 75.9722 29.0056 75.9613 29.0056C76.0897 28.9567 76.2138 28.91 76.3314 28.861C76.4489 28.8121 76.5665 28.7587 76.684 28.6987C76.9779 28.5541 77.2565 28.3807 77.5221 28.176C77.7855 27.9714 78.0293 27.7579 78.2535 27.5355C78.4756 27.3131 78.6736 27.0996 78.8434 26.8972C79.0132 26.6926 79.1569 26.5191 79.2745 26.3746C79.2984 26.3501 79.318 26.3256 79.3354 26.3034C79.3528 26.2789 79.3724 26.2567 79.3964 26.2322C79.4551 26.1722 79.5248 26.1366 79.6075 26.1233C79.6989 26.1144 79.7686 26.1388 79.8274 26.1989ZM75.5433 27.2597C75.8372 26.9239 76.0832 26.6148 76.2835 26.3323C76.4837 26.0499 76.5948 25.8786 76.6187 25.8186C76.7602 25.4939 76.9104 25.1558 77.0693 24.8C77.2282 24.4463 77.3893 24.0816 77.5547 23.7102C77.5656 23.639 77.583 23.5478 77.607 23.4411C77.6309 23.3321 77.6418 23.2164 77.6418 23.0897C77.6418 22.9629 77.6331 22.8384 77.6157 22.7116C77.5983 22.5848 77.5548 22.4803 77.4829 22.3958C77.3545 22.2267 77.1542 22.1445 76.8843 22.1445C76.7188 22.1445 76.5012 22.1956 76.2312 22.2979C75.9613 22.4002 75.6674 22.567 75.3496 22.8028C75.0318 23.0363 74.6966 23.3365 74.3439 23.7035C73.9913 24.0705 73.6495 24.5175 73.3208 25.0446C72.9094 25.7051 72.6394 26.3345 72.5088 26.935C72.4022 27.4999 72.4261 27.9247 72.5785 28.2138C72.72 28.503 73.0008 28.6453 73.4253 28.6453C73.7192 28.6453 74.0413 28.5274 74.394 28.2939C74.751 28.0626 75.1319 27.7179 75.5433 27.2597ZM74.0805 30.8805C74.1872 30.7715 74.2895 30.6514 74.3896 30.5202C74.4898 30.3889 74.5855 30.2488 74.6813 30.1065C74.259 30.2377 73.8889 30.3778 73.5711 30.5202C73.2881 30.6514 73.0683 30.8048 72.9094 30.9805C72.7505 31.154 72.659 31.3075 72.6351 31.4409C72.6242 31.5121 72.6242 31.5543 72.6351 31.5677C72.659 31.6033 72.6939 31.6366 72.7418 31.6678C72.7896 31.6967 72.8593 31.7011 72.9529 31.6767C73.2816 31.6389 73.6582 31.3742 74.0805 30.8805Z" fill="#767676"/>
<path d="M85.5747 26.1611C85.6335 26.2211 85.6662 26.2923 85.6727 26.3768C85.6792 26.4613 85.6531 26.5325 85.5943 26.5925C85.5834 26.617 85.4528 26.7616 85.2068 27.024C84.9609 27.2887 84.63 27.5822 84.2186 27.9069C83.0779 28.7832 82.0439 29.2213 81.1166 29.2213C80.6224 29.2213 80.2502 29.1324 79.9977 28.9522C79.7452 28.7721 79.5601 28.5853 79.4426 28.394C79.2184 27.9981 79.1552 27.5022 79.2488 26.9084C79.3424 26.3145 79.595 25.6562 80.0064 24.9356C80.5811 23.8903 81.208 23.0385 81.885 22.378C82.5598 21.7175 83.1976 21.3327 83.7984 21.2259C84.2577 21.1548 84.6387 21.2437 84.9435 21.4973C85.1786 21.7019 85.307 21.9777 85.3309 22.3268C85.3418 22.6871 85.2308 23.0875 84.9957 23.5256C84.7606 23.9637 84.4188 24.4108 83.9726 24.8667C83.4784 25.3827 82.956 25.7608 82.4031 26.0009C81.9438 26.2056 81.504 26.3079 81.0817 26.3079C80.8706 26.3079 80.6812 26.2901 80.5179 26.2545C80.3525 26.2189 80.2175 26.1766 80.113 26.1277C80.0543 26.2834 80.0042 26.4302 79.9628 26.5681C79.9215 26.706 79.8888 26.8416 79.8649 26.9728C79.7952 27.4532 79.8344 27.8202 79.989 28.0715C80.1762 28.4207 80.5528 28.5942 81.1166 28.5942C81.5976 28.5942 82.0766 28.4719 82.5533 28.225C83.03 27.9781 83.4588 27.7068 83.8398 27.4065C84.2207 27.1063 84.532 26.8305 84.7737 26.577C85.0153 26.3257 85.135 26.1922 85.135 26.1811C85.1938 26.121 85.2634 26.0877 85.3462 26.081C85.4267 26.0743 85.5029 26.101 85.5747 26.1611ZM80.531 25.2426C80.5071 25.3026 80.4788 25.356 80.4439 25.4049C80.4091 25.4538 80.3786 25.5072 80.3547 25.5673C80.4483 25.5917 80.5571 25.6162 80.6812 25.6384C80.8053 25.6629 80.949 25.674 81.1122 25.674C81.9242 25.6629 82.734 25.247 83.5459 24.4308C83.9225 24.046 84.212 23.6724 84.4188 23.3054C84.6235 22.9384 84.7214 22.6249 84.7105 22.3602C84.6866 22.2045 84.6343 22.0777 84.5516 21.9821C84.3862 21.8375 84.1685 21.7953 83.8986 21.8553C83.6635 21.8909 83.411 21.9977 83.141 22.1712C82.8711 22.3446 82.5946 22.5715 82.3116 22.8473C81.6782 23.4722 81.0839 24.2707 80.531 25.2426Z" fill="#767676"/>
<path d="M27.7795 41.9248C27.7403 41.9248 27.7011 41.907 27.675 41.8714C27.6315 41.8114 27.6423 41.7269 27.7011 41.6824C28.5588 41.0241 29.4535 40.2947 30.4374 39.4519C30.494 39.4052 30.5767 39.4118 30.6224 39.4697C30.6681 39.5275 30.6616 39.612 30.605 39.6587C29.6167 40.5037 28.7177 41.2354 27.8578 41.8981C27.8339 41.9159 27.8056 41.9248 27.7795 41.9248Z" fill="#767676"/>
<path d="M25.4823 43.7933C25.4431 43.7933 25.4061 43.7755 25.38 43.7421C25.3343 43.6843 25.3452 43.5998 25.4018 43.5531L25.9808 43.0816C26.0374 43.0349 26.1201 43.0438 26.1658 43.1039C26.2116 43.1617 26.2029 43.2462 26.1441 43.2929L25.565 43.7644C25.5389 43.7844 25.5106 43.7933 25.4823 43.7933Z" fill="#767676"/>
<path d="M25.4107 39.9724C25.3497 39.9724 25.2953 39.9279 25.2822 39.8657C25.267 39.7923 25.3127 39.7211 25.3845 39.7078C26.1464 39.5476 26.9562 39.3497 27.8618 39.105C27.9315 39.085 28.0033 39.1295 28.0229 39.2007C28.0425 39.2718 27.9989 39.3452 27.9293 39.3653C27.0215 39.6099 26.2052 39.8101 25.439 39.9702C25.4281 39.9724 25.4194 39.9724 25.4107 39.9724Z" fill="#767676"/>
<path d="M23.3315 40.4773C23.2727 40.4773 23.2183 40.4351 23.2031 40.375C23.1856 40.3039 23.2292 40.2305 23.301 40.2127L23.8256 40.086C23.8953 40.0704 23.9671 40.1127 23.9845 40.186C24.0019 40.2572 23.9584 40.3306 23.8866 40.3483L23.362 40.4751C23.3511 40.4773 23.3402 40.4773 23.3315 40.4773Z" fill="#767676"/>
<path d="M67.6362 40.4394C67.6275 40.4394 67.6188 40.4394 67.6101 40.4371C66.6915 40.2547 65.8752 40.0701 65.1133 39.8744C65.0436 39.8566 65.0001 39.7832 65.0175 39.712C65.0349 39.6408 65.1068 39.5964 65.1764 39.6142C65.934 39.8099 66.7481 39.9923 67.6602 40.1747C67.732 40.188 67.7777 40.2592 67.7646 40.3326C67.7538 40.3949 67.6972 40.4394 67.6362 40.4394Z" fill="#767676"/>
<path d="M63.5858 39.5254C63.5771 39.5254 63.5662 39.5254 63.5575 39.5231L63.0329 39.4052C62.961 39.3897 62.9175 39.3185 62.9327 39.245C62.948 39.1738 63.0176 39.1271 63.0895 39.1427L63.6141 39.2606C63.6859 39.2762 63.7295 39.3474 63.7142 39.4208C63.7012 39.4831 63.6467 39.5254 63.5858 39.5254Z" fill="#767676"/>
<path d="M37.5961 41.0309C37.5743 41.0309 37.5504 41.0242 37.5308 41.0131C37.4677 40.9753 37.4459 40.893 37.4829 40.8285L37.9814 39.9522C38.0184 39.8877 38.0989 39.8655 38.1621 39.9033C38.2252 39.9411 38.2469 40.0234 38.2099 40.0879L37.7115 40.9642C37.6853 41.0064 37.6396 41.0309 37.5961 41.0309Z" fill="#767676"/>
<path d="M31.8023 49.956C31.7784 49.956 31.7522 49.9493 31.7305 49.9338C31.6695 49.8937 31.6543 49.8092 31.6935 49.7469L36.7001 42.0274C36.7415 41.9651 36.822 41.9495 36.883 41.9896C36.9439 42.0296 36.9592 42.1141 36.92 42.1764L31.9133 49.8959C31.8872 49.936 31.8458 49.956 31.8023 49.956Z" fill="#767676"/>
<path d="M39.4518 53.3455C39.4431 53.3455 39.4322 53.3455 39.4235 53.3433C39.3516 53.3277 39.3081 53.2566 39.3233 53.1832C39.9329 50.3698 40.6752 47.5498 41.3935 44.8232C41.8463 43.1062 42.3121 41.3315 42.741 39.5768C42.7584 39.5056 42.8302 39.4611 42.8999 39.4789C42.9695 39.4967 43.0131 39.5701 42.9957 39.6413C42.5668 41.3982 42.0988 43.173 41.646 44.8921C40.9277 47.6165 40.1875 50.4321 39.578 53.2388C39.5671 53.3033 39.5127 53.3455 39.4518 53.3455Z" fill="#767676"/>
<path d="M28.6266 47.472C28.5961 47.472 28.5657 47.4609 28.5417 47.4386C28.4873 47.3897 28.4808 47.3052 28.5265 47.2496L32.8736 42.0633C32.9215 42.0077 33.0042 42.001 33.0586 42.0477C33.1131 42.0966 33.1196 42.1811 33.0739 42.2367L28.7267 47.4231C28.7006 47.4564 28.6636 47.472 28.6266 47.472Z" fill="#767676"/>
<path d="M35.7 51.573C35.6848 51.573 35.6695 51.5708 35.6543 51.5641C35.5868 51.5374 35.552 51.4618 35.5759 51.3906C36.5403 48.7329 37.6896 46.1041 38.7998 43.5621C39.1546 42.7525 39.5073 41.9408 39.8577 41.129C39.886 41.0623 39.9644 41.0312 40.0319 41.0601C40.0994 41.089 40.1277 41.169 40.0994 41.238C39.7511 42.052 39.3963 42.8615 39.0414 43.6733C37.9334 46.2109 36.7862 48.8375 35.8241 51.4863C35.8045 51.5396 35.7544 51.573 35.7 51.573Z" fill="#767676"/>
<path d="M33.904 40.971C33.8735 40.971 33.8452 40.9599 33.8191 40.9399C33.7625 40.8932 33.756 40.8087 33.8017 40.7508L34.864 39.4564C34.9097 39.3986 34.9946 39.3919 35.049 39.4386C35.1056 39.4853 35.1121 39.5698 35.0664 39.6277L34.0041 40.9221C33.978 40.9555 33.941 40.971 33.904 40.971Z" fill="#767676"/>
<path d="M35.7 51.573C35.6848 51.573 35.6695 51.5708 35.6543 51.5641C35.5868 51.5374 35.552 51.4618 35.5759 51.3906C36.5403 48.7329 37.6896 46.1041 38.7998 43.5621C39.1546 42.7525 39.5073 41.9408 39.8577 41.129C39.886 41.0623 39.9644 41.0312 40.0319 41.0601C40.0994 41.089 40.1277 41.169 40.0994 41.238C39.7511 42.052 39.3963 42.8615 39.0414 43.6733C37.9334 46.2109 36.7862 48.8375 35.8241 51.4863C35.8045 51.5396 35.7544 51.573 35.7 51.573Z" fill="#767676"/>
<path d="M48.949 54.4063C48.8837 54.4063 48.8271 54.3552 48.8184 54.2884C48.5137 51.6597 48.296 48.9775 48.0848 46.3843C47.9042 44.1647 47.717 41.8673 47.4775 39.6166C47.4688 39.5432 47.521 39.4765 47.5929 39.4698C47.6647 39.4609 47.73 39.5143 47.7387 39.5877C47.9782 41.8429 48.1654 44.1403 48.3461 46.3621C48.5572 48.953 48.7749 51.633 49.0796 54.2573C49.0884 54.3307 49.0361 54.3974 48.9643 54.4063C48.9599 54.4063 48.9556 54.4063 48.949 54.4063Z" fill="#767676"/>
<path d="M53.6087 53.5924C53.5499 53.5924 53.4955 53.5524 53.4803 53.4901C52.7793 50.5967 51.926 47.6898 51.101 44.8809C50.7287 43.6132 50.3434 42.3033 49.9777 41.0089C49.9581 40.9378 49.9973 40.8621 50.0669 40.8421C50.1366 40.8221 50.2106 40.8621 50.2302 40.9333C50.5959 42.2255 50.9812 43.5354 51.3513 44.8009C52.1763 47.6142 53.0318 50.521 53.7328 53.4234C53.7502 53.4945 53.7066 53.5679 53.637 53.5857C53.6305 53.5902 53.6196 53.5924 53.6087 53.5924Z" fill="#767676"/>
<path d="M58.9981 51.4126C58.9503 51.4126 58.9045 51.386 58.8806 51.3393C58.1187 49.818 57.3568 48.2657 56.6211 46.7645C55.5522 44.5849 54.4486 42.332 53.3232 40.1391C53.2905 40.0724 53.3145 39.9923 53.3776 39.959C53.4429 39.9256 53.5213 39.9501 53.5539 40.0146C54.6815 42.2119 55.7852 44.4648 56.854 46.6444C57.5897 48.1456 58.3516 49.6979 59.1113 51.2169C59.144 51.2836 59.1179 51.3637 59.0547 51.3971C59.0395 51.4082 59.0199 51.4126 58.9981 51.4126Z" fill="#767676"/>
<path d="M62.1017 41.5627C62.069 41.5627 62.0364 41.5516 62.0124 41.5249L60.0816 39.6568C60.0294 39.6056 60.0272 39.5211 60.0772 39.4677C60.1273 39.4144 60.21 39.4121 60.2623 39.4633L62.1931 41.3314C62.2454 41.3826 62.2475 41.4671 62.1975 41.5205C62.1714 41.5494 62.1365 41.5627 62.1017 41.5627Z" fill="#767676"/>
<path d="M65.3473 44.9987C65.3125 44.9987 65.2777 44.9853 65.2537 44.9586L64.383 44.0378C64.3329 43.9844 64.3329 43.8999 64.3852 43.8487C64.4374 43.7976 64.5201 43.7998 64.5702 43.8509L65.4409 44.7718C65.491 44.8252 65.491 44.9097 65.4388 44.9609C65.4126 44.9876 65.38 44.9987 65.3473 44.9987Z" fill="#767676"/>
<path d="M44.096 50.5141C44.0916 50.5141 44.0894 50.5141 44.0851 50.5141C44.0133 50.5074 43.9588 50.4429 43.9654 50.3695C44.2026 47.3337 44.4138 44.6783 44.6141 42.2519C44.6206 42.1785 44.6859 42.1273 44.7555 42.1295C44.8274 42.1362 44.8818 42.2007 44.8753 42.2741C44.6772 44.7005 44.4639 47.356 44.2266 50.3917C44.2222 50.4607 44.1656 50.5141 44.096 50.5141Z" fill="#767676"/>
<path d="M43.7874 54.4352C43.783 54.4352 43.7809 54.4352 43.7765 54.4352C43.7047 54.4285 43.6503 54.364 43.6568 54.2906L43.9332 50.9547C43.9398 50.8813 44.0051 50.828 44.0747 50.8324C44.1466 50.8391 44.201 50.9036 44.1945 50.977L43.918 54.3129C43.9137 54.3818 43.8549 54.4352 43.7874 54.4352Z" fill="#767676"/>
<path d="M62.4549 48.6927C62.4136 48.6927 62.3744 48.6727 62.3483 48.6371C60.1671 45.5523 58.0055 42.5232 55.9223 39.6298C55.8787 39.5697 55.8918 39.4852 55.9506 39.443C56.0093 39.3985 56.0921 39.4118 56.1334 39.4719C58.2145 42.3653 60.3761 45.3967 62.5594 48.4814C62.603 48.5414 62.5899 48.626 62.5289 48.6682C62.5094 48.6838 62.4811 48.6927 62.4549 48.6927Z" fill="#767676"/>
<path d="M58.7779 17.6544C58.7409 17.6544 58.7039 17.6388 58.6778 17.6077C58.6299 17.5521 58.6386 17.4653 58.693 17.4186L67.0978 10.1572C67.1544 10.1083 67.2371 10.1172 67.2828 10.1728C67.3307 10.2284 67.322 10.3151 67.2675 10.3618L58.8628 17.6232C58.8388 17.6433 58.8084 17.6544 58.7779 17.6544Z" fill="#767676"/>
<path d="M54.1059 14.5518C54.0841 14.5518 54.0602 14.5451 54.0406 14.534C53.9774 14.4962 53.9557 14.4139 53.9927 14.3494L54.4955 13.4687C54.5325 13.4042 54.6131 13.3842 54.6762 13.4197C54.7393 13.4576 54.7611 13.5398 54.7241 13.6043L54.2212 14.485C54.1951 14.5273 54.1494 14.5518 54.1059 14.5518Z" fill="#767676"/>
<path d="M55.3941 12.4636C55.3702 12.4636 55.344 12.4569 55.3223 12.4413C55.2613 12.4013 55.2461 12.3168 55.2853 12.2545L60.292 4.53477C60.3333 4.4725 60.4139 4.45693 60.4748 4.49697C60.5358 4.537 60.551 4.62152 60.5118 4.68379L55.5051 12.4035C55.4768 12.4413 55.4355 12.4636 55.3941 12.4636Z" fill="#767676"/>
<path d="M49.937 12.8238C49.9261 12.8238 49.9152 12.8215 49.9043 12.8193C49.8347 12.8015 49.7911 12.7281 49.8085 12.657C50.0458 11.6984 50.2853 10.7421 50.5247 9.78581C51.23 6.97246 51.9571 4.06571 52.6188 1.19232C52.6363 1.12115 52.7059 1.07444 52.7777 1.09223C52.8474 1.11003 52.8931 1.18119 52.8757 1.25458C52.2139 4.1302 51.4847 7.0414 50.7794 9.85475C50.5399 10.8111 50.3005 11.7696 50.0632 12.7259C50.048 12.7837 49.9957 12.8238 49.937 12.8238Z" fill="#767676"/>
<path d="M61.8063 9.34324C61.7758 9.34324 61.7453 9.33213 61.7214 9.30989C61.667 9.26096 61.6604 9.17644 61.7062 9.12084L63.4781 7.00583C63.526 6.95023 63.6087 6.94356 63.6631 6.99026C63.7176 7.03919 63.7241 7.12369 63.6784 7.17929L61.9064 9.29432C61.8803 9.32768 61.8433 9.34324 61.8063 9.34324Z" fill="#767676"/>
<path d="M55.2735 6.13609C55.2582 6.13609 55.2408 6.13387 55.2256 6.12719C55.1581 6.10051 55.1254 6.02266 55.1516 5.95372C55.3214 5.5156 55.5086 5.08192 55.6871 4.66159C55.9374 4.07669 56.1747 3.52515 56.3771 2.94914C56.4011 2.8802 56.4772 2.84239 56.5447 2.86908C56.6122 2.89354 56.6492 2.97139 56.6231 3.04033C56.4163 3.62523 56.1681 4.2079 55.9265 4.77057C55.748 5.18645 55.563 5.6179 55.3932 6.0538C55.3736 6.10495 55.3257 6.13609 55.2735 6.13609Z" fill="#767676"/>
<path d="M61.587 17.8189C61.5391 17.8189 61.4934 17.7922 61.4716 17.7477C61.439 17.681 61.4629 17.6009 61.526 17.5676L67.3077 14.4695C67.373 14.4362 67.4514 14.4606 67.484 14.5251C67.5167 14.5919 67.4927 14.6719 67.4296 14.7053L61.6479 17.8033C61.6283 17.8144 61.6087 17.8189 61.587 17.8189Z" fill="#767676"/>
<path d="M67.7208 14.5229C67.6729 14.5229 67.6272 14.4963 67.6054 14.4518C67.5706 14.385 67.5967 14.305 67.6598 14.2716L69.09 13.5065C69.1553 13.4732 69.2336 13.4976 69.2663 13.5621C69.3011 13.6289 69.275 13.7089 69.2119 13.7423L67.7817 14.5096C67.7643 14.5185 67.7425 14.5229 67.7208 14.5229Z" fill="#767676"/>
<path d="M64.5454 18.7818C64.491 18.7818 64.4388 18.7462 64.4213 18.6906C64.3974 18.6195 64.4344 18.5438 64.5041 18.5194L69.341 16.8404C69.4085 16.8181 69.4847 16.8537 69.5086 16.9249C69.5326 16.9961 69.4956 17.0717 69.4259 17.0961L64.589 18.7751C64.5737 18.7796 64.5607 18.7818 64.5454 18.7818Z" fill="#767676"/>
<path d="M55.0348 17.71C55.0044 17.71 54.9761 17.6989 54.9499 17.6788C54.8933 17.6321 54.8868 17.5476 54.9325 17.4898L59.9371 11.385C59.985 11.3272 60.0677 11.3205 60.1221 11.3672C60.1787 11.4139 60.1853 11.4984 60.1395 11.5562L55.135 17.661C55.111 17.6922 55.074 17.71 55.0348 17.71Z" fill="#767676"/>
<path d="M52.3552 13.3819C52.3378 13.3819 52.3204 13.3774 52.303 13.3707C52.2355 13.3418 52.2072 13.2617 52.2355 13.1928C53.1367 11.0934 53.9378 9.19413 54.6344 7.22148C54.6583 7.15253 54.7345 7.11473 54.802 7.14142C54.8695 7.16588 54.9065 7.24372 54.8804 7.31267C54.1838 9.29199 53.3783 11.1957 52.475 13.2996C52.4532 13.3529 52.4053 13.3819 52.3552 13.3819Z" fill="#767676"/>
<path d="M44.5801 14.2711C44.5148 14.2711 44.4582 14.2199 44.4495 14.151C44.1513 11.4132 43.8988 8.62206 43.6571 5.92432C43.4873 4.03835 43.311 2.08789 43.1216 0.17078C43.1151 0.0973874 43.1674 0.0306727 43.2392 0.0240006C43.311 0.0173285 43.3763 0.0707002 43.3829 0.144093C43.5744 2.0612 43.7486 4.01389 43.9184 5.89986C44.16 8.59538 44.4125 11.3843 44.7107 14.1199C44.7194 14.1932 44.6672 14.26 44.5953 14.2689C44.591 14.2711 44.5866 14.2711 44.5801 14.2711Z" fill="#767676"/>
<path d="M42.3534 14.8766C42.2968 14.8766 42.2424 14.8366 42.2271 14.7788L40.0264 6.72332C40.0068 6.65215 40.0481 6.57876 40.1178 6.55875C40.1874 6.53873 40.2593 6.58098 40.2789 6.65215L42.4796 14.7076C42.4992 14.7788 42.4579 14.8522 42.3882 14.8722C42.3752 14.8766 42.3643 14.8766 42.3534 14.8766Z" fill="#767676"/>
<path d="M39.5562 4.63263C39.4996 4.63263 39.4451 4.5926 39.4299 4.53478L38.4678 1.00976C38.4482 0.938589 38.4895 0.8652 38.5592 0.845184C38.6288 0.825168 38.7007 0.86742 38.7203 0.938588L39.6824 4.46361C39.702 4.53477 39.6607 4.60818 39.591 4.62819C39.5779 4.63042 39.567 4.63263 39.5562 4.63263Z" fill="#767676"/>
<path d="M39.8452 16.2711C39.7973 16.2711 39.7516 16.2444 39.7276 16.1977C37.4028 11.5206 35.2303 7.27491 33.0883 3.21828C33.0535 3.15379 33.0774 3.0715 33.1405 3.03591C33.2037 3.00033 33.2842 3.02479 33.319 3.08929C35.461 7.14814 37.6335 11.396 39.9605 16.0754C39.9932 16.1421 39.9671 16.2222 39.904 16.2555C39.8844 16.2667 39.8648 16.2711 39.8452 16.2711Z" fill="#767676"/>
<path d="M34.8112 17.6943C34.7786 17.6943 34.7459 17.6832 34.722 17.6565L30.0113 13.1018C29.959 13.0506 29.9569 12.9661 30.0069 12.9127C30.057 12.8594 30.1397 12.8571 30.192 12.9083L34.9026 17.463C34.9549 17.5141 34.957 17.5987 34.907 17.652C34.8809 17.6787 34.846 17.6943 34.8112 17.6943Z" fill="#767676"/>
<path d="M28.6038 11.6161C28.569 11.6161 28.5342 11.6028 28.5102 11.5761L25.7413 8.64257C25.6912 8.58919 25.6934 8.50467 25.7457 8.45352C25.7979 8.40236 25.8806 8.40459 25.9307 8.45797L28.6996 11.3915C28.7497 11.4449 28.7475 11.5294 28.6953 11.5805C28.6691 11.6028 28.6365 11.6161 28.6038 11.6161Z" fill="#767676"/>
<path d="M26.0592 17.5321C26.0396 17.5321 26.02 17.5276 26.0026 17.5187L21.3246 15.228C21.2593 15.1969 21.231 15.1168 21.2636 15.0479C21.2941 14.9811 21.3746 14.9522 21.4399 14.9856L26.118 17.2763C26.1833 17.3074 26.2116 17.3875 26.1789 17.4564C26.1572 17.5032 26.1093 17.5321 26.0592 17.5321Z" fill="#767676"/>
<path d="M47.3476 13.1975C47.3455 13.1975 47.3411 13.1975 47.3389 13.1975C47.2671 13.1931 47.2127 13.1286 47.217 13.0552C47.2388 12.7149 47.2606 12.3769 47.2802 12.0366C47.3977 10.1306 47.5196 8.16235 47.7482 6.23191C47.7569 6.15852 47.8222 6.10738 47.894 6.11405C47.9659 6.12294 48.0181 6.18966 48.0094 6.26305C47.7808 8.1846 47.6589 10.1506 47.5414 12.0522C47.5196 12.3924 47.5 12.7327 47.4783 13.0707C47.4739 13.1419 47.4151 13.1975 47.3476 13.1975Z" fill="#767676"/>
<path d="M48.139 3.60307C48.1346 3.60307 48.1324 3.60307 48.1281 3.60307C48.0562 3.5964 48.0018 3.5319 48.0083 3.45851L48.2848 0.122391C48.2913 0.0489968 48.3588 -0.00215429 48.4263 6.97901e-05C48.4981 0.00674203 48.5526 0.0712322 48.546 0.144627L48.2696 3.48075C48.263 3.54969 48.2064 3.60307 48.139 3.60307Z" fill="#767676"/>
<path d="M30.4951 7.02568C30.4559 7.02568 30.4167 7.00789 30.3906 6.97231C30.0336 6.49194 29.6744 5.98933 29.3261 5.50228L29.1215 5.21761C29.0779 5.15756 29.091 5.07306 29.1498 5.0308C29.2086 4.98855 29.2913 4.99967 29.3326 5.05972L29.5373 5.34438C29.8856 5.8292 30.2426 6.33182 30.5996 6.80997C30.6431 6.87001 30.6322 6.95229 30.5734 6.999C30.5517 7.01679 30.5234 7.02568 30.4951 7.02568Z" fill="#767676"/>
<path d="M37.8652 17.2451C37.8261 17.2451 37.7869 17.2273 37.7608 17.1917C36.2936 15.199 34.8307 13.1529 33.4158 11.1736L32.4144 9.77248C32.3709 9.71243 32.384 9.62791 32.4427 9.58566C32.5015 9.54118 32.5842 9.55452 32.6256 9.61457L33.6269 11.0157C35.0419 12.995 36.5025 15.0389 37.9697 17.0316C38.0133 17.0916 38.0024 17.1761 37.9436 17.2206C37.9197 17.2362 37.8914 17.2451 37.8652 17.2451Z" fill="#767676"/>
<path d="M30.5729 17.6633C30.5467 17.6633 30.5206 17.6566 30.4989 17.6388L26.8548 15.0699C26.7961 15.0276 26.7808 14.9431 26.8222 14.883C26.8635 14.823 26.9463 14.8074 27.005 14.8497L30.6491 17.4186C30.7078 17.4609 30.7231 17.5454 30.6817 17.6054C30.6556 17.6432 30.6142 17.6633 30.5729 17.6633Z" fill="#767676"/>
<path d="M25.834 14.3094C25.8078 14.3094 25.7817 14.3027 25.76 14.2849L23.5853 12.7504C23.5265 12.7082 23.5113 12.6237 23.5526 12.5636C23.594 12.5036 23.6767 12.488 23.7355 12.5303L25.9102 14.0647C25.9689 14.107 25.9842 14.1915 25.9428 14.2515C25.9167 14.2893 25.8753 14.3094 25.834 14.3094Z" fill="#767676"/>
<path d="M22.9112 35.2853V35.8458C22.9112 36.2639 22.5803 36.6065 22.171 36.6065H21.2872C21.2219 36.6065 21.1719 36.5531 21.1719 36.4886V33.4014C21.1719 33.3347 21.2219 33.2835 21.2872 33.2835H22.097C22.5063 33.2835 22.8372 33.626 22.8372 34.0442V34.3533C22.8372 34.509 22.7958 34.6514 22.7109 34.7715C22.8372 34.9049 22.9112 35.0873 22.9112 35.2853ZM21.7313 34.5313H22.0992C22.1972 34.5313 22.2799 34.4468 22.2799 34.3467V34.0197C22.2799 33.9152 22.1972 33.8307 22.0992 33.8307H21.7313V34.5313ZM22.3539 35.2586C22.3539 35.1541 22.2712 35.0695 22.1732 35.0695H21.7313V36.0571H22.1732C22.2712 36.0571 22.3539 35.9726 22.3539 35.8614V35.2586Z" fill="#767676"/>
<path d="M23.9855 33.8229V34.5301H24.3947C24.46 34.5301 24.5101 34.5813 24.5101 34.648V34.9416C24.5101 35.0083 24.46 35.0595 24.3947 35.0595H23.9855V36.0625H24.632C24.6973 36.0625 24.7474 36.1137 24.7474 36.1804V36.4851C24.7474 36.5518 24.6973 36.603 24.632 36.603H23.5392C23.4739 36.603 23.4238 36.5496 23.4238 36.4851V33.3981C23.4238 33.3314 23.4739 33.2802 23.5392 33.2802H24.632C24.6973 33.2802 24.7474 33.3336 24.7474 33.3981V33.7028C24.7474 33.7695 24.6973 33.8207 24.632 33.8207H23.9855V33.8229Z" fill="#767676"/>
<path d="M26.3562 34.121V34.0209C26.3562 33.9164 26.2735 33.8363 26.1711 33.8363H25.9578C25.8555 33.8363 25.7728 33.9164 25.7728 34.0209V34.31C25.7728 34.4146 25.8555 34.4946 25.9578 34.4991H26.1711C26.5847 34.4991 26.9156 34.8371 26.9156 35.2597V35.8446C26.9156 36.2627 26.5804 36.6052 26.1711 36.6052H25.9578C25.5486 36.6052 25.2133 36.2627 25.2133 35.8446V35.4554C25.2133 35.3887 25.2634 35.3375 25.3287 35.3375H25.6531C25.7184 35.3375 25.7684 35.3909 25.7684 35.4554V35.8691C25.7684 35.9736 25.8512 36.0581 25.9535 36.0581H26.1668C26.2691 36.0581 26.3518 35.9736 26.3518 35.8691V35.2508C26.3518 35.1463 26.2691 35.0662 26.1668 35.0662H25.9535C25.5442 35.0618 25.209 34.7282 25.209 34.31V34.0387C25.209 33.6206 25.5442 33.2781 25.9535 33.2781H26.1668C26.5804 33.2781 26.9113 33.6206 26.9113 34.0387V34.1188C26.9113 34.1855 26.859 34.2367 26.7959 34.2367H26.4715C26.4062 34.2411 26.3562 34.1877 26.3562 34.121Z" fill="#767676"/>
<path d="M28.8953 33.4002V33.7138C28.8953 33.7805 28.8387 33.8316 28.7799 33.8316H28.3794V36.4871C28.3794 36.5539 28.3293 36.605 28.264 36.605H27.9375C27.8765 36.605 27.8221 36.5516 27.8221 36.4871V33.8316H27.4259C27.3606 33.8316 27.3105 33.7783 27.3105 33.7138V33.4002C27.3105 33.3335 27.3606 33.2823 27.4259 33.2823H28.7777C28.8387 33.2801 28.8953 33.3335 28.8953 33.4002Z" fill="#767676"/>
<path d="M31.9449 36.0582H32.1299C32.1865 36.0582 32.2409 36.1115 32.2409 36.176V36.4852C32.2409 36.5519 32.1843 36.603 32.119 36.603H31.1982C30.8347 36.603 30.543 36.3028 30.543 35.9381V33.9476C30.543 33.5761 30.8368 33.2781 31.1982 33.2781H31.5879C31.9514 33.2781 32.2431 33.5784 32.2431 33.9476V35.5867C32.2474 35.7979 32.1212 35.9781 31.9449 36.0582ZM31.688 33.9498C31.688 33.8831 31.6314 33.8275 31.5661 33.8275H31.2221C31.1568 33.8275 31.1024 33.8853 31.1024 33.9498V35.9403C31.1024 36.0026 31.159 36.0582 31.2221 36.0582H31.688V33.9498Z" fill="#767676"/>
<path d="M34.0651 33.2802H34.3895C34.4548 33.2802 34.5048 33.338 34.5048 33.4048V35.998C34.5048 36.3293 34.2349 36.6051 33.9105 36.6051H33.399C33.0724 36.6051 32.8047 36.3293 32.8047 35.998V33.4048C32.8047 33.338 32.8548 33.2802 32.9201 33.2802H33.2466C33.3119 33.2802 33.362 33.338 33.362 33.4048V35.9401C33.362 36.0069 33.4186 36.058 33.4839 36.058H33.8278C33.8931 36.058 33.9497 36.0069 33.9497 35.9401V33.4048C33.9475 33.338 33.9998 33.2802 34.0651 33.2802Z" fill="#767676"/>
<path d="M36.7098 36.0691V36.4873C36.7098 36.554 36.6575 36.6051 36.5944 36.6051H36.2635C36.2026 36.6051 36.1525 36.5518 36.1525 36.4873V36.0558H35.5299V36.4873C35.5299 36.554 35.4799 36.6051 35.4146 36.6051H35.088C35.0227 36.6051 34.9727 36.5518 34.9727 36.4873V36.0691C34.9727 36.0491 34.9727 36.0358 34.977 36.0069L35.3775 33.3847C35.3863 33.3225 35.4385 33.2802 35.4994 33.2802H36.196C36.257 33.2802 36.3027 33.3336 36.3114 33.3847L36.7054 36.0069C36.7098 36.0358 36.7098 36.0491 36.7098 36.0691ZM36.0872 35.5176L35.8412 33.8407L35.5952 35.5176H36.0872Z" fill="#767676"/>
<path d="M37.7331 33.4002V36.0646H38.3839C38.4492 36.0646 38.4993 36.1157 38.4993 36.1824V36.4871C38.4993 36.5539 38.4492 36.605 38.3839 36.605H37.2912C37.2258 36.605 37.1758 36.5516 37.1758 36.4871V33.4002C37.1758 33.3335 37.2258 33.2823 37.2912 33.2823H37.6177C37.683 33.2801 37.7331 33.3335 37.7331 33.4002Z" fill="#767676"/>
<path d="M39.3831 36.6051H39.0587C38.9934 36.6051 38.9434 36.5518 38.9434 36.4873V33.4048C38.9434 33.338 38.9956 33.2802 39.0587 33.2802H39.3831C39.4484 33.2802 39.4985 33.338 39.4985 33.4048V36.4873C39.5006 36.554 39.4484 36.6051 39.3831 36.6051Z" fill="#767676"/>
<path d="M41.5261 33.4002V33.7138C41.5261 33.7805 41.4695 33.8316 41.4108 33.8316H41.0102V36.4871C41.0102 36.5539 40.9602 36.605 40.8949 36.605H40.5683C40.5074 36.605 40.453 36.5516 40.453 36.4871V33.8316H40.0568C39.9915 33.8316 39.9414 33.7783 39.9414 33.7138V33.4002C39.9414 33.3335 39.9915 33.2823 40.0568 33.2823H41.4086C41.4695 33.2801 41.5261 33.3335 41.5261 33.4002Z" fill="#767676"/>
<path d="M43.2184 33.2802H43.5427C43.6081 33.2802 43.6581 33.3336 43.6581 33.3981V33.8674C43.6581 33.9185 43.6494 33.9719 43.6255 34.0186L43.0355 35.2575V36.483C43.0355 36.5497 42.9833 36.6008 42.9202 36.6008H42.5958C42.5305 36.6008 42.4804 36.5475 42.4804 36.483V35.2575L41.8862 34.0186C41.8666 33.9719 41.8535 33.9185 41.8535 33.8674V33.3981C41.8535 33.3314 41.9036 33.2802 41.9689 33.2802H42.2954C42.3607 33.2802 42.4108 33.3336 42.4108 33.3981V33.7584C42.4108 33.7962 42.4195 33.834 42.4391 33.8674L42.7591 34.5413L43.0791 33.8674C43.0921 33.834 43.103 33.7962 43.103 33.7584V33.3981C43.103 33.3336 43.1531 33.2802 43.2184 33.2802Z" fill="#767676"/>
<path d="M46.5587 34.9438C46.5587 35.3086 46.2713 35.6044 45.9122 35.6044C45.5595 35.6044 45.2656 35.3108 45.2656 34.9438C45.2656 34.5835 45.5595 34.2832 45.9122 34.2832C46.2692 34.2832 46.5587 34.5813 46.5587 34.9438Z" fill="#767676"/>
<path d="M50.0166 35.284V35.8444C50.0166 36.2625 49.6858 36.605 49.2765 36.605H48.3927C48.3274 36.605 48.2773 36.5516 48.2773 36.4871V33.4003C48.2773 33.3336 48.3296 33.2824 48.3927 33.2824H49.2025C49.6117 33.2824 49.9426 33.6249 49.9426 34.043V34.3521C49.9426 34.5078 49.9013 34.6501 49.8164 34.7702C49.9404 34.9037 50.0166 35.086 50.0166 35.284ZM48.8346 34.53H49.2025C49.3005 34.53 49.3832 34.4455 49.3832 34.3455V34.0185C49.3832 33.914 49.3005 33.8295 49.2025 33.8295H48.8346V34.53ZM49.4572 35.2573C49.4572 35.1528 49.3745 35.0683 49.2765 35.0683H48.8346V36.0557H49.2765C49.3745 36.0557 49.4572 35.9712 49.4572 35.86V35.2573Z" fill="#767676"/>
<path d="M51.0909 33.8229V34.5301H51.5002C51.5655 34.5301 51.6155 34.5813 51.6155 34.648V34.9416C51.6155 35.0083 51.5655 35.0595 51.5002 35.0595H51.0909V36.0625H51.7374C51.8027 36.0625 51.8528 36.1137 51.8528 36.1804V36.4851C51.8528 36.5518 51.8027 36.603 51.7374 36.603H50.6447C50.5794 36.603 50.5293 36.5496 50.5293 36.4851V33.3981C50.5293 33.3314 50.5794 33.2802 50.6447 33.2802H51.7374C51.8027 33.2802 51.8528 33.3336 51.8528 33.3981V33.7028C51.8528 33.7695 51.8027 33.8207 51.7374 33.8207H51.0909V33.8229Z" fill="#767676"/>
<path d="M53.4616 34.121V34.0209C53.4616 33.9164 53.3789 33.8363 53.2766 33.8363H53.0633C52.961 33.8363 52.8783 33.9164 52.8783 34.0209V34.31C52.8783 34.4146 52.961 34.4946 53.0633 34.4991H53.2766C53.6902 34.4991 54.0211 34.8371 54.0211 35.2597V35.8446C54.0211 36.2627 53.6859 36.6052 53.2766 36.6052H53.0633C52.654 36.6052 52.3188 36.2627 52.3188 35.8446V35.4554C52.3188 35.3887 52.3689 35.3375 52.4342 35.3375H52.7585C52.8238 35.3375 52.8739 35.3909 52.8739 35.4554V35.8691C52.8739 35.9736 52.9566 36.0581 53.0589 36.0581H53.2723C53.3746 36.0581 53.4573 35.9736 53.4573 35.8691V35.2508C53.4573 35.1463 53.3746 35.0662 53.2723 35.0662H53.0589C52.6497 35.0618 52.3145 34.7282 52.3145 34.31V34.0387C52.3145 33.6206 52.6497 33.2781 53.0589 33.2781H53.2723C53.6859 33.2781 54.0167 33.6206 54.0167 34.0387V34.1188C54.0167 34.1855 53.9645 34.2367 53.9014 34.2367H53.577C53.5139 34.2411 53.4616 34.1877 53.4616 34.121Z" fill="#767676"/>
<path d="M55.9988 33.4002V33.7138C55.9988 33.7805 55.9422 33.8316 55.8835 33.8316H55.4829V36.4871C55.4829 36.5539 55.4328 36.605 55.3675 36.605H55.041C54.98 36.605 54.9256 36.5516 54.9256 36.4871V33.8316H54.5294C54.4641 33.8316 54.4141 33.7783 54.4141 33.7138V33.4002C54.4141 33.3335 54.4641 33.2823 54.5294 33.2823H55.8813C55.9444 33.2801 55.9988 33.3335 55.9988 33.4002Z" fill="#767676"/>
<path d="M59.3046 34.0408V34.3455C59.3046 34.7636 58.9693 35.1061 58.5644 35.1061H58.2074V36.4871C58.2074 36.5539 58.1552 36.605 58.0921 36.605H57.7677C57.7024 36.605 57.6523 36.5516 57.6523 36.4871V33.4003C57.6523 33.3336 57.7046 33.2824 57.7677 33.2824H58.5666C58.9693 33.2802 59.3046 33.6227 59.3046 34.0408ZM58.7473 34.0163C58.7473 33.9118 58.6689 33.8273 58.5666 33.8273H58.2096V34.5301H58.5666C58.6689 34.5301 58.7473 34.4456 58.7473 34.3455V34.0163Z" fill="#767676"/>
<path d="M60.9641 35.0527L61.3821 35.8511C61.406 35.8978 61.4147 35.9556 61.4147 36.0068V36.4827C61.4147 36.5494 61.369 36.6006 61.3037 36.6006H60.9794C60.9141 36.6006 60.8575 36.5494 60.8575 36.4827V36.1513C60.8575 36.0979 60.8488 36.0468 60.8248 35.989L60.3285 35.0482V36.4871C60.3285 36.5539 60.2763 36.605 60.2131 36.605H59.8888C59.8279 36.605 59.7734 36.5516 59.7734 36.4871V33.4003C59.7734 33.3336 59.83 33.2824 59.8888 33.2824H60.692C61.1013 33.2824 61.43 33.6249 61.43 34.043V34.3432C61.43 34.6635 61.2341 34.937 60.9641 35.0527ZM60.6899 33.8273H60.3263V34.5345H60.6899C60.7878 34.5345 60.8705 34.45 60.8705 34.3388V34.0119C60.8727 33.9073 60.7878 33.8273 60.6899 33.8273Z" fill="#767676"/>
<path d="M62.3343 36.6051H62.0099C61.9446 36.6051 61.8945 36.5518 61.8945 36.4873V33.4048C61.8945 33.338 61.9468 33.2802 62.0099 33.2802H62.3343C62.3996 33.2802 62.4496 33.338 62.4496 33.4048V36.4873C62.4518 36.554 62.3996 36.6051 62.3343 36.6051Z" fill="#767676"/>
<path d="M64.2233 35.0662H64.5476C64.6129 35.0662 64.663 35.124 64.663 35.1885V35.9958C64.663 36.3272 64.3974 36.603 64.0687 36.603H63.5572C63.2306 36.603 62.9629 36.3272 62.9629 35.9958V33.8874C62.9629 33.5493 63.2285 33.2802 63.5572 33.2802H64.0687C64.3996 33.2802 64.663 33.5516 64.663 33.8874V34.41C64.663 34.4768 64.6107 34.5346 64.5476 34.5346H64.2233C64.158 34.5346 64.1079 34.4768 64.1079 34.41V33.9408C64.1079 33.874 64.0513 33.8229 63.9925 33.8229H63.6442C63.5789 33.8229 63.5223 33.8763 63.5223 33.9408V35.9358C63.5223 36.0025 63.5789 36.0536 63.6442 36.0536H63.9925C64.0535 36.0536 64.1079 36.0025 64.1079 35.9358V35.1907C64.1079 35.124 64.1601 35.0662 64.2233 35.0662Z" fill="#767676"/>
<path d="M65.7394 33.8229V34.5301H66.1486C66.2139 34.5301 66.264 34.5813 66.264 34.648V34.9416C66.264 35.0083 66.2139 35.0595 66.1486 35.0595H65.7394V36.0625H66.3859C66.4512 36.0625 66.5013 36.1137 66.5013 36.1804V36.4851C66.5013 36.5518 66.4512 36.603 66.3859 36.603H65.2931C65.2278 36.603 65.1777 36.5496 65.1777 36.4851V33.3981C65.1777 33.3314 65.2278 33.2802 65.2931 33.2802H66.3859C66.4512 33.2802 66.5013 33.3336 66.5013 33.3981V33.7028C66.5013 33.7695 66.4512 33.8207 66.3859 33.8207H65.7394V33.8229Z" fill="#767676"/>
<path d="M68.2367 33.7961C71.5955 33.7961 74.9543 33.7961 78.3132 33.7961C78.7377 33.7961 78.7377 33.1246 78.3132 33.1246C74.9543 33.1246 71.5955 33.1246 68.2367 33.1246C67.8143 33.1246 67.8143 33.7961 68.2367 33.7961Z" fill="#767676"/>
<path d="M68.2367 35.2285C70.4265 35.2285 72.6164 35.2285 74.8085 35.2285C75.233 35.2285 75.233 34.5569 74.8085 34.5569C72.6186 34.5569 70.4287 34.5569 68.2367 34.5569C67.8143 34.5569 67.8143 35.2285 68.2367 35.2285Z" fill="#767676"/>
<path d="M68.2366 36.5718C69.2293 36.5718 70.2219 36.5718 71.2145 36.5718C71.639 36.5718 71.639 35.9 71.2145 35.9C70.2219 35.9 69.2293 35.9 68.2366 35.9C67.8143 35.9 67.8143 36.5718 68.2366 36.5718Z" fill="#767676"/>
<path d="M19.0824 33.1248C15.7236 33.1248 12.3647 33.1248 9.00586 33.1248C8.58138 33.1248 8.58138 33.7963 9.00586 33.7963C12.3647 33.7963 15.7236 33.7963 19.0824 33.7963C19.5069 33.7963 19.5069 33.1248 19.0824 33.1248Z" fill="#767676"/>
<path d="M19.0836 34.5569C16.8937 34.5569 14.7038 34.5569 12.5117 34.5569C12.0872 34.5569 12.0872 35.2285 12.5117 35.2285C14.7016 35.2285 16.8915 35.2285 19.0836 35.2285C19.5081 35.2285 19.5081 34.5569 19.0836 34.5569Z" fill="#767676"/>
<path d="M19.0834 35.9C18.0907 35.9 17.0981 35.9 16.1055 35.9C15.681 35.9 15.681 36.5718 16.1055 36.5718C17.0981 36.5718 18.0907 36.5718 19.0834 36.5718C19.5079 36.5718 19.5079 35.9 19.0834 35.9Z" fill="#767676"/>
</svg>
