<svg width="83" height="62" viewBox="0 0 83 62" fill="none" xmlns="http://www.w3.org/2000/svg">
<path d="M29.3696 41.4129C29.3023 41.3245 29.1755 41.3088 29.089 41.3775C27.5687 42.595 26.3751 43.4984 25.22 44.3015C25.1296 44.3644 25.1047 44.492 25.1681 44.5843C25.2065 44.6432 25.2699 44.6727 25.3334 44.6727C25.3718 44.6727 25.4122 44.6609 25.4449 44.6373C26.6077 43.8283 27.807 42.921 29.335 41.6976C29.4234 41.6308 29.4369 41.5012 29.3696 41.4129Z" fill="#767676"/>
<path d="M23.223 46.2315C23.2634 46.2315 23.3038 46.2197 23.3403 46.1922L23.8727 45.7995C23.9611 45.7328 23.9823 45.6071 23.9169 45.5149C23.8516 45.4226 23.7266 45.4029 23.6382 45.4697L23.1058 45.8624C23.0174 45.9291 22.9962 46.0548 23.0616 46.1471C23.1 46.202 23.1615 46.2315 23.223 46.2315Z" fill="#767676"/>
<path d="M35.5161 41.5011L34.186 43.616C34.1264 43.7102 34.1533 43.8379 34.2456 43.8988C34.2783 43.9204 34.3167 43.9321 34.3532 43.9321C34.4186 43.9321 34.4839 43.8988 34.5205 43.8379L35.8506 41.723C35.9101 41.6287 35.8832 41.5011 35.791 41.4402C35.7006 41.3794 35.5757 41.4068 35.5161 41.5011Z" fill="#767676"/>
<path d="M29.0322 51.3607C29.0937 51.3607 29.1533 51.3312 29.1936 51.2763L33.795 44.851C33.8604 44.7607 33.8411 44.633 33.7508 44.5663C33.6624 44.4995 33.5375 44.5191 33.4721 44.6114L28.8707 51.0367C28.8054 51.127 28.8246 51.2546 28.9149 51.3214C28.9495 51.3489 28.9918 51.3607 29.0322 51.3607Z" fill="#767676"/>
<path d="M39.2886 41.5501C38.8177 43.3665 38.2853 45.1987 37.7702 46.9699C37.1109 49.2399 36.4286 51.5866 35.8674 53.9292C35.8405 54.0392 35.9058 54.1492 36.0135 54.1767C36.0288 54.1806 36.0461 54.1826 36.0615 54.1826C36.1518 54.1826 36.2326 54.1197 36.2556 54.0274C36.813 51.6946 37.4934 49.3519 38.1527 47.0877C38.6678 45.3126 39.2021 43.4765 39.6749 41.6562C39.7037 41.5481 39.6403 41.4362 39.5327 41.4068C39.4289 41.3773 39.3174 41.4421 39.2886 41.5501Z" fill="#767676"/>
<path d="M26.1109 49.2928C26.1647 49.2928 26.2166 49.2712 26.2569 49.228L30.2529 44.91C30.3278 44.8275 30.3259 44.6999 30.2452 44.6214C30.1645 44.5448 30.0395 44.5487 29.9626 44.6292L25.9667 48.9472C25.8917 49.0297 25.8937 49.1574 25.9744 49.2359C26.0128 49.2752 26.0609 49.2928 26.1109 49.2928Z" fill="#767676"/>
<path d="M23.1192 41.3421L21.0357 42.4122C20.9377 42.4633 20.8973 42.585 20.9473 42.6852C20.9819 42.7558 21.053 42.7971 21.126 42.7971C21.1568 42.7971 21.1875 42.7892 21.2164 42.7755L23.2998 41.7054C23.3979 41.6543 23.4382 41.5326 23.3882 41.4325C23.3363 41.3323 23.2172 41.2911 23.1192 41.3421Z" fill="#767676"/>
<path d="M31.1086 43.8181L33.0018 41.7249C33.0767 41.6424 33.0709 41.5128 32.9902 41.4362C32.9095 41.3596 32.7826 41.3655 32.7077 41.448L30.8145 43.5412C30.7396 43.6237 30.7453 43.7533 30.826 43.8299C30.8645 43.8652 30.9125 43.8848 30.9606 43.8848C31.0144 43.8829 31.0682 43.8613 31.1086 43.8181Z" fill="#767676"/>
<path d="M37.8069 41.7054C37.8531 41.6033 37.8089 41.4816 37.707 41.4344C37.607 41.3893 37.4879 41.4325 37.4417 41.5365C36.7883 43.0073 36.0771 44.4821 35.389 45.9077C34.3703 48.0206 33.3171 50.2042 32.4272 52.4251C32.3849 52.5292 32.4349 52.649 32.5367 52.6902C32.5617 52.7 32.5867 52.7059 32.6117 52.7059C32.6905 52.7059 32.7654 52.6588 32.7962 52.5783C33.6803 50.3691 34.7317 48.1914 35.7465 46.0864C36.4384 44.6588 37.1515 43.1801 37.8069 41.7054Z" fill="#767676"/>
<path d="M44.5892 54.8874C44.6027 54.9895 44.6892 55.0641 44.7872 55.0641C44.7949 55.0641 44.8045 55.0641 44.8141 55.0622C44.9237 55.0484 45.0006 54.9444 44.9871 54.8344C44.7084 52.6527 44.5085 50.4219 44.3144 48.2658C44.1164 46.0527 43.9108 43.7649 43.6186 41.5224C43.6032 41.4104 43.5052 41.3339 43.3937 41.3476C43.2842 41.3633 43.2073 41.4654 43.2227 41.5774C43.5129 43.8121 43.7185 46.0959 43.9165 48.305C44.1087 50.4651 44.3105 52.6979 44.5892 54.8874Z" fill="#767676"/>
<path d="M46.6915 47.0761C47.4488 49.4109 48.231 51.8262 48.8768 54.2375C48.9018 54.3279 48.9806 54.3888 49.069 54.3888C49.0863 54.3888 49.1036 54.3868 49.1209 54.3809C49.2267 54.3514 49.2901 54.2395 49.2613 54.1315C48.6135 51.7083 47.8293 49.2891 47.0701 46.9484C46.4954 45.1752 45.9015 43.3412 45.371 41.5228C45.3403 41.4148 45.2288 41.3539 45.1231 41.3853C45.0174 41.4168 44.9578 41.5307 44.9886 41.6387C45.521 43.4629 46.1168 45.2989 46.6915 47.0761Z" fill="#767676"/>
<path d="M53.8468 52.4705C53.8833 52.5372 53.9506 52.5745 54.0198 52.5745C54.0524 52.5745 54.087 52.5667 54.1178 52.549C54.2139 52.494 54.2485 52.3683 54.1928 52.2721C53.4931 51.0075 52.7935 49.7154 52.117 48.4645C50.8773 46.1728 49.5953 43.8045 48.2633 41.5148C48.2076 41.4186 48.0846 41.3872 47.9904 41.4441C47.8962 41.5011 47.8635 41.6268 47.9212 41.723C49.2512 44.0068 50.5313 46.3731 51.7691 48.6608C52.4476 49.9098 53.1472 51.2039 53.8468 52.4705Z" fill="#767676"/>
<path d="M56.7442 44.3249C56.7827 44.3583 56.8288 44.374 56.875 44.374C56.9307 44.374 56.9864 44.3504 57.0268 44.3033C57.0979 44.2169 57.0883 44.0892 57.0057 44.0166L53.9631 41.3517C53.8804 41.2791 53.7535 41.2889 53.6824 41.3733C53.6113 41.4597 53.6209 41.5874 53.7036 41.6601L56.7442 44.3249Z" fill="#767676"/>
<path d="M59.7203 47.18C59.7587 47.2173 59.8087 47.235 59.8567 47.235C59.9105 47.235 59.9624 47.2134 60.0028 47.1702C60.0778 47.0877 60.0739 46.9581 59.9932 46.8816L59.1936 46.1139C59.1129 46.0373 58.9861 46.0412 58.9111 46.1237C58.8361 46.2061 58.84 46.3357 58.9207 46.4123L59.7203 47.18Z" fill="#767676"/>
<path d="M41.2426 41.3793C41.1349 41.3714 41.035 41.45 41.0254 41.5639C40.7505 44.5075 40.466 47.6985 40.1277 51.6024C40.1181 51.7143 40.1988 51.8144 40.3084 51.8243C40.3142 51.8243 40.3199 51.8243 40.3257 51.8243C40.4276 51.8243 40.516 51.7437 40.5237 51.6377C40.8601 47.7338 41.1445 44.5448 41.4194 41.6012C41.4328 41.4912 41.354 41.391 41.2426 41.3793Z" fill="#767676"/>
<path d="M40.3174 51.9049C40.2117 51.897 40.1098 51.9775 40.1002 52.0895L39.8465 54.866C39.8369 54.9779 39.9176 55.0781 40.0272 55.0879C40.0329 55.0879 40.0406 55.0899 40.0464 55.0899C40.1483 55.0899 40.2347 55.0113 40.2444 54.9053L40.4981 52.1287C40.5077 52.0149 40.427 51.9147 40.3174 51.9049Z" fill="#767676"/>
<path d="M57.1971 50.3083C57.2413 50.3083 57.2855 50.2926 57.322 50.2632C57.4085 50.1925 57.422 50.0648 57.3528 49.9764C55.0752 47.0604 52.8206 44.2012 50.6507 41.4776C50.5815 41.3892 50.4546 41.3774 50.37 41.4481C50.2855 41.5188 50.272 41.6484 50.3412 41.7348C52.5093 44.4585 54.7638 47.3157 57.0395 50.2317C57.0818 50.2828 57.1395 50.3083 57.1971 50.3083Z" fill="#767676"/>
<path d="M59.786 42.7482C59.8533 42.7482 59.9167 42.7148 59.9552 42.6519C60.0128 42.5557 59.9859 42.43 59.8917 42.3711L58.3676 41.397C58.2753 41.3381 58.1504 41.3656 58.0927 41.4618C58.035 41.5581 58.062 41.6837 58.1561 41.7427L59.6803 42.7167C59.713 42.7364 59.7495 42.7482 59.786 42.7482Z" fill="#767676"/>
<path d="M52.9964 22.8183C53.0348 22.8713 53.0944 22.8988 53.154 22.8988C53.1963 22.8988 53.2385 22.8851 53.2751 22.8576L59.1277 18.2763C59.2161 18.2075 59.2315 18.0799 59.1642 17.9896C59.0969 17.9012 58.972 17.8835 58.8836 17.9523L53.031 22.5336C52.9464 22.6003 52.9291 22.7299 52.9964 22.8183Z" fill="#767676"/>
<path d="M50.0936 18.6871C50.0013 18.6262 49.8783 18.6537 49.8168 18.7479L47.4008 22.5908C47.3413 22.685 47.3682 22.8107 47.4604 22.8735C47.4931 22.8951 47.5315 22.9049 47.5681 22.9049C47.6334 22.9049 47.6988 22.8716 47.7353 22.8107L50.1513 18.9679C50.2128 18.8736 50.1859 18.7479 50.0936 18.6871Z" fill="#767676"/>
<path d="M55.1459 11.3072L50.5445 17.7324C50.4792 17.8228 50.4984 17.9504 50.5888 18.0172C50.6234 18.0447 50.6656 18.0564 50.706 18.0564C50.7675 18.0564 50.829 18.027 50.8675 17.972L55.4688 11.5467C55.5342 11.4564 55.515 11.3288 55.4246 11.262C55.3362 11.1972 55.2113 11.2168 55.1459 11.3072Z" fill="#767676"/>
<path d="M48.4722 8.65818C48.4991 8.54821 48.4357 8.43824 48.33 8.40878C48.2243 8.38129 48.1147 8.44609 48.0859 8.55409C47.7764 9.77161 47.4497 11.0009 47.1172 12.2263C47.2421 12.2793 47.3632 12.3421 47.4805 12.4148C47.8187 11.1639 48.1531 9.90515 48.4722 8.65818Z" fill="#767676"/>
<path d="M44.2881 22.6574C44.2592 22.7654 44.3246 22.8774 44.4303 22.9068C44.4476 22.9107 44.4649 22.9127 44.4803 22.9127C44.5687 22.9127 44.6494 22.8518 44.6725 22.7595C44.8493 22.0664 45.0339 21.3693 45.2184 20.6722H44.8051C44.6302 21.3359 44.4572 21.9976 44.2881 22.6574Z" fill="#767676"/>
<path d="M56.7433 15.3957L58.3712 13.6364C58.4462 13.5539 58.4443 13.4263 58.3636 13.3477C58.2828 13.2711 58.1579 13.2751 58.081 13.3556L56.453 15.1149C56.3781 15.1974 56.38 15.325 56.4607 15.4035C56.4992 15.4409 56.5491 15.4585 56.5972 15.4585C56.651 15.4605 56.7048 15.4389 56.7433 15.3957Z" fill="#767676"/>
<path d="M51.801 9.8932C51.6991 9.85196 51.5819 9.90302 51.5415 10.0071C51.357 10.4843 51.1398 10.9418 50.9092 11.4268C50.7439 11.7764 50.5728 12.1377 50.4152 12.5049C50.371 12.609 50.4171 12.7288 50.519 12.7739C50.5459 12.7857 50.5728 12.7916 50.5997 12.7916C50.6766 12.7916 50.7496 12.7464 50.7823 12.6699C50.9361 12.3105 51.1052 11.9531 51.2686 11.6075C51.4915 11.1362 51.7222 10.6512 51.9124 10.1603C51.9528 10.0542 51.9028 9.93443 51.801 9.8932Z" fill="#767676"/>
<path d="M57.7737 22.7851C57.8083 22.8557 57.8794 22.897 57.9525 22.897C57.9832 22.897 58.014 22.8891 58.0428 22.8754L62.8537 20.4052C62.9517 20.3541 62.9921 20.2324 62.9421 20.1322C62.8921 20.0321 62.773 19.9909 62.6749 20.0419L57.8641 22.5121C57.7622 22.5632 57.7238 22.6849 57.7737 22.7851Z" fill="#767676"/>
<path d="M49.7892 22.8717C49.8277 22.9091 49.8757 22.9267 49.9238 22.9267C49.9776 22.9267 50.0314 22.9051 50.0698 22.8619L55.1229 17.2791C55.1978 17.1967 55.192 17.067 55.1113 16.9905C55.0306 16.9139 54.9038 16.9198 54.8288 17.0022L49.7758 22.585C49.7027 22.6656 49.7085 22.7952 49.7892 22.8717Z" fill="#767676"/>
<path d="M45.8508 22.6357C45.8065 22.7398 45.8527 22.8596 45.9546 22.9047C45.9815 22.9165 46.0084 22.9224 46.0353 22.9224C46.1122 22.9224 46.1852 22.8773 46.2179 22.8007C46.5677 21.9837 46.9387 21.1746 47.3116 20.3734C47.1405 20.4637 46.9579 20.5364 46.7695 20.5875C46.4562 21.263 46.1468 21.9464 45.8508 22.6357Z" fill="#767676"/>
<path d="M50.309 13.7167C50.3494 13.6126 50.2994 13.4928 50.1975 13.4516C50.0956 13.4104 49.9784 13.4614 49.938 13.5655C49.6151 14.3961 49.2576 15.2286 48.8848 16.0553V17.0214C49.3883 15.9296 49.8785 14.8242 50.309 13.7167Z" fill="#767676"/>
<path d="M39.7505 7.69991C39.739 7.58799 39.641 7.50944 39.5295 7.51926C39.42 7.53104 39.3412 7.63315 39.3527 7.74507C39.5084 9.15891 39.6525 10.6042 39.7928 12.018H40.1945C40.0542 10.5924 39.9081 9.12946 39.7505 7.69991Z" fill="#767676"/>
<path d="M41.017 22.7262C41.0323 22.8283 41.1169 22.899 41.2149 22.899C41.2245 22.899 41.2341 22.899 41.2457 22.897C41.3552 22.8813 41.4302 22.7772 41.4129 22.6653C41.3168 22.0074 41.2265 21.3417 41.14 20.674H40.7363C40.8247 21.3613 40.917 22.0467 41.017 22.7262Z" fill="#767676"/>
<path d="M39.3614 22.6691C39.3883 22.7575 39.4671 22.8125 39.5517 22.8125C39.5709 22.8125 39.5901 22.8105 39.6113 22.8027C39.717 22.7693 39.7766 22.6554 39.7439 22.5474L39.1788 20.6722H38.7617L39.3614 22.6691Z" fill="#767676"/>
<path d="M36.1536 11.539C36.1729 11.539 36.1921 11.537 36.2132 11.5292C36.3189 11.4958 36.3785 11.3819 36.3458 11.2739L35.4617 8.34015C35.4291 8.23215 35.3195 8.17324 35.2119 8.20466C35.1062 8.23804 35.0466 8.35193 35.0793 8.45993L35.9634 11.3937C35.9903 11.482 36.0691 11.539 36.1536 11.539Z" fill="#767676"/>
<path d="M37.1609 22.7929C37.1975 22.8597 37.2647 22.897 37.3358 22.897C37.3685 22.897 37.4012 22.8891 37.4339 22.8715C37.53 22.8165 37.5646 22.6928 37.5107 22.5946C37.159 21.9485 36.8092 21.3083 36.4594 20.674H36.002C36.3844 21.3731 36.7708 22.0781 37.1609 22.7929Z" fill="#767676"/>
<path d="M33.0596 14.5829C32.1851 13.0413 31.3279 11.5488 30.4899 10.1113C30.4341 10.0151 30.3111 9.98369 30.217 10.0406C30.1228 10.0976 30.0901 10.2233 30.1478 10.3195C31.0819 11.922 32.041 13.5971 33.0212 15.3311V15.0738C33.0212 14.9069 33.0366 14.7439 33.0596 14.5829Z" fill="#767676"/>
<path d="M27.3152 18.2822C27.2441 18.3686 27.2537 18.4962 27.3364 18.5689L32.2395 22.8636C32.2779 22.897 32.324 22.9127 32.3702 22.9127C32.4259 22.9127 32.4816 22.8891 32.522 22.842C32.5931 22.7556 32.5835 22.628 32.5009 22.5553L27.5978 18.2606C27.5132 18.186 27.3864 18.1958 27.3152 18.2822Z" fill="#767676"/>
<path d="M23.6819 14.557C23.6012 14.4805 23.4743 14.4844 23.3994 14.5669C23.3244 14.6494 23.3283 14.779 23.409 14.8555L25.9538 17.2965C25.9922 17.3338 26.0422 17.3515 26.0902 17.3515C26.144 17.3515 26.1959 17.3299 26.2363 17.2867C26.3113 17.2042 26.3074 17.0746 26.2267 16.998L23.6819 14.557Z" fill="#767676"/>
<path d="M19.9149 21.2002C19.813 21.1551 19.6957 21.2022 19.6515 21.3063C19.6073 21.4104 19.6535 21.5302 19.7553 21.5753L22.7883 22.9205C22.8133 22.9323 22.8402 22.9382 22.8671 22.9382C22.944 22.9382 23.017 22.893 23.0497 22.8145C23.0939 22.7104 23.0478 22.5906 22.9459 22.5454L19.9149 21.2002Z" fill="#767676"/>
<path d="M42.7071 22.6927C42.6917 22.8047 42.7667 22.9068 42.8762 22.9225C42.8858 22.9245 42.8954 22.9245 42.905 22.9245C43.003 22.9245 43.0876 22.8518 43.103 22.7497C43.1991 22.0585 43.274 21.3653 43.3394 20.6722H42.9377C42.8743 21.3477 42.7993 22.0231 42.7071 22.6927Z" fill="#767676"/>
<path d="M44.3135 7.49784C44.2078 7.48999 44.1059 7.5705 44.0963 7.68242L43.8426 10.4588C43.833 10.5707 43.9137 10.6708 44.0233 10.6806C44.029 10.6806 44.0367 10.6806 44.0425 10.6806C44.1444 10.6806 44.2308 10.6021 44.2405 10.4961L44.4942 7.71971C44.5038 7.60779 44.4231 7.50766 44.3135 7.49784Z" fill="#767676"/>
<path d="M27.0145 11.9867L26.8204 11.7393C26.7512 11.6509 26.6263 11.6372 26.5398 11.7079C26.4533 11.7786 26.4398 11.9062 26.509 11.9946L26.7031 12.242C27.0203 12.6445 27.3489 13.0609 27.6757 13.4575C27.716 13.5047 27.7718 13.5302 27.8294 13.5302C27.8756 13.5302 27.9198 13.5145 27.9582 13.4831C28.0428 13.4104 28.0543 13.2828 27.9832 13.1964C27.6584 12.8016 27.3316 12.3873 27.0145 11.9867Z" fill="#767676"/>
<path d="M35.1699 22.8477C35.2102 22.8948 35.266 22.9203 35.3236 22.9203C35.3697 22.9203 35.414 22.9046 35.4524 22.8732C35.537 22.8005 35.5485 22.6729 35.4774 22.5865C33.8975 20.664 32.3041 18.6454 30.7626 16.6935L29.8458 15.533C29.7766 15.4446 29.6517 15.4309 29.5652 15.5016C29.4787 15.5722 29.4652 15.6999 29.5344 15.7883L30.4512 16.9488C31.9927 18.9007 33.5861 20.9213 35.1699 22.8477Z" fill="#767676"/>
<path d="M24.3818 19.9338C24.3241 20.0301 24.351 20.1557 24.4452 20.2146L28.6506 22.8986C28.6833 22.9202 28.7198 22.93 28.7563 22.93C28.8236 22.93 28.887 22.8967 28.9255 22.8338C28.9831 22.7376 28.9562 22.612 28.862 22.5531L24.6585 19.8691C24.5644 19.8102 24.4414 19.8376 24.3818 19.9338Z" fill="#767676"/>
<path d="M3.32885 28.7528C3.36729 28.5937 3.54411 28.3522 3.91314 28.1656C4.33022 27.9103 4.91644 27.769 5.56032 27.769C5.71793 27.769 5.87746 27.7768 6.03315 27.7945C7.22096 27.9025 8.07243 28.4641 8.35497 28.9315L8.38764 28.9786L11.0842 27.1661L11.0708 27.1465C10.1521 25.6992 8.38186 24.7173 6.33874 24.519C6.0908 24.4994 5.83326 24.4797 5.57955 24.4797C4.4148 24.4797 3.3077 24.7527 2.37744 25.2672C1.07238 25.982 0.249747 27.1523 0.117127 28.4759C-0.130815 31.1465 2.00841 33.177 5.43923 33.5305C6.41947 33.6287 7.12871 33.8623 7.55924 34.2354C7.87061 34.5536 7.8706 34.854 7.85331 34.9817C7.83793 35.1839 7.60536 35.4431 7.2767 35.6218C6.8404 35.8614 6.25803 35.9949 5.63913 35.9949C5.48153 35.9949 5.32007 35.9871 5.16438 35.9694C3.99579 35.8634 3.12896 35.3037 2.81567 34.8206L2.79836 34.7912L0.0979112 36.5762L0.126746 36.6174C1.04548 38.0647 2.81566 39.0465 4.8607 39.2449C5.09711 39.2645 5.35082 39.2842 5.61798 39.2842C6.75967 39.2842 7.88983 39.0112 8.79703 38.5183C10.1213 37.7721 10.9459 36.6037 11.0593 35.3076C11.3072 32.5702 9.22564 30.5869 5.75637 30.253C4.88185 30.1549 3.24812 29.7248 3.325 28.7842L3.32692 28.7685L3.32885 28.7528ZM2.86372 30.5888C3.50952 31.1249 4.46861 31.4686 5.63721 31.5844C7.76682 31.7965 9.96947 32.8471 9.75612 35.1623C9.67348 36.0126 9.118 36.7804 8.18966 37.3224C7.47851 37.7171 6.56555 37.9331 5.61991 37.9331C5.40079 37.9331 5.19322 37.9331 4.98564 37.9115C3.99579 37.8055 3.06937 37.4854 2.37936 37.0082L2.14296 36.8452L2.66382 36.4898L2.76954 36.5585C3.38075 36.9572 4.18992 37.2183 5.04714 37.2988C5.22397 37.3185 5.41233 37.3381 5.62183 37.3381C6.4483 37.3381 7.26325 37.1437 7.9052 36.7961C8.66825 36.3484 9.1084 35.7613 9.17759 35.1054C9.23333 34.4515 8.97193 33.7779 8.46451 33.2595C7.84946 32.6704 6.89998 32.3149 5.56417 32.1775C4.01886 32.0341 2.73302 31.4588 2.0334 30.6006C1.57211 30.0331 1.37414 29.3615 1.44333 28.6055C1.50676 27.7532 2.07761 26.9717 3.00787 26.4631C3.71902 26.0487 4.60892 25.8288 5.58339 25.8288C5.8025 25.8288 6.01009 25.8288 6.21767 25.8504C7.18637 25.9564 8.11087 26.2765 8.82202 26.7537L9.07764 26.9246L8.51641 27.2702L8.41646 27.2054C7.79949 26.8126 6.998 26.5416 6.15807 26.4434C5.96971 26.4238 5.78135 26.4238 5.58146 26.4238C4.68003 26.4238 3.892 26.6182 3.28848 26.9894C2.52735 27.388 2.07761 27.9791 2.02379 28.6566C1.94883 29.4047 2.24098 30.0724 2.86372 30.5888Z" fill="#767676"/>
<path d="M16.3215 39.2821H19.6255V27.8749H23.1947V24.4777H12.7695V27.8749H16.3196V39.2821H16.3215ZM14.113 26.4846V25.8896H21.8358V26.4846H18.2666V37.8918H17.6842V26.4846H14.113Z" fill="#767676"/>
<path d="M27.1816 34.8441H32.8728L30.1454 27.166L27.1816 34.8441ZM28.4598 33.9408L30.1224 29.6835L31.6158 33.9408H28.4598Z" fill="#767676"/>
<path d="M31.246 24.4777H29.0933L23.3945 39.2821H26.9291L27.8805 36.8294H32.1532L33.0066 39.2821H36.5239L31.246 24.4777ZM33.0911 35.4391H26.9503L25.9989 37.8918H25.3665L30.0197 25.8483H30.3042L34.5884 37.8918H33.9618L33.0911 35.4391Z" fill="#767676"/>
<path d="M43.2504 39.2821V27.8749H46.8196V24.4777H36.3945V27.8749H39.9445V39.2821H43.2504ZM37.7361 26.4846V25.8896H45.4588V26.4846H41.8896V37.8918H41.3072V26.4846H37.7361Z" fill="#767676"/>
<path d="M48.709 39.2821H51.9937V24.4777H48.709V39.2821ZM50.0506 25.8483H50.6522V37.9134H50.0506V25.8483Z" fill="#767676"/>
<path d="M68.32 31.8594C68.32 27.7769 65.0602 24.4583 61.0547 24.4583C57.0588 24.4583 53.8086 27.7789 53.8086 31.8594C53.8086 35.9517 57.0588 39.2821 61.0547 39.2821C65.0602 39.2821 68.32 35.9536 68.32 31.8594ZM55.1502 31.8594C55.1502 28.5329 57.7987 25.827 61.0547 25.827C64.3202 25.827 66.9784 28.5329 66.9784 31.8594C66.9784 35.1976 64.3202 37.9114 61.0547 37.9114C57.7987 37.9114 55.1502 35.1976 55.1502 31.8594Z" fill="#767676"/>
<path d="M66.4128 31.8592C66.4128 28.8508 64.0084 26.4021 61.0523 26.4021C58.1077 26.4021 55.7109 28.8508 55.7109 31.8592C55.7109 34.8793 58.1077 37.3359 61.0523 37.3359C64.0084 37.3378 66.4128 34.8793 66.4128 31.8592ZM61.0523 36.4522C58.5844 36.4522 56.5759 34.3923 56.5759 31.8592C56.5759 29.3378 58.5844 27.2858 61.0523 27.2858C63.5317 27.2858 65.5479 29.3378 65.5479 31.8592C65.5479 34.3923 63.5317 36.4522 61.0523 36.4522Z" fill="#767676"/>
<path d="M79.2345 24.4583V32.529L73.2935 24.4583H70.5469V39.2821H73.8509V30.8481L80.0879 39.2821H82.5577V24.4583H79.2345ZM81.1796 37.8722H80.7529L72.5131 26.7126V37.8722H71.9115V25.8486H72.6169L80.5991 36.6645V25.8486H81.1815V37.8722H81.1796Z" fill="#767676"/>
<path d="M17.7677 43.4825L17.6351 43.1998C17.6082 43.1428 17.5447 43.1192 17.489 43.1467L16.5472 43.6102L16.3281 43.1448L17.2699 42.6813C17.3256 42.6538 17.3468 42.589 17.3218 42.5321L17.1892 42.2493C17.1622 42.1924 17.0988 42.1688 17.0431 42.1963L14.4713 43.4629C14.4156 43.4904 14.3925 43.5552 14.4194 43.6121L14.5521 43.8949C14.579 43.9519 14.6424 43.9754 14.6981 43.9479L15.8802 43.3667L16.0993 43.8321L14.9172 44.4133C14.8615 44.4408 14.8404 44.5056 14.8654 44.5626L14.998 44.8454C15.023 44.8984 15.0883 44.9259 15.1441 44.8984L17.7158 43.6318C17.7715 43.6043 17.7908 43.5336 17.7677 43.4825Z" fill="#767676"/>
<path d="M18.2775 44.4368L18.1276 44.1618C18.0968 44.1068 18.0276 44.0892 17.9738 44.1206L15.4847 45.5385C15.4309 45.5699 15.4117 45.6367 15.4424 45.6917L15.5923 45.9666C15.6231 46.0216 15.6884 46.0412 15.7423 46.0098L18.2314 44.5919C18.2852 44.5605 18.3063 44.4918 18.2775 44.4368Z" fill="#767676"/>
<path d="M18.3679 47.0603C18.4198 47.0269 18.4351 46.9582 18.4005 46.9051L18.0738 46.3828C18.0411 46.3298 17.9739 46.3141 17.922 46.3494L17.6932 46.4986C17.6414 46.532 17.6221 46.6027 17.6567 46.6557L17.7586 46.8187L17.084 47.2586C17.0321 47.292 16.9629 47.2743 16.9302 47.2213L16.7534 46.9385C16.7226 46.8894 16.7342 46.8168 16.7861 46.7834L18.341 45.7701C18.389 45.7387 18.4621 45.7544 18.4928 45.8035L18.6696 46.0863C18.7023 46.1393 18.6869 46.2139 18.6389 46.2453L18.4909 46.3416C18.439 46.3749 18.4236 46.4437 18.4582 46.4967L18.6235 46.7618C18.6562 46.8148 18.7234 46.8305 18.7753 46.7952L18.9637 46.6715C19.227 46.5006 19.3001 46.1432 19.1348 45.8781L18.8753 45.4618C18.7081 45.1928 18.3621 45.1162 18.0988 45.287L16.4555 46.3592C16.196 46.5281 16.1191 46.8875 16.2844 47.1526L16.5439 47.5689C16.7092 47.834 17.0609 47.9125 17.3204 47.7436L18.3679 47.0603Z" fill="#767676"/>
<path d="M20.5769 47.9362L20.3924 47.6848C20.3558 47.6338 20.2886 47.6259 20.2386 47.6632L19.4044 48.3073L19.1007 47.8949L19.9349 47.2509C19.983 47.2136 19.9926 47.1448 19.956 47.0938L19.7715 46.8425C19.735 46.7914 19.6677 46.7836 19.6178 46.8209L17.3382 48.5782C17.2902 48.6155 17.2806 48.6843 17.3171 48.7353L17.5016 48.9867C17.5381 49.0377 17.6054 49.0475 17.6554 49.0082L18.7029 48.2012L19.0066 48.6136L17.9591 49.4226C17.9091 49.4599 17.9014 49.5306 17.9379 49.5796L18.1224 49.831C18.157 49.8781 18.2262 49.8919 18.2762 49.8526L20.5557 48.0952C20.6057 48.0559 20.6115 47.9833 20.5769 47.9362Z" fill="#767676"/>
<path d="M21.3291 52.0346L22.4151 50.9565C22.6611 50.713 22.6669 50.3124 22.4285 50.0611L22.171 49.7901C21.9327 49.5387 21.5406 49.5328 21.2945 49.7763L19.9741 51.0861C19.7319 51.3277 19.7262 51.7263 19.9645 51.9777L20.5699 52.6139C20.6122 52.6591 20.6833 52.663 20.7275 52.6198L20.9332 52.4176C20.9774 52.3744 20.9755 52.3017 20.939 52.2624L20.816 52.1328C20.987 52.2035 21.1908 52.1721 21.3291 52.0346ZM20.6487 51.958L20.3431 51.636C20.3009 51.5908 20.3009 51.5142 20.3412 51.4749L21.6617 50.1651C21.7059 50.1219 21.7808 50.1219 21.8231 50.1671L22.0499 50.4047C22.0922 50.4499 22.0922 50.5265 22.048 50.5697L20.6487 51.958Z" fill="#767676"/>
<path d="M24.3536 51.885L24.123 51.6769C24.0769 51.6356 24.0057 51.6435 23.9654 51.6906L22.4182 53.4914C22.3778 53.5385 22.3067 53.5405 22.2605 53.4992L22.0164 53.2793C21.9703 53.2381 21.9626 53.1654 22.003 53.1183L23.5502 51.3195C23.5906 51.2723 23.5887 51.1997 23.5425 51.1584L23.3119 50.9503C23.2658 50.909 23.1947 50.9169 23.1543 50.964L21.5725 52.8041C21.3687 53.0397 21.3918 53.407 21.6244 53.6151L21.9876 53.9411C22.2183 54.1493 22.5777 54.1237 22.7814 53.8881L24.3632 52.048C24.3998 51.9989 24.3998 51.9263 24.3536 51.885Z" fill="#767676"/>
<path d="M25.6874 52.9416L25.1608 52.537C25.1146 52.5017 25.0531 52.5056 25.0108 52.5469L23.2522 54.2947C23.233 54.3143 23.2253 54.3241 23.2137 54.3379L22.9812 54.654C22.9447 54.7051 22.9543 54.7738 23.0023 54.8111L23.2483 54.9997C23.2983 55.037 23.3656 55.0271 23.4021 54.9781L23.6423 54.6521L24.1132 55.0134L23.873 55.3394C23.8365 55.3904 23.8461 55.4592 23.8922 55.4945L24.1421 55.685C24.192 55.7223 24.2593 55.7125 24.2958 55.6634L24.5284 55.3473C24.5399 55.3335 24.5476 55.3217 24.5592 55.2982L25.7162 53.0889C25.7393 53.0437 25.7335 52.9769 25.6874 52.9416ZM24.365 54.5696L23.9922 54.2829L25.1089 53.1596L24.365 54.5696Z" fill="#767676"/>
<path d="M25.9937 56.3269L25.4787 55.9832L26.8221 53.8724C26.8548 53.8194 26.8414 53.7506 26.7895 53.7173L26.5319 53.5464C26.48 53.513 26.4127 53.5268 26.3801 53.5798L24.8233 56.0264C24.7887 56.0795 24.804 56.1482 24.8559 56.1816L25.7208 56.7569C25.7727 56.7903 25.84 56.7765 25.8727 56.7235L26.0264 56.482C26.0591 56.429 26.0456 56.3603 25.9937 56.3269Z" fill="#767676"/>
<path d="M28.2314 54.6244L27.9661 54.4673C27.9123 54.4359 27.8451 54.4575 27.8143 54.5124L26.3863 57.0317C26.3555 57.0867 26.3728 57.1535 26.4266 57.1849L26.6919 57.342C26.7457 57.3734 26.811 57.3557 26.8418 57.3008L28.2698 54.7815C28.2986 54.7265 28.2833 54.6558 28.2314 54.6244Z" fill="#767676"/>
<path d="M29.8612 55.964L29.9919 55.7008C30.0188 55.6439 29.9938 55.5771 29.9439 55.5496L28.8041 54.9586C28.7503 54.9291 28.6849 54.9527 28.6561 55.0077L28.5254 55.2708C28.4985 55.3277 28.5196 55.3925 28.5735 55.422L28.906 55.5948L27.795 57.8314C27.7662 57.8864 27.7931 57.9551 27.8431 57.9826L28.1179 58.124C28.1737 58.1515 28.2371 58.1299 28.2659 58.0749L29.3769 55.8383L29.7132 56.0131C29.7651 56.0386 29.8343 56.0189 29.8612 55.964Z" fill="#767676"/>
<path d="M31.6759 56.9221L31.8451 56.5116C31.8681 56.4547 31.8431 56.3899 31.7855 56.3644L31.5029 56.2426C31.4453 56.219 31.3838 56.2446 31.3588 56.3035L31.23 56.6177C31.2165 56.6511 31.1954 56.6805 31.1704 56.7041L30.6495 57.1715L30.6111 56.4645C30.6072 56.4292 30.613 56.3918 30.6265 56.3585L30.7552 56.0443C30.7783 55.9853 30.7533 55.9225 30.6957 55.897L30.4112 55.7752C30.3535 55.7517 30.292 55.7772 30.267 55.8341L30.0979 56.2446C30.0787 56.2897 30.0729 56.3408 30.071 56.3899L30.146 57.6919L29.7058 58.7601C29.6827 58.819 29.7077 58.8819 29.7654 58.9074L30.0479 59.0292C30.1056 59.0527 30.1671 59.0272 30.1921 58.9683L30.6303 57.9L31.5894 57.0418C31.6298 57.0085 31.6567 56.9672 31.6759 56.9221Z" fill="#767676"/>
<path d="M31.8016 59.1527L31.5248 59.0526C31.4671 59.031 31.4075 59.0585 31.3864 59.1174L31.2865 59.4041C31.2653 59.463 31.2961 59.5219 31.3556 59.5435L31.4344 59.573L31.3499 59.6555C31.3307 59.6732 31.3134 59.6948 31.3037 59.7203L31.2768 59.8008C31.2653 59.8342 31.2845 59.8754 31.3134 59.8853L31.4537 59.9363C31.4825 59.9461 31.5209 59.9285 31.5344 59.8931L31.5421 59.8715C31.5498 59.8499 31.569 59.8342 31.5767 59.8263L31.7035 59.7006C31.7189 59.683 31.7304 59.6633 31.7381 59.6417L31.8612 59.2863C31.8784 59.2273 31.8515 59.1704 31.8016 59.1527Z" fill="#767676"/>
<path d="M34.8688 60.066L34.273 59.9148L34.8688 57.472C34.8842 57.4111 34.8477 57.3503 34.7881 57.3365L34.4902 57.2599C34.4306 57.2442 34.3729 57.2815 34.3576 57.3424L33.6676 60.174C33.6522 60.2349 33.6887 60.2938 33.7483 60.3095L34.7496 60.5648C34.8092 60.5805 34.8669 60.5432 34.8823 60.4823L34.9495 60.2035C34.963 60.1407 34.9284 60.0817 34.8688 60.066Z" fill="#767676"/>
<path d="M37.0319 57.8175L36.5571 57.733C36.2496 57.6781 35.9594 57.8921 35.9056 58.2044L35.5731 60.1622C35.5193 60.4764 35.723 60.771 36.0305 60.826L36.5052 60.9104C36.8089 60.9634 37.1011 60.7572 37.1549 60.443L37.4874 58.4852C37.5412 58.171 37.3336 57.8705 37.0319 57.8175ZM36.6456 60.2938C36.6359 60.3566 36.5744 60.3998 36.5129 60.388L36.192 60.3311C36.1304 60.3213 36.0882 60.2584 36.0997 60.1956L36.4149 58.3399C36.4264 58.277 36.486 58.2436 36.5456 58.2534L36.8666 58.3104C36.9281 58.3202 36.9723 58.3752 36.9608 58.4361L36.6456 60.2938Z" fill="#767676"/>
<path d="M40.2217 58.1708L39.8373 58.1374C39.797 58.1335 39.7643 58.1629 39.7624 58.2022L39.7316 58.591C39.7297 58.6225 39.7278 58.6401 39.7201 58.6755L39.501 59.8008L39.3741 58.161C39.3684 58.1236 39.3395 58.0942 39.3049 58.0922L38.9724 58.0647C38.9378 58.0608 38.9051 58.0863 38.8975 58.1217L38.5092 59.7183L38.4688 58.5714C38.4669 58.536 38.4688 58.5184 38.4708 58.487L38.5015 58.0981C38.5054 58.0588 38.4765 58.0235 38.4381 58.0215L38.0537 57.9881C38.0152 57.9842 37.9806 58.0137 37.9787 58.0529L37.9441 58.483C37.9422 58.5046 37.9403 58.5321 37.9422 58.5734L38.0864 61.0439C38.0902 61.1028 38.1306 61.146 38.1882 61.1519L38.5303 61.1813C38.5822 61.1852 38.6341 61.1499 38.6437 61.091L39.0474 59.2568L39.1512 61.1342C39.155 61.1931 39.1954 61.2363 39.253 61.2422L39.5894 61.2717C39.647 61.2756 39.6932 61.2402 39.7066 61.1833L40.2448 58.7697C40.2525 58.7305 40.2544 58.703 40.2563 58.6814L40.2909 58.2513C40.289 58.2081 40.2602 58.1747 40.2217 58.1708Z" fill="#767676"/>
<path d="M42.7461 58.1336L41.9907 58.1709C41.9292 58.1748 41.8831 58.2259 41.8869 58.2887L42.0273 61.2028C42.0311 61.2656 42.0811 61.3127 42.1426 61.3088L42.4501 61.2931C42.5116 61.2892 42.5577 61.2381 42.5539 61.1753L42.4905 59.8714L42.8287 59.8538C43.2112 59.8341 43.5111 59.4964 43.4919 59.1017L43.4784 58.815C43.4592 58.4203 43.1267 58.1139 42.7461 58.1336ZM42.8018 59.3118L42.4636 59.3294L42.4309 58.6657L42.7692 58.6481C42.8653 58.6441 42.9441 58.7207 42.9479 58.8189L42.9633 59.1272C42.9691 59.2234 42.8979 59.3059 42.8018 59.3118Z" fill="#767676"/>
<path d="M45.6769 60.274L45.1925 59.575C45.4328 59.4356 45.5846 59.1548 45.5462 58.8524L45.5116 58.5716C45.4635 58.1789 45.1156 57.8981 44.7312 57.9472L43.9778 58.0434C43.9201 58.0513 43.874 58.1063 43.8817 58.1691L44.2334 61.0633C44.2411 61.1261 44.2988 61.1674 44.3564 61.1615L44.662 61.1222C44.7235 61.1144 44.7658 61.0594 44.7581 60.9966L44.5928 59.6476L45.1675 60.4703C45.1964 60.5214 45.2098 60.5685 45.2156 60.6176L45.254 60.9298C45.2617 60.9926 45.3194 61.0339 45.3809 61.026L45.6865 60.9867C45.748 60.9789 45.7845 60.9239 45.7768 60.863L45.723 60.4173C45.7191 60.3682 45.7038 60.3152 45.6769 60.274ZM44.8773 59.1234L44.5371 59.1666L44.4564 58.5029L44.7966 58.4597C44.8888 58.4479 44.9753 58.5127 44.9869 58.6109L45.0234 58.9192C45.0368 59.0213 44.9696 59.1116 44.8773 59.1234Z" fill="#767676"/>
<path d="M46.2849 57.6958L45.9831 57.7527C45.9235 57.7645 45.885 57.8254 45.8966 57.8882L46.4117 60.7533C46.4233 60.8162 46.479 60.8554 46.5405 60.8437L46.8423 60.7867C46.9019 60.7749 46.9423 60.718 46.9307 60.6571L46.4156 57.792C46.404 57.7292 46.3464 57.684 46.2849 57.6958Z" fill="#767676"/>
<path d="M48.8631 58.9467C48.8478 58.8858 48.7882 58.8446 48.7286 58.8603L48.4307 58.9349C48.3711 58.9506 48.3365 59.0134 48.3519 59.0743L48.5152 59.7596C48.5306 59.8205 48.4902 59.8814 48.4345 59.8951L48.1135 59.9756C48.0539 59.9913 47.9905 59.956 47.9771 59.8951L47.5388 58.065C47.5235 58.0041 47.5638 57.9432 47.6234 57.9275L47.9444 57.847C48.0001 57.8333 48.0616 57.8686 48.077 57.9295L48.1808 58.3615C48.1962 58.4224 48.2558 58.4636 48.3153 58.4479L48.6133 58.3733C48.6728 58.3576 48.7074 58.2947 48.6921 58.2339L48.5767 57.7547C48.5018 57.4445 48.2 57.2579 47.8963 57.3325L47.4273 57.4503C47.1237 57.5269 46.9411 57.8352 47.0141 58.1455L47.4773 60.0817C47.5504 60.386 47.8579 60.5785 48.1577 60.5039L48.6267 60.386C48.9304 60.3095 49.113 59.9972 49.04 59.6909L48.8631 58.9467Z" fill="#767676"/>
<path d="M50.913 59.2745C50.8938 59.2155 50.8342 59.1822 50.7746 59.2018L50.1941 59.3923L49.9116 58.4909L50.2787 58.3692C50.3364 58.3496 50.3691 58.2887 50.3498 58.2278L50.2672 57.9627C50.248 57.9038 50.1884 57.8704 50.1288 57.8901L49.7617 58.0098L49.5618 57.3736L50.1422 57.1831C50.1999 57.1635 50.2326 57.1026 50.2134 57.0417L50.1269 56.7688C50.1076 56.7099 50.0481 56.6765 49.9885 56.6961L49.0063 57.0182C48.9487 57.0378 48.916 57.0987 48.9352 57.1596L49.8078 59.9362C49.827 59.9951 49.8866 60.0285 49.9462 60.0089L50.9284 59.6868C50.986 59.6672 51.0187 59.6063 50.9995 59.5454L50.913 59.2745Z" fill="#767676"/>
<path d="M52.1085 59.2783C52.1085 59.2547 52.1046 59.2312 52.0969 59.2115L51.9662 58.8601C51.9451 58.8012 51.8874 58.7757 51.8394 58.7953L51.5645 58.9013C51.5068 58.9229 51.478 58.9838 51.4991 59.0427L51.6048 59.3274C51.626 59.3863 51.6875 59.4099 51.7452 59.3883L51.824 59.3588L51.8124 59.4786C51.8086 59.5041 51.8086 59.5316 51.8182 59.5571L51.847 59.6376C51.8586 59.671 51.8989 59.6887 51.9278 59.6788L52.0681 59.6239C52.0969 59.6121 52.1142 59.5728 52.1027 59.5394L52.095 59.5178C52.0873 59.4962 52.0912 59.4707 52.0931 59.4609L52.1085 59.2783Z" fill="#767676"/>
<path d="M54.8847 56.5725C54.802 56.4036 54.6637 56.2838 54.5003 56.223C54.5214 56.0855 54.4984 55.9481 54.433 55.8165L54.3042 55.5553C54.1312 55.2019 53.7103 55.0565 53.3643 55.2352L52.682 55.5867C52.6263 55.6142 52.6051 55.681 52.634 55.7379L53.9179 58.3437C53.9448 58.4007 54.0102 58.4223 54.0659 58.3928L54.8117 58.0099C55.1576 57.8332 55.2941 57.4012 55.1192 57.0477L54.8847 56.5725ZM53.2817 55.8538L53.5911 55.6947C53.6738 55.6515 53.7795 55.6888 53.8237 55.7752L53.9602 56.0521C54.0025 56.1366 53.966 56.2446 53.8833 56.2878L53.5738 56.4468L53.2817 55.8538ZM54.581 57.5426L54.2081 57.735L53.7968 56.9004L54.1697 56.708C54.2523 56.6648 54.358 56.7021 54.4023 56.7905L54.6521 57.2991C54.6983 57.3914 54.6637 57.4994 54.581 57.5426Z" fill="#767676"/>
<path d="M56.9179 56.333C56.8871 56.28 56.8199 56.2623 56.768 56.2937L56.2452 56.6138L55.7685 55.8008L56.101 55.5985C56.1529 55.5671 56.1702 55.4984 56.1395 55.4454L55.9992 55.2058C55.9665 55.1528 55.9011 55.1351 55.8492 55.1665L55.5167 55.3688L55.1804 54.7954L55.7051 54.4753C55.757 54.4439 55.7743 54.3751 55.7435 54.3221L55.5994 54.0766C55.5686 54.0236 55.5014 54.0059 55.4495 54.0374L54.5634 54.5793C54.5115 54.6108 54.4942 54.6795 54.525 54.7325L55.9915 57.2344C56.0222 57.2874 56.0895 57.3051 56.1414 57.2736L57.0274 56.7316C57.0793 56.7002 57.0966 56.6315 57.0659 56.5785L56.9179 56.333Z" fill="#767676"/>
<path d="M58.2722 54.3356C58.0473 54.0076 57.6129 53.931 57.2939 54.1588L57.1285 54.2767C57.0478 54.3297 56.9402 54.314 56.8844 54.2335L56.7307 54.0096C56.6749 53.9291 56.698 53.8191 56.7768 53.7641L56.9421 53.6463C57.0209 53.5893 57.1286 53.605 57.1843 53.6875L57.2381 53.7641C57.2727 53.8152 57.34 53.827 57.3919 53.7916L57.6437 53.6109C57.6936 53.5756 57.7052 53.5069 57.6706 53.4538L57.6283 53.391C57.4073 53.067 56.969 52.9864 56.6499 53.2142L56.4847 53.3321C56.1675 53.5579 56.0906 54.0096 56.3117 54.3317L56.4558 54.5418C56.6769 54.8658 57.1132 54.9365 57.4322 54.7146L57.5975 54.5968C57.6763 54.5398 57.784 54.5575 57.8397 54.638L58.1665 55.1152C58.2222 55.1958 58.203 55.3077 58.1242 55.3646L57.9589 55.4825C57.8801 55.5394 57.7705 55.5198 57.7148 55.4393L57.4957 55.1192C57.4611 55.0681 57.3938 55.0563 57.3419 55.0917L57.0901 55.2723C57.0401 55.3077 57.0286 55.3764 57.0632 55.4294L57.2708 55.7299C57.4918 56.0539 57.9339 56.1325 58.2491 55.9067L58.4144 55.7888C58.7316 55.563 58.8085 55.1113 58.5874 54.7892L58.2722 54.3356Z" fill="#767676"/>
<path d="M58.6139 52.3289L58.9061 52.0854C58.9503 52.0481 58.9599 51.9754 58.9215 51.9283L58.7389 51.6985C58.7004 51.6494 58.6293 51.6455 58.5851 51.6828L57.5953 52.5076C57.5472 52.5469 57.5415 52.6176 57.5799 52.6647L57.7625 52.8944C57.8009 52.9435 57.8701 52.9494 57.9163 52.9102L58.2046 52.6686L59.7556 54.6108C59.794 54.6599 59.8652 54.6638 59.9094 54.6265L60.1477 54.4281C60.1957 54.3889 60.2015 54.3182 60.1631 54.271L58.6139 52.3289Z" fill="#767676"/>
<path d="M62.201 50.6145C62.1568 50.5713 62.0857 50.5693 62.0434 50.6145L61.83 50.8403C61.7878 50.8855 61.7916 50.9582 61.8358 51.0014L62.3317 51.4923C62.3759 51.5355 62.374 51.6101 62.3336 51.6514L62.1049 51.8929C62.0626 51.9381 61.9915 51.942 61.9473 51.8988L60.6211 50.587C60.5769 50.5438 60.5788 50.4692 60.6211 50.426L60.8498 50.1845C60.8902 50.1432 60.9613 50.1373 61.0055 50.1825L61.3188 50.4908C61.363 50.534 61.4341 50.536 61.4764 50.4908L61.6897 50.265C61.732 50.2198 61.7282 50.1472 61.684 50.1039L61.3361 49.7603C61.1112 49.5384 60.7576 49.5443 60.5404 49.774L60.204 50.1295C59.9869 50.3592 59.9926 50.7206 60.2175 50.9425L61.6186 52.3289C61.8397 52.5468 62.1991 52.5409 62.4143 52.3151L62.7507 51.9597C62.9679 51.7299 62.9583 51.3666 62.7372 51.1467L62.201 50.6145Z" fill="#767676"/>
<path d="M62.3195 47.8498C62.2714 47.8106 62.2022 47.8204 62.1657 47.8655L61.9697 48.1071C61.9312 48.1562 61.937 48.2249 61.985 48.2662L62.7904 48.9476L62.4675 49.3442L61.6621 48.6628C61.6141 48.6235 61.5468 48.6294 61.5064 48.6785L61.3104 48.9201C61.2719 48.9692 61.2777 49.0379 61.3258 49.0772L63.5246 50.9368C63.5727 50.9761 63.6399 50.9702 63.6803 50.9211L63.8764 50.6796C63.9148 50.6305 63.909 50.5618 63.861 50.5225L62.85 49.6663L63.1729 49.2696L64.1839 50.1258C64.2319 50.1651 64.2992 50.1592 64.3377 50.1101L64.5337 49.8686C64.5702 49.8234 64.5664 49.7507 64.5183 49.7115L62.3195 47.8498Z" fill="#767676"/>
<path d="M65.5244 47.4885L63.9215 46.3613C63.6639 46.1806 63.3103 46.2474 63.1354 46.5066L62.8605 46.9131C62.6837 47.1762 62.751 47.5336 63.0085 47.7143L64.6115 48.8414C64.869 49.0221 65.2169 48.9573 65.3937 48.6942L65.6686 48.2877C65.8435 48.0285 65.782 47.6691 65.5244 47.4885ZM65.2073 48.0599L65.0228 48.3328C64.9882 48.3839 64.9152 48.3976 64.8633 48.3623L63.3429 47.2941C63.293 47.2587 63.2853 47.188 63.3199 47.137L63.5044 46.864C63.539 46.813 63.6063 46.7933 63.6562 46.8287L65.1766 47.8969C65.2304 47.9342 65.2438 48.0088 65.2073 48.0599Z" fill="#767676"/>
<path d="M66.5557 46.691L64.1321 45.1573C64.0802 45.1239 64.009 45.1376 63.9764 45.1906L63.8149 45.4577C63.7822 45.5108 63.8015 45.5815 63.8534 45.6148L66.277 47.1486C66.3289 47.182 66.3962 47.1663 66.4289 47.1113L66.5903 46.8442C66.6249 46.7912 66.6095 46.7225 66.5557 46.691Z" fill="#767676"/>
<path d="M67.2746 44.4389L66.6172 44.0756C66.5634 44.0461 66.4942 44.0638 66.4654 44.1188L66.3193 44.3957C66.2905 44.4507 66.3135 44.5194 66.3674 44.5488L66.9747 44.8846C67.0285 44.9141 67.0458 44.9848 67.0189 45.0359L66.8632 45.3324C66.8344 45.3874 66.7672 45.411 66.7114 45.3815L65.0892 44.484C65.0354 44.4546 65.0181 44.3839 65.0469 44.3289L65.2045 44.0324C65.2314 43.9813 65.2987 43.9577 65.3525 43.9872L65.735 44.1993C65.7888 44.2287 65.858 44.2111 65.8869 44.1561L66.0329 43.8792C66.0618 43.8242 66.0387 43.7555 65.9849 43.7241L65.5601 43.4884C65.2853 43.3372 64.947 43.4393 64.799 43.7201L64.5683 44.1541C64.4203 44.4349 64.5203 44.7806 64.7951 44.9318L66.5115 45.8803C66.7825 46.0295 67.1266 45.9255 67.2726 45.6486L67.5033 45.2146C67.6513 44.9357 67.5456 44.5881 67.2746 44.4389Z" fill="#767676"/>
<path d="M68.4841 42.864L68.2285 42.7462C68.1728 42.7207 68.1093 42.7442 68.0824 42.8012L67.8307 43.3687L66.9869 42.9779L67.1464 42.6185C67.1714 42.5616 67.1483 42.4968 67.0926 42.4693L66.8446 42.3554C66.7889 42.3299 66.7255 42.3534 66.6986 42.4104L66.539 42.7697L65.9432 42.4948L66.195 41.9273C66.22 41.8703 66.1969 41.8055 66.1392 41.778L65.8836 41.6602C65.8279 41.6347 65.7645 41.6583 65.7375 41.7152L65.3128 42.6755C65.2878 42.7324 65.3109 42.7972 65.3666 42.8247L67.9671 44.0265C68.0228 44.0521 68.0863 44.0285 68.1132 43.9696L68.538 43.0093C68.5649 42.9543 68.5399 42.8895 68.4841 42.864Z" fill="#767676"/>
<path d="M14.5479 18.0682L17.085 19.4034C17.1388 19.4328 17.2042 19.4112 17.233 19.3543L17.3733 19.0755C17.4021 19.0185 17.381 18.9538 17.3253 18.9243L16.1893 18.3274L16.3431 18.0211C16.518 17.6735 16.3815 17.2396 16.0375 17.059L15.7876 16.9274C15.4436 16.7468 15.0188 16.8862 14.8439 17.2337L14.4979 17.919C14.471 17.974 14.4922 18.0407 14.5479 18.0682ZM15.2937 17.4674C15.3379 17.379 15.4417 17.3496 15.5281 17.3947L15.7972 17.5361C15.8799 17.5793 15.9145 17.6834 15.8722 17.7717L15.7165 18.078L15.138 17.7737L15.2937 17.4674Z" fill="#767676"/>
<path d="M15.7086 15.855L18.1285 17.4005C18.1804 17.4339 18.2496 17.4142 18.2803 17.3651L18.4437 17.0981C18.4764 17.045 18.461 16.9763 18.4091 16.9429L17.2808 16.2222L18.2669 16.2851C18.3226 16.2949 18.3687 16.3126 18.4091 16.3401L18.6705 16.507C18.7224 16.5404 18.7916 16.5207 18.8243 16.4677L18.9876 16.2006C19.0203 16.1476 19.003 16.0828 18.9511 16.0494L18.5782 15.8118C18.5379 15.7863 18.4879 15.7647 18.4398 15.7608L17.6038 15.7038C17.6499 15.4269 17.5307 15.1284 17.2789 14.9674L17.0444 14.8182C16.7158 14.608 16.2833 14.7082 16.0776 15.042L15.6759 15.6999C15.6432 15.749 15.6567 15.8216 15.7086 15.855ZM16.5043 15.315C16.5524 15.2345 16.6581 15.207 16.7407 15.26L16.9983 15.423C17.0829 15.478 17.1098 15.5899 17.0598 15.6685L16.8791 15.965L16.3237 15.6115L16.5043 15.315Z" fill="#767676"/>
<path d="M19.338 15.4861C19.388 15.5234 19.4553 15.5136 19.4918 15.4625L20.103 14.6142C20.1395 14.5631 20.1299 14.4944 20.0799 14.4571L19.8531 14.2862C19.8032 14.2489 19.7359 14.2587 19.6994 14.3098L19.338 14.8125L18.5923 14.2509L18.821 13.9327C18.8575 13.8817 18.8479 13.813 18.7979 13.7756L18.5788 13.6107C18.5288 13.5734 18.4616 13.5832 18.4251 13.6343L18.1963 13.9524L17.6697 13.5557L18.031 13.053C18.0676 13.0019 18.0579 12.9332 18.008 12.8959L17.7812 12.725C17.7312 12.6877 17.6639 12.6976 17.6274 12.7486L17.0162 13.5969C16.9797 13.648 16.9893 13.7167 17.0393 13.754L19.338 15.4861Z" fill="#767676"/>
<path d="M20.0856 13.6263C20.1087 13.6538 20.1318 13.6735 20.1414 13.6833L20.4451 13.9641C20.4912 14.0053 20.5585 14.0014 20.6008 13.9543L20.8045 13.7186C20.8449 13.6715 20.841 13.6028 20.7949 13.5596L20.5392 13.3278C20.52 13.3102 20.5027 13.2945 20.4874 13.2748L19.5513 12.2085L20.6642 12.9567C20.7103 12.9861 20.7718 12.9763 20.8064 12.9351L21.0275 12.6798C21.062 12.6405 21.062 12.5797 21.0275 12.5364L20.1664 11.4996L21.3177 12.3185C21.3407 12.3322 21.3561 12.3479 21.3773 12.3656L21.6329 12.5973C21.679 12.6386 21.7482 12.6346 21.7886 12.5875L21.9923 12.3519C22.0308 12.3087 22.0288 12.234 21.9827 12.1928L21.6733 11.9198C21.6636 11.91 21.6406 11.8904 21.6118 11.8688L19.5936 10.5217C19.5475 10.4922 19.4898 10.5001 19.4514 10.5433L19.2303 10.7985C19.1957 10.8398 19.1957 10.8987 19.2303 10.9419L20.2317 12.1889L18.9017 11.3209C18.8555 11.2914 18.7979 11.2993 18.7594 11.3425L18.5403 11.5939C18.5019 11.6371 18.5038 11.6979 18.5365 11.7411L20.0856 13.6263Z" fill="#767676"/>
<path d="M22.4651 11.7255C22.5074 11.7706 22.5766 11.7726 22.6208 11.7274L22.8418 11.5095C22.886 11.4663 22.888 11.3956 22.8438 11.3504L20.8603 9.25908C20.818 9.21392 20.7469 9.21 20.7027 9.2532L20.4817 9.47116C20.4375 9.51437 20.4394 9.58702 20.4817 9.63219L22.4651 11.7255Z" fill="#767676"/>
<path d="M23.1044 10.4607C23.3024 10.7003 23.6618 10.7317 23.8963 10.5295L24.2654 10.2114C24.4999 10.0091 24.5306 9.6419 24.3327 9.40234L22.7854 7.531C22.745 7.48388 22.6739 7.47406 22.6278 7.51333L22.3933 7.71558C22.3471 7.75682 22.3433 7.82948 22.3837 7.8766L23.8983 9.70671C23.9386 9.75384 23.929 9.82648 23.881 9.86772L23.633 10.0818C23.5869 10.123 23.5138 10.1191 23.4754 10.0719L21.9608 8.24184C21.9204 8.19471 21.8493 8.18489 21.8032 8.22416L21.5687 8.42642C21.5226 8.46765 21.5187 8.54031 21.5591 8.58744L23.1044 10.4607Z" fill="#767676"/>
<path d="M24.8547 8.92723C24.872 8.95865 24.8874 8.98417 24.897 8.99596L25.1257 9.34157C25.1603 9.39262 25.2276 9.40638 25.2795 9.37103L25.5313 9.19233C25.5812 9.15698 25.5947 9.08825 25.5601 9.0372L25.366 8.74854C25.3506 8.72694 25.3391 8.7073 25.3275 8.68374L24.6702 7.41912L25.5735 8.41668C25.6101 8.45595 25.6735 8.46184 25.7158 8.43042L25.9906 8.23601C26.0348 8.20459 26.0483 8.14765 26.0252 8.0966L25.4313 6.8791L26.3558 7.9552C26.375 7.97484 26.3866 7.99251 26.4019 8.01608L26.5961 8.30475C26.6307 8.3558 26.6979 8.36954 26.7479 8.33419L27.0016 8.1555C27.0477 8.12212 27.065 8.05143 27.0285 8.00038L26.7921 7.66065C26.7844 7.64887 26.7671 7.62335 26.7441 7.59586L25.1007 5.79711C25.0642 5.75783 25.0046 5.74998 24.9585 5.78336L24.6836 5.97777C24.6394 6.00919 24.626 6.0681 24.649 6.11719L25.3294 7.57228L24.2416 6.40585C24.205 6.36658 24.1455 6.35872 24.0993 6.39211L23.8283 6.58258C23.7822 6.61597 23.7668 6.67488 23.7899 6.72397L24.8547 8.92723Z" fill="#767676"/>
<path d="M28.5646 6.57273C28.7011 6.8555 29.0413 6.97332 29.3181 6.83586L29.7525 6.61789C30.0292 6.47847 30.1446 6.13091 30.01 5.84814L29.4622 4.70724C29.4353 4.65029 29.37 4.62869 29.3142 4.65618L28.7703 4.92914C28.7145 4.95663 28.6934 5.02339 28.7203 5.07837L28.8414 5.32776C28.8683 5.38471 28.9356 5.41024 28.9894 5.38275L29.1585 5.29831L29.5122 6.03076C29.5391 6.0877 29.5122 6.15447 29.4584 6.18196L29.1624 6.3312C29.1105 6.35673 29.0432 6.33709 29.0163 6.28015L28.2033 4.58745C28.1783 4.53443 28.2013 4.46375 28.2532 4.43822L28.5492 4.28898C28.605 4.26149 28.6742 4.28505 28.6992 4.33807L28.7761 4.49909C28.803 4.55604 28.8683 4.57763 28.924 4.55014L29.2008 4.41072C29.2566 4.38323 29.2777 4.31647 29.2508 4.26148L29.1508 4.0553C29.0125 3.7686 28.6742 3.65471 28.3974 3.79217L27.963 4.01013C27.6824 4.15152 27.569 4.4932 27.7074 4.7799L28.5646 6.57273Z" fill="#767676"/>
<path d="M30.6097 5.58682C30.6155 5.61431 30.6193 5.6261 30.627 5.64181L30.7673 6.00902C30.7904 6.06793 30.8519 6.09542 30.9095 6.07185L31.1959 5.95796C31.2536 5.9344 31.2805 5.87156 31.2574 5.81265L31.1113 5.43169L31.6591 5.21176L31.8052 5.59272C31.8282 5.65163 31.8897 5.67912 31.9436 5.65751L32.2338 5.54166C32.2914 5.51809 32.3183 5.45526 32.2953 5.39635L32.155 5.02913C32.1492 5.01146 32.1435 4.99968 32.13 4.97611L30.898 2.80819C30.873 2.76499 30.8134 2.73553 30.7596 2.75713L30.1465 3.0026C30.0927 3.0242 30.062 3.07918 30.0754 3.13613L30.6097 5.58682ZM31.4208 4.76599L30.9864 4.9388L30.6386 3.37766L31.4208 4.76599Z" fill="#767676"/>
<path d="M32.2999 3.22653C32.4094 3.6055 32.8015 3.81364 33.1725 3.70564L33.3666 3.64674C33.4588 3.61925 33.5568 3.66834 33.5838 3.76259L33.7471 4.32221C33.774 4.41647 33.7221 4.51661 33.628 4.54606L33.4338 4.60496C33.3416 4.63246 33.2436 4.57944 33.2147 4.48322L33.1052 4.10818C33.0879 4.04731 33.0283 4.01393 32.9687 4.0316L32.6747 4.12192C32.6151 4.1396 32.5824 4.20046 32.6016 4.26134L32.7035 4.61479C32.813 4.99376 33.207 5.21172 33.578 5.09783L33.7721 5.03892C34.1431 4.927 34.3545 4.52446 34.2449 4.14549L34.0912 3.61532C33.9797 3.23242 33.5914 3.01838 33.2167 3.13227L33.0225 3.19118C32.9284 3.21475 32.8323 3.16566 32.8034 3.06944L32.7266 2.80632C32.6996 2.71207 32.7535 2.61585 32.8457 2.58639L33.0398 2.52749C33.1321 2.5 33.2301 2.54909 33.257 2.64334L33.2839 2.73366C33.3012 2.79453 33.3608 2.82792 33.4204 2.81025L33.7144 2.71992C33.774 2.70225 33.8067 2.64137 33.7875 2.5805L33.7663 2.50785C33.6568 2.12888 33.2666 1.91092 32.8918 2.02481L32.6977 2.08371C32.3268 2.19564 32.1134 2.59818 32.2249 2.97715L32.2999 3.22653Z" fill="#767676"/>
<path d="M35.0017 4.10248C35.0652 4.41472 35.3612 4.61306 35.6648 4.54825L36.1377 4.4481C36.4394 4.38526 36.6374 4.08088 36.574 3.77061L36.1819 1.82456C36.1185 1.51232 35.8186 1.31005 35.5168 1.37289L35.044 1.47305C34.7384 1.53785 34.5443 1.84419 34.6077 2.15643L35.0017 4.10248ZM35.2247 1.96201L35.5438 1.89525C35.6033 1.88347 35.6648 1.91489 35.6764 1.97773L36.0493 3.82364C36.0608 3.88451 36.0204 3.94931 35.9609 3.96109L35.6418 4.02787C35.5822 4.03965 35.5188 3.99841 35.5072 3.93753L35.1363 2.09162C35.1228 2.03075 35.1651 1.97576 35.2247 1.96201Z" fill="#767676"/>
<path d="M37.5245 4.20447L38.5489 4.0729C38.6104 4.06504 38.6527 4.01006 38.645 3.94722L38.6104 3.66248C38.6027 3.59965 38.5489 3.55841 38.4874 3.56627L37.8781 3.64481L37.5706 1.14698C37.5629 1.08414 37.5091 1.04291 37.4476 1.05076L37.142 1.09003C37.0805 1.09789 37.0401 1.15287 37.0478 1.21571L37.4053 4.11021C37.4091 4.17108 37.4649 4.21232 37.5245 4.20447Z" fill="#767676"/>
<path d="M39.4328 3.99831L39.7403 3.97671C39.8018 3.97278 39.846 3.91976 39.8421 3.85692L39.6538 0.952588C39.65 0.889749 39.5981 0.838689 39.5366 0.84458L39.229 0.866184C39.1675 0.870111 39.1233 0.92706 39.1272 0.989899L39.3155 3.89423C39.3194 3.95707 39.3713 4.00223 39.4328 3.99831Z" fill="#767676"/>
<path d="M40.717 3.92561H41.0014C41.0629 3.92561 41.111 3.87652 41.111 3.81368L41.1129 1.96587L41.6857 3.84706C41.6991 3.89616 41.7433 3.92758 41.7914 3.92758H42.1162C42.1777 3.92758 42.2258 3.87848 42.2258 3.81565L42.2296 0.899596C42.2296 0.836758 42.1816 0.787671 42.1201 0.787671H41.826C41.7645 0.787671 41.7164 0.836758 41.7164 0.899596L41.7145 2.47446L41.2032 0.862286C41.1859 0.817121 41.1456 0.785706 41.0975 0.785706H40.7189C40.6574 0.785706 40.6093 0.834799 40.6093 0.897636L40.6055 3.81368C40.6074 3.87652 40.6554 3.92561 40.717 3.92561Z" fill="#767676"/>
<path d="M43.0774 3.97679L44.1057 4.06319C44.1672 4.06909 44.2191 4.02392 44.2249 3.96108L44.2479 3.67437C44.2537 3.61153 44.2095 3.55851 44.148 3.55262L43.5387 3.50156L43.6137 2.55701L43.9981 2.58843C44.0596 2.59432 44.1115 2.54916 44.1172 2.48632L44.1403 2.20943C44.1461 2.14659 44.1019 2.09357 44.0404 2.08768L43.654 2.05626L43.7079 1.39055L44.3171 1.44161C44.3786 1.4475 44.4305 1.40234 44.4363 1.3395L44.4594 1.05279C44.4651 0.989948 44.4209 0.936929 44.3594 0.931037L43.3311 0.844633C43.2696 0.838741 43.2177 0.883911 43.212 0.946751L42.9794 3.85504C42.9717 3.91788 43.0159 3.9709 43.0774 3.97679Z" fill="#767676"/>
<path d="M45.0209 4.18091L45.1035 4.19269L45.0363 4.29088C45.0209 4.31051 45.0074 4.33604 45.0036 4.36353L44.9921 4.44797C44.9863 4.48332 45.0132 4.51866 45.044 4.52259L45.1919 4.54419C45.2227 4.54811 45.2573 4.52259 45.2611 4.48725L45.2649 4.46564C45.2688 4.44404 45.2842 4.42244 45.2899 4.41459L45.3899 4.26535C45.4014 4.24375 45.4091 4.22214 45.4129 4.20054L45.4648 3.82745C45.4725 3.76461 45.436 3.71356 45.3841 3.70767L45.092 3.66447C45.0305 3.65465 44.9767 3.69392 44.969 3.75479L44.9267 4.0572C44.919 4.12004 44.9594 4.17109 45.0209 4.18091Z" fill="#767676"/>
<path d="M46.2436 4.37319L46.9912 4.53422C47.3699 4.61669 47.7447 4.36534 47.8235 3.98045L48.1675 2.31719C48.2482 1.92641 48.0041 1.54349 47.6255 1.46101L46.8779 1.29999C46.8183 1.28624 46.7587 1.32944 46.7472 1.39032L46.159 4.23966C46.1456 4.3025 46.1821 4.35944 46.2436 4.37319ZM47.1834 1.88321L47.5236 1.95586C47.6178 1.9755 47.6793 2.07173 47.6601 2.16795L47.3045 3.88815C47.2853 3.98438 47.1911 4.04722 47.097 4.02758L46.7568 3.95492L47.1834 1.88321Z" fill="#767676"/>
<path d="M48.4681 4.90556L48.764 4.98999C48.8236 5.00767 48.8832 4.97232 48.8986 4.91341L49.6732 2.10924C49.6905 2.04837 49.6578 1.98357 49.5982 1.9659L49.3022 1.88145C49.2426 1.86378 49.1811 1.90306 49.1657 1.96393L48.3912 4.76809C48.3739 4.82701 48.4085 4.88788 48.4681 4.90556Z" fill="#767676"/>
<path d="M49.7119 5.28438L50.6863 5.63193C50.744 5.65353 50.8055 5.62211 50.8267 5.56321L50.9189 5.29223C50.94 5.23333 50.9093 5.1705 50.8516 5.1489L50.275 4.94272L50.5806 4.0493L50.9458 4.17889C51.0035 4.20049 51.065 4.16907 51.0861 4.11017L51.1765 3.84705C51.1976 3.78814 51.1669 3.72531 51.1092 3.70371L50.744 3.57411L50.9612 2.94381L51.5378 3.14999C51.5955 3.17158 51.657 3.14017 51.6781 3.08126L51.7704 2.81029C51.7915 2.75138 51.7608 2.68854 51.7031 2.66694L50.7286 2.31939C50.671 2.29779 50.6095 2.32921 50.5883 2.38812L49.6446 5.14104C49.6254 5.20191 49.6542 5.26475 49.7119 5.28438Z" fill="#767676"/>
<path d="M52.0426 6.19777L52.2271 6.28025C52.5807 6.43933 52.9978 6.27436 53.1535 5.91299L53.3707 5.40827C53.5283 5.04298 53.3688 4.6227 53.0113 4.46165L52.8268 4.37917C52.7403 4.33596 52.698 4.23384 52.7364 4.14153L52.844 3.89212C52.8825 3.80177 52.9863 3.76446 53.0747 3.80374L53.2592 3.88622C53.3476 3.9255 53.3899 4.02763 53.3515 4.11797L53.3149 4.20438C53.29 4.26133 53.3149 4.32614 53.3707 4.35167L53.6513 4.47933C53.707 4.50486 53.7705 4.47933 53.7954 4.42237L53.8262 4.35167C53.9819 3.99031 53.8243 3.5661 53.4668 3.40506L53.2823 3.32257C52.9286 3.16349 52.5115 3.32847 52.3559 3.68983L52.254 3.92354C52.0983 4.2849 52.2636 4.70322 52.6153 4.86622L52.7998 4.9487C52.8883 4.98798 52.9305 5.09011 52.8921 5.18045L52.6615 5.71464C52.623 5.80498 52.5192 5.84622 52.4289 5.80695L52.2444 5.72446C52.156 5.68518 52.1156 5.57913 52.154 5.48682L52.3078 5.12939C52.3328 5.07243 52.3078 5.00762 52.2521 4.98209L51.9715 4.85444C51.9157 4.82891 51.8523 4.85444 51.8273 4.91139L51.6812 5.24723C51.5275 5.61252 51.6889 6.03869 52.0426 6.19777Z" fill="#767676"/>
<path d="M53.5881 6.94384L54.4972 7.44458C54.551 7.47404 54.6164 7.4544 54.6452 7.39942L54.7778 7.1461C54.8066 7.09112 54.7874 7.02435 54.7336 6.9949L54.1955 6.69838L54.6356 5.86578L54.9758 6.05233C55.0296 6.08179 55.0949 6.06215 55.1238 6.00717L55.2526 5.76171C55.2814 5.70673 55.2622 5.63996 55.2083 5.61051L54.8682 5.42396L55.1776 4.83485L55.7157 5.13137C55.7696 5.16082 55.8349 5.14119 55.8657 5.0862L55.9983 4.83289C56.0271 4.7779 56.0079 4.71114 55.9541 4.68169L55.045 4.18095C54.9912 4.15149 54.9258 4.17113 54.897 4.22611L53.5439 6.79264C53.5132 6.84762 53.5324 6.91439 53.5881 6.94384Z" fill="#767676"/>
<path d="M55.2978 7.92555L56.1685 8.49108C56.2204 8.52446 56.2877 8.50874 56.3204 8.45572L56.4703 8.2142C56.503 8.16118 56.4876 8.09245 56.4376 8.05907L55.9187 7.72328L57.2391 5.59665C57.2718 5.54363 57.2564 5.4749 57.2045 5.44152L56.945 5.27265C56.8931 5.23926 56.8259 5.25497 56.7932 5.30799L55.2632 7.77041C55.2306 7.82343 55.2459 7.89216 55.2978 7.92555Z" fill="#767676"/>
<path d="M57.0193 8.59139L56.8443 8.83881C56.8078 8.88986 56.8213 8.95467 56.8713 8.99197L56.9385 9.04106L56.8347 9.09604C56.8117 9.10586 56.7886 9.12353 56.7732 9.14513L56.7252 9.21386C56.704 9.24331 56.7117 9.28651 56.7367 9.30614L56.8578 9.39451C56.8828 9.41218 56.9251 9.40628 56.9462 9.37683L56.9597 9.35916C56.9731 9.34149 56.9962 9.32971 57.0058 9.32579L57.1615 9.24134C57.1807 9.2276 57.198 9.21189 57.2115 9.19422L57.4268 8.8879C57.4633 8.83684 57.4537 8.77401 57.4095 8.74259L57.1711 8.56783C57.1192 8.53249 57.0539 8.54034 57.0193 8.59139Z" fill="#767676"/>
<path d="M58.1161 9.95415C58.1642 9.99343 58.2315 9.98558 58.2699 9.93845L59.1002 8.89373L59.4039 9.14509C59.452 9.18436 59.5193 9.17652 59.5577 9.12939L59.7326 8.90945C59.771 8.86035 59.7653 8.79161 59.7172 8.75234L59.4135 8.50098L59.8229 7.98648L60.2996 8.38315C60.3477 8.42242 60.4149 8.41654 60.4534 8.36745L60.6302 8.14358C60.6686 8.09448 60.661 8.02575 60.6148 7.98648L59.8133 7.32076C59.7653 7.28149 59.698 7.28738 59.6596 7.33647L57.8586 9.60068C57.8202 9.64977 57.8278 9.7185 57.874 9.75778L58.1161 9.95415Z" fill="#767676"/>
<path d="M59.6495 11.3091L59.9993 11.6488C60.2223 11.8648 60.5817 11.857 60.795 11.6292L62.4479 9.85401C62.4902 9.80885 62.4921 9.73619 62.446 9.69299L62.2231 9.47697C62.1789 9.43377 62.1077 9.43967 62.0655 9.48484L60.449 11.2207C60.4068 11.2659 60.3356 11.2659 60.2914 11.2207L60.055 10.991C60.0108 10.9478 60.0051 10.8751 60.0473 10.83L61.6638 9.09405C61.706 9.04889 61.708 8.97624 61.6618 8.93304L61.4389 8.71703C61.3947 8.67383 61.3236 8.67973 61.2813 8.72489L59.6283 10.5001C59.4188 10.7259 59.4265 11.0931 59.6495 11.3091Z" fill="#767676"/>
<path d="M60.9898 12.6778L61.6779 13.4633C61.7183 13.5104 61.7875 13.5143 61.8336 13.4711L62.0431 13.2787C62.0892 13.2375 62.0931 13.1668 62.0508 13.1196L61.6433 12.6543L62.3333 12.022L62.5908 12.3165C62.6312 12.3637 62.7004 12.3676 62.7465 12.3244L62.9483 12.1378C62.9945 12.0966 62.9983 12.0259 62.956 11.9788L62.6985 11.6842L63.1847 11.2385L63.5922 11.7019C63.6326 11.749 63.7017 11.753 63.7479 11.7098L63.9574 11.5173C64.0035 11.4761 64.0073 11.4054 63.9651 11.3583L63.277 10.5729C63.2366 10.5257 63.1674 10.5218 63.1213 10.565L60.9956 12.5109C60.9514 12.562 60.9495 12.6307 60.9898 12.6778Z" fill="#767676"/>
<path d="M62.267 14.1898L62.8994 15.0223C62.9378 15.0714 63.0051 15.0813 63.0532 15.042L63.2761 14.8653C63.3242 14.826 63.3338 14.7573 63.2954 14.7082L62.9186 14.2114L64.8657 12.67C64.9137 12.6308 64.9234 12.562 64.8849 12.513L64.6966 12.2655C64.6581 12.2165 64.5908 12.2066 64.5428 12.2459L62.2863 14.0308C62.2382 14.07 62.2305 14.1388 62.267 14.1898Z" fill="#767676"/>
<path d="M64.388 17.3201L64.6302 17.7462C64.7839 18.0172 65.1299 18.1134 65.399 17.9543L67.0808 16.9548C67.3499 16.7938 67.4422 16.4384 67.2884 16.1674L67.0462 15.7413C66.8886 15.4664 66.5426 15.3761 66.2735 15.5351L64.5917 16.5346C64.3207 16.6956 64.2304 17.0452 64.388 17.3201ZM64.905 16.9705L66.4984 16.0221C66.5522 15.9907 66.6157 16.0142 66.6464 16.0692L66.8098 16.3559C66.8406 16.4109 66.829 16.4796 66.7752 16.511L65.1799 17.4595C65.1261 17.4909 65.055 17.4713 65.0242 17.4183L64.8608 17.1316C64.8339 17.0766 64.8531 17.002 64.905 16.9705Z" fill="#767676"/>
<path d="M65.3074 19.0343L65.4439 19.3151C65.4708 19.372 65.5362 19.3936 65.59 19.3661L68.1463 18.076C68.2021 18.0485 68.2271 17.9798 68.2001 17.9229L68.0637 17.6421C68.0368 17.5851 67.9676 17.5655 67.9118 17.593L65.3555 18.8831C65.3017 18.9125 65.2786 18.9793 65.3074 19.0343Z" fill="#767676"/>
<path d="M68.694 19.0108C68.6709 18.9519 68.6075 18.9264 68.5498 18.9499L65.9186 20.081C65.8629 20.1046 65.836 20.1694 65.8609 20.2283L66.2607 21.2003C66.2838 21.2573 66.3472 21.2848 66.4049 21.2592L66.6643 21.1473C66.722 21.1238 66.747 21.0589 66.7239 21L66.4856 20.4208L68.7574 19.4448C68.8131 19.4212 68.84 19.3564 68.817 19.2975L68.694 19.0108Z" fill="#767676"/>
</svg>
